<svg width="16" height="16" viewBox="0 0 16 16" fill="none" xmlns="http://www.w3.org/2000/svg">
<path d="M13.6569 2.34313C12.1459 0.832125 10.1369 0 8 0C5.86312 0 3.85413 0.832125 2.34313 2.34313C0.832125 3.85413 0 5.86312 0 8C0 10.1369 0.832156 12.1458 2.34313 13.6569C3.85409 15.1679 5.86312 16 8 16C10.1369 16 12.1459 15.1679 13.6569 13.6569C15.1679 12.1459 16 10.1369 16 8C16 5.86312 15.1678 3.85416 13.6569 2.34313ZM8 7.5C9.24066 7.5 10.25 8.50934 10.25 9.75C10.25 10.7774 9.55759 11.6456 8.61506 11.9138C8.54734 11.9331 8.5 11.994 8.5 12.0644V12.4859C8.5 12.7551 8.29309 12.9868 8.02416 12.9994C7.737 13.0129 7.5 12.7842 7.5 12.5V12.0643C7.5 11.9941 7.45294 11.9332 7.38541 11.914C6.44691 11.6471 5.75628 10.7854 5.75003 9.76397C5.74838 9.49131 5.96275 9.25803 6.23531 9.25022C6.51816 9.24209 6.75 9.46897 6.75 9.75C6.75 10.4688 7.35991 11.0479 8.08934 10.9969C8.70509 10.9538 9.20387 10.455 9.24687 9.83928C9.29781 9.10981 8.71878 8.5 8 8.5C6.75934 8.5 5.75 7.49066 5.75 6.25C5.75 5.22259 6.44241 4.35441 7.38494 4.08616C7.45266 4.06687 7.5 4.00597 7.5 3.93556V3.51413C7.5 3.24488 7.70691 3.01322 7.97584 3.00056C8.263 2.98706 8.5 3.21584 8.5 3.5V3.93566C8.5 4.00588 8.54706 4.06681 8.61459 4.08603C9.55309 4.35291 10.2437 5.21456 10.25 6.23603C10.2516 6.50869 10.0373 6.74197 9.76469 6.74978C9.48184 6.75791 9.25 6.53103 9.25 6.25C9.25 5.53119 8.64009 4.95213 7.91066 5.00313C7.29491 5.04616 6.79613 5.54497 6.75313 6.16072C6.70219 6.89019 7.28122 7.5 8 7.5Z" fill="white"/>
</svg>
