<svg width="14" height="14" viewBox="0 0 14 14" fill="none" xmlns="http://www.w3.org/2000/svg">
<g clip-path="url(#clip0)">
<path d="M8.28263 7.01214L13.734 1.56066C14.0887 1.20607 14.0887 0.632735 13.734 0.278139C13.3794 -0.0764572 12.806 -0.0764572 12.4514 0.278139L6.99994 5.72961L1.5486 0.278139C1.19384 -0.0764572 0.62067 -0.0764572 0.266073 0.278139C-0.0886909 0.632735 -0.0886909 1.20607 0.266073 1.56066L5.71741 7.01214L0.266073 12.4636C-0.0886909 12.8182 -0.0886909 13.3915 0.266073 13.7461C0.44279 13.923 0.675147 14.0119 0.907338 14.0119C1.13953 14.0119 1.37172 13.923 1.5486 13.7461L6.99994 8.29466L12.4514 13.7461C12.6283 13.923 12.8605 14.0119 13.0927 14.0119C13.3249 14.0119 13.5571 13.923 13.734 13.7461C14.0887 13.3915 14.0887 12.8182 13.734 12.4636L8.28263 7.01214Z" fill="#002261"/>
</g>
<defs>
<clipPath id="clip0">
<rect width="14" height="14" fill="white"/>
</clipPath>
</defs>
</svg>
