<svg width="13" height="13" viewBox="0 0 13 13" fill="none" xmlns="http://www.w3.org/2000/svg">
<path d="M4.55 13C4.37761 13 4.21228 12.9315 4.09038 12.8096C3.96848 12.6877 3.9 12.5224 3.9 12.35V10.4H1.3C0.955218 10.4 0.624558 10.263 0.380761 10.0192C0.136964 9.77544 0 9.44478 0 9.1V1.3C0 0.5785 0.585 0 1.3 0H11.7C12.0448 0 12.3754 0.136964 12.6192 0.380761C12.863 0.624558 13 0.955218 13 1.3V9.1C13 9.44478 12.863 9.77544 12.6192 10.0192C12.3754 10.263 12.0448 10.4 11.7 10.4H7.735L5.33 12.8115C5.2 12.935 5.0375 13 4.875 13H4.55Z" fill="black" fill-opacity="0.4"/>
</svg>
