<svg width="19" height="19" viewBox="0 0 19 19" fill="none" xmlns="http://www.w3.org/2000/svg">
<path d="M7.32287 0H1.38537C0.621437 0 0 0.621437 0 1.38537V4.94787C0 5.71194 0.621437 6.33338 1.38537 6.33338H7.32287C8.08694 6.33338 8.70838 5.71194 8.70838 4.94787V1.38537C8.70838 0.621437 8.08694 0 7.32287 0Z" fill="white"/>
<path d="M7.32287 7.9165H1.38537C0.621437 7.9165 0 8.53794 0 9.30202V17.6145C0 18.3784 0.621437 18.9999 1.38537 18.9999H7.32287C8.08694 18.9999 8.70838 18.3784 8.70838 17.6145V9.30202C8.70838 8.53794 8.08694 7.9165 7.32287 7.9165Z" fill="white"/>
<path d="M17.6145 12.6665H11.677C10.9129 12.6665 10.2915 13.2879 10.2915 14.052V17.6145C10.2915 18.3784 10.9129 18.9999 11.677 18.9999H17.6145C18.3784 18.9999 18.9999 18.3784 18.9999 17.6145V14.052C18.9999 13.2879 18.3784 12.6665 17.6145 12.6665Z" fill="white"/>
<path d="M17.6145 0H11.677C10.9129 0 10.2915 0.621437 10.2915 1.38537V9.69787C10.2915 10.4619 10.9129 11.0834 11.677 11.0834H17.6145C18.3784 11.0834 18.9999 10.4619 18.9999 9.69787V1.38537C18.9999 0.621437 18.3784 0 17.6145 0V0Z" fill="white"/>
</svg>
