<svg width="15" height="15" viewBox="0 0 15 15" fill="none" xmlns="http://www.w3.org/2000/svg">
<path d="M11.2077 6.83719C11.1318 6.66938 10.9649 6.5625 10.7812 6.5625H8.90618V0.46875C8.90618 0.21 8.69618 0 8.43743 0H6.56243C6.30368 0 6.09368 0.21 6.09368 0.46875V6.5625H4.21869C4.03494 6.5625 3.86806 6.67031 3.79212 6.83719C3.71525 7.005 3.74525 7.20094 3.86619 7.33969L7.14743 11.0897C7.2365 11.1919 7.36493 11.25 7.49993 11.25C7.63493 11.25 7.76337 11.1909 7.85243 11.0897L11.1337 7.33969C11.2556 7.20188 11.2837 7.005 11.2077 6.83719Z" fill="white"/>
<path d="M12.6562 10.3125V13.125H2.34375V10.3125H0.46875V14.0625C0.46875 14.5809 0.88875 15 1.40625 15H13.5938C14.1122 15 14.5312 14.5809 14.5312 14.0625V10.3125H12.6562Z" fill="white"/>
</svg>
