<svg width="15" height="15" viewBox="0 0 15 15" fill="none" xmlns="http://www.w3.org/2000/svg">
<path d="M1.66667 0C0.741667 0 0 0.741667 0 1.66667V13.3333C0 13.7754 0.175595 14.1993 0.488155 14.5118C0.800716 14.8244 1.22464 15 1.66667 15H13.3333C13.7754 15 14.1993 14.8244 14.5118 14.5118C14.8244 14.1993 15 13.7754 15 13.3333V7.5H13.3333V13.3333H1.66667V1.66667H7.5V0H1.66667ZM12.3167 0.833333C12.175 0.833333 12.025 0.891666 11.9167 1L10.9 2.00833L12.9833 4.09167L14 3.08333C14.2167 2.86667 14.2167 2.5 14 2.29167L12.7083 1C12.6 0.891666 12.4583 0.833333 12.3167 0.833333ZM10.3083 2.6L4.16667 8.75V10.8333H6.25L12.3917 4.68333L10.3083 2.6Z" fill="white"/>
</svg>
