<svg width="24" height="24" viewBox="0 0 24 24" fill="none" xmlns="http://www.w3.org/2000/svg">
<path d="M8 11H5V8H3V11H0V13H3V16H5V13H8V11ZM18 12C19.66 12 20.99 10.66 20.99 9C20.99 7.34 19.66 6 18 6C17.68 6 17.37 6.05 17.09 6.14C17.66 6.95 17.99 7.93 17.99 9C17.99 10.07 17.65 11.04 17.09 11.86C17.37 11.95 17.68 12 18 12ZM13 12C14.66 12 15.99 10.66 15.99 9C15.99 7.34 14.66 6 13 6C11.34 6 10 7.34 10 9C10 10.66 11.34 12 13 12ZM19.62 14.16C20.45 14.89 21 15.82 21 17V19H24V17C24 15.46 21.63 14.51 19.62 14.16ZM13 14C11 14 7 15 7 17V19H19V17C19 15 15 14 13 14Z" fill="black" fill-opacity="0.4"/>
</svg>
