<svg width="10" height="10" viewBox="0 0 10 10" fill="none" xmlns="http://www.w3.org/2000/svg">
<path d="M6.18241 3.8934L8.53689 1.43873V2.44736C8.53689 2.66279 8.7044 2.83743 8.91104 2.83743C9.11767 2.83743 9.2852 2.66279 9.2852 2.44736V0.497035C9.2852 0.484181 9.28455 0.471327 9.28334 0.45851C9.2828 0.452732 9.28176 0.447137 9.28097 0.44145C9.28002 0.434557 9.27925 0.427645 9.27796 0.420789C9.27671 0.414243 9.27499 0.407898 9.27343 0.40148C9.27201 0.395574 9.27076 0.389632 9.26906 0.383781C9.26724 0.377472 9.26496 0.371384 9.26284 0.365222C9.26082 0.359389 9.25898 0.353501 9.2567 0.347742C9.25442 0.341982 9.25172 0.336478 9.24919 0.330865C9.24651 0.324941 9.24398 0.318962 9.241 0.313147C9.23823 0.307771 9.23509 0.302652 9.23209 0.297422C9.22883 0.291736 9.22574 0.285976 9.22218 0.280418C9.21848 0.27464 9.21434 0.269209 9.21036 0.263651C9.20703 0.259025 9.20394 0.254271 9.2004 0.249754C9.19263 0.239899 9.18446 0.230409 9.17581 0.221395C9.17574 0.221322 9.17569 0.221249 9.17562 0.221176C9.17555 0.221103 9.17548 0.221066 9.17543 0.220993C9.16676 0.211979 9.15768 0.20344 9.14821 0.19534C9.14387 0.191628 9.13932 0.18841 9.13486 0.184936C9.12955 0.180785 9.12434 0.176488 9.11879 0.17263C9.11346 0.168918 9.10794 0.1657 9.10247 0.162299C9.09745 0.159173 9.09256 0.1559 9.0874 0.153011C9.08182 0.149902 9.07611 0.147269 9.07041 0.144472C9.06502 0.141821 9.05973 0.139023 9.05422 0.136628C9.04869 0.134251 9.04305 0.132313 9.03743 0.130228C9.03152 0.128016 9.0257 0.125657 9.01967 0.123755C9.01406 0.121982 9.00834 0.120684 9.00267 0.119203C8.99652 0.117575 8.99043 0.115783 8.98417 0.114485C8.97759 0.113132 8.97096 0.112309 8.96435 0.111322C8.9589 0.110517 8.95353 0.10942 8.94799 0.108853C8.9357 0.10761 8.92338 0.106934 8.91105 0.106934H7.0403C6.83366 0.106934 6.66615 0.28157 6.66615 0.496999C6.66615 0.712428 6.83366 0.887064 7.0403 0.887064H8.00776L5.65328 3.34175C5.50717 3.49408 5.50717 3.74107 5.65328 3.8934C5.7994 4.04573 6.0363 4.04573 6.18241 3.8934Z" fill="white"/>
<path d="M3.40845 5.68212L1.05397 8.13679V7.12815C1.05397 6.91273 0.886462 6.73809 0.679826 6.73809C0.473172 6.73809 0.305664 6.91273 0.305664 7.12815V9.07852C0.305664 9.09137 0.306313 9.10421 0.307523 9.11701C0.308067 9.12277 0.309102 9.12836 0.309891 9.13406C0.310838 9.14096 0.31161 9.14789 0.312925 9.15473C0.31417 9.16127 0.315889 9.1676 0.31745 9.17402C0.31887 9.17994 0.320116 9.18588 0.321817 9.19173C0.323641 9.19802 0.325903 9.20411 0.328025 9.21026C0.330042 9.21611 0.331884 9.222 0.334164 9.22776C0.336444 9.23352 0.339145 9.23902 0.341688 9.24463C0.344371 9.25056 0.346897 9.25654 0.349878 9.26235C0.352649 9.26773 0.355788 9.27283 0.358787 9.27806C0.36205 9.28374 0.365136 9.28952 0.368697 9.29508C0.372397 9.30086 0.376519 9.30627 0.3805 9.31183C0.383832 9.31647 0.386919 9.32123 0.390479 9.32574C0.398249 9.33562 0.406439 9.34511 0.415085 9.35412C0.415156 9.35419 0.415191 9.35427 0.415261 9.35432C0.415331 9.35439 0.415401 9.35445 0.415471 9.35452C0.424118 9.36352 0.43322 9.37206 0.442673 9.38016C0.447005 9.38387 0.451565 9.38709 0.456002 9.39054C0.461334 9.39469 0.466543 9.39901 0.472085 9.40287C0.477399 9.40658 0.482923 9.4098 0.488395 9.4132C0.493411 9.41632 0.498304 9.4196 0.503478 9.42249C0.509055 9.42559 0.51479 9.42823 0.520473 9.43103C0.525857 9.43368 0.531154 9.43647 0.536661 9.43885C0.542185 9.44123 0.547815 9.44315 0.553427 9.44525C0.559338 9.44746 0.565178 9.44982 0.571229 9.45174C0.576841 9.45352 0.582541 9.45481 0.588206 9.45629C0.594362 9.45792 0.600447 9.45971 0.606726 9.46101C0.613303 9.46236 0.619932 9.46317 0.626544 9.46416C0.631999 9.46496 0.637383 9.46606 0.642908 9.46663C0.655184 9.46789 0.667496 9.46856 0.679808 9.46856H0.679826H2.55056C2.7572 9.46856 2.92471 9.29393 2.92471 9.0785C2.92471 8.86307 2.7572 8.68843 2.55056 8.68843H1.5831L3.93758 6.23376C4.08369 6.08143 4.08369 5.83445 3.93758 5.68212C3.79147 5.52979 3.55456 5.52979 3.40845 5.68212Z" fill="white"/>
<path d="M9.21041 9.31179C9.21438 9.30627 9.2185 9.30086 9.22218 9.2951C9.22576 9.28954 9.22885 9.28376 9.23211 9.27806C9.23509 9.27284 9.23823 9.26774 9.24098 9.26239C9.24397 9.25657 9.24651 9.25057 9.24919 9.24463C9.25173 9.23904 9.2544 9.23353 9.2567 9.22779C9.25898 9.22203 9.26084 9.21614 9.26284 9.21029C9.26496 9.20413 9.26722 9.19806 9.26905 9.19177C9.27075 9.18592 9.27199 9.17996 9.27341 9.17405C9.27497 9.16763 9.27669 9.16129 9.27794 9.15476C9.27924 9.14791 9.28001 9.14099 9.28097 9.1341C9.28174 9.12841 9.2828 9.12282 9.28334 9.11704C9.28455 9.10422 9.2852 9.09137 9.2852 9.07852V7.12815C9.2852 6.91273 9.11769 6.73809 8.91105 6.73809C8.70442 6.73809 8.53691 6.91273 8.53691 7.12815V8.13679L6.18241 5.68212C6.0363 5.52979 5.7994 5.52979 5.65328 5.68212C5.50717 5.83445 5.50717 6.08143 5.65328 6.23376L8.00776 8.68843H7.0403C6.83366 8.68843 6.66615 8.86307 6.66615 9.0785C6.66615 9.29393 6.83366 9.46858 7.0403 9.46858H8.91105C8.92338 9.46858 8.9357 9.4679 8.94797 9.46664C8.9535 9.46608 8.95886 9.465 8.96434 9.46417C8.97095 9.46319 8.97759 9.46238 8.98415 9.46101C8.99043 9.45971 8.9965 9.45792 9.00266 9.45629C9.00834 9.45481 9.01404 9.45351 9.01965 9.45174C9.02568 9.44984 9.03152 9.44748 9.03742 9.44527C9.04303 9.44317 9.04868 9.44125 9.0542 9.43887C9.05971 9.43649 9.06499 9.43369 9.07035 9.43104C9.07605 9.42824 9.08181 9.42561 9.08738 9.42249C9.09252 9.41961 9.09742 9.41634 9.10241 9.41323C9.10789 9.40983 9.11343 9.4066 9.11876 9.40288C9.12428 9.39903 9.12948 9.39475 9.13477 9.39062C9.13924 9.38712 9.14382 9.38389 9.14817 9.38018C9.15755 9.37215 9.16659 9.36366 9.17518 9.35472C9.17532 9.35459 9.17546 9.35447 9.17558 9.35434C9.17571 9.35421 9.17583 9.35405 9.17595 9.35392C9.18451 9.34496 9.19265 9.33556 9.20037 9.32576C9.20396 9.32123 9.20707 9.31645 9.21041 9.31179Z" fill="white"/>
<path d="M1.58359 0.887082H2.55105C2.75769 0.887082 2.9252 0.712446 2.9252 0.497017C2.9252 0.28157 2.75769 0.106934 2.55105 0.106934H0.680296H0.680279C0.667967 0.106934 0.655638 0.10761 0.643378 0.108872C0.637836 0.109439 0.63247 0.110517 0.627015 0.11134C0.620403 0.112328 0.613774 0.113132 0.607197 0.114485C0.600918 0.115783 0.594832 0.117575 0.588676 0.119203C0.583012 0.120684 0.577312 0.121982 0.571699 0.123755C0.565649 0.125657 0.559808 0.128034 0.553898 0.130246C0.548303 0.132349 0.542656 0.134269 0.537131 0.136646C0.531607 0.139041 0.526293 0.141839 0.520909 0.144508C0.515244 0.147288 0.509509 0.149921 0.503949 0.153029C0.498775 0.155918 0.493865 0.159209 0.488831 0.162336C0.483394 0.165719 0.47787 0.168918 0.472556 0.17263C0.466996 0.176506 0.461769 0.180822 0.45642 0.18499C0.452001 0.188446 0.447458 0.191646 0.443161 0.19534C0.424097 0.211649 0.406594 0.229897 0.39095 0.249773C0.387407 0.254252 0.384338 0.258988 0.381023 0.263614C0.377025 0.269191 0.372885 0.27464 0.369167 0.280436C0.365607 0.285976 0.362538 0.291718 0.359276 0.297404C0.356277 0.302634 0.35312 0.307771 0.350349 0.313165C0.347367 0.318962 0.344859 0.324922 0.342176 0.330847C0.339633 0.33646 0.336932 0.342 0.334635 0.34776C0.332355 0.353519 0.330513 0.359389 0.328496 0.36524C0.326374 0.371402 0.324112 0.377491 0.32227 0.383799C0.320569 0.38965 0.319324 0.395592 0.317903 0.401498C0.316342 0.407916 0.314623 0.414261 0.313378 0.420807C0.31208 0.427664 0.311309 0.434575 0.310362 0.441468C0.30959 0.447155 0.308538 0.452768 0.307994 0.458528C0.306801 0.471309 0.306152 0.484145 0.306152 0.496999V2.44736C0.306152 2.66279 0.47366 2.83743 0.680296 2.83743C0.886932 2.83743 1.05444 2.66279 1.05444 2.44736V1.43873L3.40892 3.8934C3.55503 4.04573 3.79194 4.04573 3.93805 3.8934C4.08416 3.74107 4.08416 3.49408 3.93805 3.34175L1.58359 0.887082Z" fill="white"/>
</svg>
