<svg width="30" height="30" viewBox="0 0 30 30" fill="none" xmlns="http://www.w3.org/2000/svg">
<g clip-path="url(#clip0)">
<path d="M6.52399 17.7904L5.49978 21.6171L1.75457 21.6964C0.621834 19.5863 0.0200316 17.2321 0.00118896 14.8373C-0.0176536 12.4424 0.547031 10.0791 1.64643 7.95142L4.98103 8.5627L6.44186 11.8771C5.78491 13.7988 5.81413 15.8889 6.52456 17.7915L6.52399 17.7904Z" fill="#FBBB00"/>
<path d="M29.1821 11.9695C29.6813 14.5938 29.4567 17.3045 28.5323 19.8108C27.6079 22.3171 26.0187 24.5245 23.935 26.1962L19.7352 25.9816L19.1407 22.2711C20.875 21.2545 22.2076 19.6731 22.9154 17.7914H15.0444V11.9695H29.1832H29.1821Z" fill="#518EF8"/>
<path d="M23.9338 26.1973C22.2493 27.5491 20.2881 28.5138 18.1891 29.023C16.0901 29.5322 13.9049 29.5734 11.7882 29.1436C9.67156 28.7138 7.67537 27.8237 5.94118 26.5363C4.207 25.2488 2.77729 23.5956 1.75342 21.6939L6.52341 17.7891C6.97131 18.9829 7.67459 20.0645 8.58409 20.9581C9.49359 21.8518 10.5873 22.536 11.7888 22.9629C12.9903 23.3898 14.2706 23.5491 15.5401 23.4296C16.8096 23.3101 18.0376 22.9147 19.1383 22.271L23.9338 26.1973Z" fill="#28B446"/>
<path d="M24.1148 3.38896L19.3466 7.29263C18.2295 6.59688 16.97 6.16196 15.6616 6.02025C14.3533 5.87854 13.0298 6.03367 11.7897 6.47411C10.5495 6.91454 9.42471 7.62895 8.49883 8.56417C7.57296 9.49939 6.86988 10.6313 6.44192 11.8758L1.64648 7.95018C2.6581 5.99763 4.09427 4.2965 5.84951 2.97175C7.60474 1.647 9.63445 0.732284 11.7895 0.294788C13.9446 -0.142709 16.1704 -0.0918701 18.3032 0.443571C20.4361 0.979011 22.4219 1.98545 24.1148 3.38896Z" fill="#F14336"/>
</g>
<defs>
<clipPath id="clip0">
<rect width="29.4388" height="29.4388" fill="white"/>
</clipPath>
</defs>
</svg>
