<svg width="28" height="28" viewBox="0 0 28 28" fill="none" xmlns="http://www.w3.org/2000/svg">
<path d="M27.5206 5.00818C27.2658 2.6203 25.3799 0.734009 22.9918 0.47937C17.0031 -0.15979 10.9969 -0.15979 5.00839 0.47937C2.6203 0.734222 0.734222 2.6203 0.47937 5.00818C-0.15979 10.9967 -0.15979 17.0031 0.47937 22.9916C0.734222 25.3797 2.6203 27.2658 5.00818 27.5206C10.9967 28.1598 17.0031 28.1598 22.9918 27.5206C25.3799 27.2658 27.2658 25.3797 27.5206 22.9916C28.1598 17.0031 28.1598 10.9969 27.5206 5.00818Z" fill="url(#paint0_radial)"/>
<path d="M25.9979 6.02101C25.7719 3.90208 24.0983 2.22835 21.9792 2.00212C16.6651 1.43517 11.3352 1.43517 6.02113 2.00212C3.90221 2.22835 2.22847 3.90208 2.00224 6.02101C1.43529 11.3351 1.43529 16.665 2.00224 21.9789C2.22847 24.098 3.90221 25.7717 6.02113 25.9978C11.3352 26.5649 16.6651 26.5649 21.979 25.9978C24.0981 25.7717 25.7719 24.098 25.9979 21.9789C26.5651 16.665 26.5651 11.3351 25.9979 6.02101Z" fill="url(#paint1_linear)"/>
<path d="M0.419678 22.4111C0.438904 22.6047 0.458771 22.7982 0.479492 22.9918C0.734344 25.3796 2.62042 27.2657 5.00851 27.5206C10.997 28.1597 17.0034 28.1597 22.9919 27.5206C25.38 27.2657 27.2659 25.3796 27.5208 22.9918C27.5415 22.7982 27.5613 22.6047 27.5808 22.4111H0.419678Z" fill="url(#paint2_linear)"/>
<path d="M27.5207 22.9916C27.8642 19.7738 28.0227 16.5509 27.9971 13.3284L21.597 6.92821C20.7974 6.0154 19.6295 5.44567 18.2572 5.39632C15.435 5.29464 12.6039 5.29977 9.78125 5.39675C7.43695 5.4775 5.79761 7.05318 5.3772 9.36907C5.30307 9.77795 5.25864 10.1922 5.20032 10.604V17.3934C5.23257 17.6134 5.28 17.8324 5.29474 18.0537C5.38873 19.4623 5.96765 20.6689 6.89456 21.4851L13.4075 27.9979C16.6037 28.0203 19.8002 27.8614 22.9919 27.5206C25.38 27.2658 27.2659 25.3797 27.5207 22.9916Z" fill="url(#paint3_linear)"/>
<path d="M27.5205 22.9919C27.2659 25.3796 25.3794 27.2661 22.9917 27.5208C19.8004 27.8613 16.6033 28.0204 13.4075 27.998L6.90442 21.4949C7.6583 22.1548 8.64096 22.5566 9.78128 22.5995C12.6032 22.7055 15.435 22.7027 18.257 22.601C20.8094 22.5087 22.6563 20.6197 22.736 18.0673C22.8211 15.3573 22.8211 12.6402 22.736 9.93018C22.6997 8.75269 22.2864 7.71661 21.6011 6.93262L27.9971 13.3287C28.0223 16.5508 27.8638 19.7741 27.5205 22.9919Z" fill="url(#paint4_linear)"/>
<path d="M17.3038 10.968C16.4839 10.0753 15.3075 9.51514 13.9999 9.51514C11.5232 9.51514 9.51514 11.5232 9.51514 13.9999C9.51514 15.3075 10.0753 16.484 10.968 17.3038L21.3443 27.6802C21.8935 27.6323 22.4428 27.5791 22.9915 27.5206C25.3796 27.2657 27.2657 25.3796 27.5206 22.9916C27.5791 22.4428 27.6323 21.8935 27.6801 21.3443L17.3038 10.968Z" fill="url(#paint5_linear)"/>
<path d="M27.9456 17.0161L19.5947 8.66534C19.3999 8.40964 19.0929 8.24365 18.7466 8.24365C18.1574 8.24365 17.6796 8.72131 17.6796 9.3107C17.6796 9.65698 17.8456 9.96396 18.1013 10.1588L27.7963 19.8541C27.8621 18.9084 27.9119 17.9622 27.9456 17.0161Z" fill="url(#paint6_linear)"/>
<path d="M5.20032 10.604C5.25864 10.1922 5.30307 9.77795 5.3772 9.36907C5.79739 7.05318 7.43695 5.4775 9.78125 5.39675C12.6039 5.29977 15.435 5.29464 18.2572 5.39632C20.8087 5.48818 22.6565 7.37746 22.7362 9.92983C22.821 12.6401 22.821 15.3569 22.7362 18.0672C22.6565 20.6195 20.8093 22.5086 18.2574 22.6007C15.4352 22.7026 12.6034 22.7051 9.78146 22.5992C7.22952 22.5033 5.46542 20.6097 5.29474 18.0535C5.28 17.8324 5.23257 17.6132 5.20032 17.3932C5.20032 15.1301 5.20032 12.8669 5.20032 10.604ZM14.0024 21.088C15.294 21.088 16.5869 21.1267 17.8767 21.079C19.8991 21.0041 21.143 19.7971 21.1902 17.7766C21.2488 15.2591 21.2488 12.7381 21.1902 10.2204C21.143 8.20034 19.8982 6.96517 17.8767 6.92223C15.3109 6.86797 12.7423 6.8684 10.1765 6.92223C8.17032 6.96432 6.92276 8.17449 6.86829 10.1723C6.79907 12.7217 6.79907 15.2755 6.86829 17.8249C6.92276 19.8225 8.17032 21.0047 10.1767 21.079C11.4503 21.1265 12.7271 21.088 14.0024 21.088Z" fill="url(#paint7_linear)"/>
<path d="M5.20032 10.604C5.25864 10.1922 5.30307 9.77795 5.3772 9.36907C5.79739 7.05318 7.43695 5.4775 9.78125 5.39675C12.6039 5.29977 15.435 5.29464 18.2572 5.39632C20.8087 5.48818 22.6565 7.37746 22.7362 9.92983C22.821 12.6401 22.821 15.3569 22.7362 18.0672C22.6565 20.6195 20.8093 22.5086 18.2574 22.6007C15.4352 22.7026 12.6034 22.7051 9.78146 22.5992C7.22952 22.5033 5.46542 20.6097 5.29474 18.0535C5.28 17.8324 5.23257 17.6132 5.20032 17.3932C5.20032 15.1301 5.20032 12.8669 5.20032 10.604ZM14.0024 21.088C15.294 21.088 16.5869 21.1267 17.8767 21.079C19.8991 21.0041 21.143 19.7971 21.1902 17.7766C21.2488 15.2591 21.2488 12.7381 21.1902 10.2204C21.143 8.20034 19.8982 6.96517 17.8767 6.92223C15.3109 6.86797 12.7423 6.8684 10.1765 6.92223C8.17032 6.96432 6.92276 8.17449 6.86829 10.1723C6.79907 12.7217 6.79907 15.2755 6.86829 17.8249C6.92276 19.8225 8.17032 21.0047 10.1767 21.079C11.4503 21.1265 12.7271 21.088 14.0024 21.088Z" fill="white"/>
<path d="M14.0001 9.51538C11.5233 9.51538 9.51526 11.5232 9.51526 14C9.51526 16.4769 11.5233 18.4848 14.0001 18.4848C16.477 18.4848 18.4849 16.4769 18.4849 14C18.4849 11.5232 16.477 9.51538 14.0001 9.51538ZM14.0001 16.9407C12.3759 16.9407 11.0593 15.6241 11.0593 14C11.0593 12.3758 12.3759 11.0592 14.0001 11.0592C15.6242 11.0592 16.9408 12.3758 16.9408 14C16.9408 15.6241 15.6242 16.9407 14.0001 16.9407Z" fill="white"/>
<path d="M19.8137 9.3107C19.8137 9.89987 19.336 10.3775 18.7469 10.3775C18.1577 10.3775 17.6798 9.89987 17.6798 9.3107C17.6798 8.72131 18.1577 8.24365 18.7469 8.24365C19.336 8.24365 19.8137 8.72131 19.8137 9.3107Z" fill="white"/>
<defs>
<radialGradient id="paint0_radial" cx="0" cy="0" r="1" gradientUnits="userSpaceOnUse" gradientTransform="translate(5.73984 24.4698) scale(30.8791)">
<stop stop-color="#FAE100"/>
<stop offset="0.0544" stop-color="#FADC04"/>
<stop offset="0.1167" stop-color="#FBCE0E"/>
<stop offset="0.1829" stop-color="#FCB720"/>
<stop offset="0.2514" stop-color="#FE9838"/>
<stop offset="0.3054" stop-color="#FF7950"/>
<stop offset="0.4922" stop-color="#FF1C74"/>
<stop offset="1" stop-color="#6C1CD1"/>
</radialGradient>
<linearGradient id="paint1_linear" x1="10.7393" y1="12.1658" x2="-36.696" y2="-14.5166" gradientUnits="userSpaceOnUse">
<stop stop-color="#A1B5D8" stop-opacity="0"/>
<stop offset="0.3094" stop-color="#90A2BD" stop-opacity="0.309804"/>
<stop offset="0.7554" stop-color="#7C8B9C" stop-opacity="0.756863"/>
<stop offset="1" stop-color="#748290"/>
</linearGradient>
<linearGradient id="paint2_linear" x1="14.0001" y1="24.7168" x2="14.0001" y2="29.0813" gradientUnits="userSpaceOnUse">
<stop stop-color="#FAE100" stop-opacity="0"/>
<stop offset="0.3068" stop-color="#FCA800" stop-opacity="0.305882"/>
<stop offset="0.6275" stop-color="#FE7300" stop-opacity="0.627451"/>
<stop offset="0.8685" stop-color="#FF5200" stop-opacity="0.866667"/>
<stop offset="1" stop-color="#FF4500"/>
</linearGradient>
<linearGradient id="paint3_linear" x1="12.4072" y1="12.3675" x2="5.47763" y2="5.43791" gradientUnits="userSpaceOnUse">
<stop stop-color="#833AB4" stop-opacity="0"/>
<stop offset="1" stop-color="#833AB4"/>
</linearGradient>
<linearGradient id="paint4_linear" x1="19.1897" y1="25.6096" x2="15.7311" y2="9.30452" gradientUnits="userSpaceOnUse">
<stop stop-color="#833AB4" stop-opacity="0"/>
<stop offset="1" stop-color="#833AB4"/>
</linearGradient>
<linearGradient id="paint5_linear" x1="20.5058" y1="20.5058" x2="6.6139" y2="6.61389" gradientUnits="userSpaceOnUse">
<stop stop-color="#833AB4" stop-opacity="0"/>
<stop offset="1" stop-color="#833AB4"/>
</linearGradient>
<linearGradient id="paint6_linear" x1="21.5362" y1="12.1003" x2="16.9424" y2="7.50648" gradientUnits="userSpaceOnUse">
<stop stop-color="#833AB4" stop-opacity="0"/>
<stop offset="1" stop-color="#833AB4"/>
</linearGradient>
<linearGradient id="paint7_linear" x1="19.5595" y1="8.47926" x2="8.23289" y2="19.8059" gradientUnits="userSpaceOnUse">
<stop stop-color="#833AB4"/>
<stop offset="0.0922" stop-color="#9C3495"/>
<stop offset="0.2927" stop-color="#DC2546"/>
<stop offset="0.392" stop-color="#FD1D1D"/>
<stop offset="0.5589" stop-color="#FC6831"/>
<stop offset="0.6887" stop-color="#FC9B40"/>
<stop offset="0.7521" stop-color="#FCAF45"/>
<stop offset="0.7806" stop-color="#FDB750"/>
<stop offset="0.8656" stop-color="#FECB6A"/>
<stop offset="0.9415" stop-color="#FFD87A"/>
<stop offset="1" stop-color="#FFDC80"/>
</linearGradient>
</defs>
</svg>
