<svg width="28" height="28" viewBox="0 0 28 28" fill="none" xmlns="http://www.w3.org/2000/svg">
<path d="M14 0C21.7324 0 28 6.2685 28 14C28 21.7316 21.7324 28 14 28C6.26753 28 0 21.7315 0 14C0 6.26859 6.26763 0 14 0Z" fill="#0E76A8"/>
<path d="M7.88891 19.236H10.5104V10.4982H7.88891V19.236ZM18.1019 10.1955C16.8297 10.1955 15.6913 10.6601 14.8837 11.6857V10.4694H12.2526V19.2361H14.8837V14.4953C14.8837 13.4934 15.8016 12.516 16.9514 12.516C18.1011 12.516 18.3846 13.4934 18.3846 14.4708V19.2352H21.0061V14.2757C21.0061 10.8307 19.3751 10.1955 18.1019 10.1955ZM9.18742 9.62498C9.91193 9.62498 10.5 9.03696 10.5 8.31244C10.5 7.58793 9.91193 7 9.18742 7C8.46291 7 7.87488 7.58803 7.87488 8.31254C7.87488 9.03705 8.46291 9.62498 9.18742 9.62498Z" fill="white"/>
</svg>
