<svg width="15" height="15" viewBox="0 0 15 15" fill="none" xmlns="http://www.w3.org/2000/svg">
<g clip-path="url(#clip0)">
<path d="M14.25 6.75H8.25005V0.749954C8.25005 0.336044 7.914 0 7.49996 0C7.08605 0 6.75 0.336044 6.75 0.749954V6.75H0.749954C0.336044 6.75 0 7.08605 0 7.49996C0 7.914 0.336044 8.25005 0.749954 8.25005H6.75V14.25C6.75 14.664 7.08605 15 7.49996 15C7.914 15 8.25005 14.664 8.25005 14.25V8.25005H14.25C14.664 8.25005 15 7.914 15 7.49996C15 7.08605 14.664 6.75 14.25 6.75Z" fill="white"/>
</g>
<defs>
<clipPath id="clip0">
<rect width="15" height="15" fill="white"/>
</clipPath>
</defs>
</svg>
