<svg width="20" height="20" viewBox="0 0 20 20" fill="none" xmlns="http://www.w3.org/2000/svg">
<rect width="19.0476" height="20" fill="#FF0202"/>
<path d="M10.7329 10.0001L13.848 6.88486C14.0507 6.68223 14.0507 6.3546 13.848 6.15197C13.6453 5.94934 13.3177 5.94934 13.1151 6.15197L9.99995 9.26717L6.88491 6.15197C6.68219 5.94934 6.35467 5.94934 6.15204 6.15197C5.94932 6.3546 5.94932 6.68223 6.15204 6.88486L9.26708 10.0001L6.15204 13.1153C5.94932 13.3179 5.94932 13.6455 6.15204 13.8481C6.25302 13.9492 6.3858 14 6.51848 14C6.65116 14 6.78384 13.9492 6.88491 13.8481L9.99995 10.7329L13.1151 13.8481C13.2162 13.9492 13.3488 14 13.4815 14C13.6142 14 13.7469 13.9492 13.848 13.8481C14.0507 13.6455 14.0507 13.3179 13.848 13.1153L10.7329 10.0001Z" fill="white"/>
</svg>
