<svg width="25" height="25" viewBox="0 0 25 25" fill="none" xmlns="http://www.w3.org/2000/svg">
<path d="M24.3164 11.019C24.2354 10.5111 23.758 10.1651 23.2501 10.2462C22.7422 10.3272 22.3963 10.8046 22.4773 11.3125C22.4782 11.3181 22.4791 11.3236 22.4801 11.3291C23.4284 16.9115 19.6717 22.2056 14.0893 23.1539C8.50692 24.1022 3.21279 20.3456 2.26448 14.7632C1.31618 9.18077 5.07289 3.88663 10.6552 2.93833C14.0883 2.35516 17.5827 3.55434 19.9342 6.12268L15.8089 7.49712C15.3209 7.6595 15.057 8.18669 15.2193 8.6747C15.2194 8.67481 15.2194 8.67497 15.2195 8.67508C15.3819 9.16309 15.909 9.42701 16.3971 9.26469C16.3972 9.26463 16.3973 9.26458 16.3974 9.26458L21.9847 7.40218C22.3651 7.27548 22.6217 6.91946 22.6217 6.51848V0.931226C22.6217 0.416916 22.2047 0 21.6904 0C21.1761 0 20.7592 0.416916 20.7592 0.931226V4.3329C15.9636 -0.228346 8.37827 -0.038303 3.81702 4.75735C-0.74423 9.553 -0.554241 17.1383 4.24146 21.6996C9.03717 26.2609 16.6224 26.0709 21.1837 21.2751C23.7847 18.5404 24.9454 14.7403 24.3164 11.019Z" fill="white"/>
</svg>
