<svg width="8" height="8" viewBox="0 0 8 8" fill="none" xmlns="http://www.w3.org/2000/svg">
<g clip-path="url(#clip0)">
<path d="M7.24805 1.78815L7.07142 1.25867C7.00416 1.05701 6.81611 0.921509 6.60358 0.921509H5.11903V0.438171C5.11903 0.196594 4.92262 0 4.6811 0H3.3216C3.08015 0 2.88368 0.196594 2.88368 0.438171V0.921509H1.39918C1.18659 0.921509 0.998544 1.05701 0.931283 1.25867L0.754647 1.78815C0.714425 1.90869 0.734811 2.04218 0.809091 2.14526C0.88337 2.24835 1.00355 2.30994 1.13062 2.30994H1.31526L1.72163 7.33502C1.75184 7.70789 2.06825 8 2.44209 8H5.64307C6.01685 8 6.33332 7.70789 6.36347 7.33496L6.76984 2.30994H6.87208C6.99915 2.30994 7.11933 2.24835 7.19361 2.14532C7.26789 2.04224 7.28828 1.90869 7.24805 1.78815ZM3.35243 0.46875H4.65028V0.921509H3.35243V0.46875ZM5.89625 7.29718C5.88563 7.42847 5.77442 7.53125 5.64307 7.53125H2.44209C2.31074 7.53125 2.19953 7.42847 2.18891 7.29718L1.78553 2.30994H6.29957L5.89625 7.29718ZM1.23115 1.84119L1.37599 1.40698C1.37928 1.39697 1.38862 1.39026 1.39918 1.39026H6.60358C6.61414 1.39026 6.62342 1.39697 6.62678 1.40698L6.77161 1.84119H1.23115Z" fill="#D93A30"/>
<path d="M5.1487 7.28037C5.15285 7.28061 5.15694 7.28067 5.16109 7.28067C5.28493 7.28067 5.38844 7.18363 5.39491 7.05851L5.61501 2.83353C5.62172 2.70426 5.52236 2.59397 5.39314 2.58725C5.26357 2.58036 5.15364 2.67984 5.14687 2.80911L4.92684 7.03409C4.92012 7.16336 5.01943 7.27365 5.1487 7.28037Z" fill="#D93A30"/>
<path d="M2.61827 7.0595C2.62511 7.18444 2.7285 7.28112 2.8521 7.28112C2.85637 7.28112 2.86076 7.281 2.8651 7.28075C2.99431 7.27373 3.09337 7.16326 3.08635 7.03399L2.85582 2.80901C2.8488 2.67974 2.73833 2.58068 2.60905 2.58776C2.47984 2.59478 2.38078 2.70525 2.3878 2.83452L2.61827 7.0595Z" fill="#D93A30"/>
<path d="M4.00403 7.28113C4.13348 7.28113 4.2384 7.17621 4.2384 7.04675V2.82178C4.2384 2.69232 4.13348 2.5874 4.00403 2.5874C3.87457 2.5874 3.76965 2.69232 3.76965 2.82178V7.04675C3.76965 7.17621 3.87457 7.28113 4.00403 7.28113Z" fill="#D93A30"/>
</g>
<defs>
<clipPath id="clip0">
<rect width="8" height="8" fill="white"/>
</clipPath>
</defs>
</svg>
