<svg width="28" height="28" viewBox="0 0 28 28" fill="none" xmlns="http://www.w3.org/2000/svg">
<g clip-path="url(#clip0)">
<path d="M14.0009 27.9998C21.7328 27.9998 28.0007 21.7318 28.0007 13.9999C28.0007 6.26796 21.7328 0 14.0009 0C6.26893 0 0.000976562 6.26796 0.000976562 13.9999C0.000976562 21.7318 6.26893 27.9998 14.0009 27.9998Z" fill="#55ACEE"/>
<path d="M22.5757 10.0612C21.9758 10.3272 21.3304 10.5071 20.6536 10.5875C21.3446 10.1735 21.8749 9.51839 22.1252 8.73651C21.4786 9.12009 20.7621 9.39835 20.0002 9.54834C19.3898 8.89823 18.5201 8.49194 17.557 8.49194C15.7093 8.49194 14.2107 9.99056 14.2107 11.8383C14.2107 12.1006 14.2404 12.3559 14.2978 12.601C11.5167 12.4615 9.05074 11.1293 7.40015 9.10412C7.11215 9.59825 6.94694 10.1735 6.94694 10.7867C6.94694 11.9474 7.53815 12.9721 8.43557 13.572C7.88729 13.5548 7.37095 13.4043 6.91999 13.153C6.91974 13.1672 6.91974 13.1814 6.91974 13.1954C6.91974 14.8168 8.07371 16.1692 9.60427 16.4764C9.32376 16.5533 9.02753 16.5939 8.72282 16.5939C8.5067 16.5939 8.29732 16.5732 8.09318 16.5343C8.51893 17.8635 9.75451 18.831 11.2192 18.8582C10.0737 19.7559 8.63098 20.2907 7.06274 20.2907C6.79321 20.2907 6.52618 20.275 6.26489 20.2438C7.74504 21.1936 9.50444 21.7474 11.3941 21.7474C17.5493 21.7474 20.9154 16.6483 20.9154 12.2259C20.9154 12.0809 20.9121 11.9364 20.9056 11.7931C21.56 11.3215 22.1272 10.7323 22.5757 10.0612Z" fill="#F1F2F2"/>
</g>
<defs>
<clipPath id="clip0">
<rect width="28" height="28" fill="white"/>
</clipPath>
</defs>
</svg>
