<svg width="24" height="24" viewBox="0 0 24 24" fill="none" xmlns="http://www.w3.org/2000/svg">
<path d="M8 8H5H3H0V10H3H5H8V8ZM18 9C19.66 9 20.99 7.66 20.99 6C20.99 4.34 19.66 3 18 3C17.68 3 17.37 3.05 17.09 3.14C17.66 3.95 17.99 4.93 17.99 6C17.99 7.07 17.65 8.04 17.09 8.86C17.37 8.95 17.68 9 18 9ZM13 9C14.66 9 15.99 7.66 15.99 6C15.99 4.34 14.66 3 13 3C11.34 3 10 4.34 10 6C10 7.66 11.34 9 13 9ZM19.62 11.16C20.45 11.89 21 12.82 21 14V16H24V14C24 12.46 21.63 11.51 19.62 11.16ZM13 11C11 11 7 12 7 14V16H19V14C19 12 15 11 13 11Z" fill="black" fill-opacity="0.4"/>
</svg>
