<svg width="15" height="17" viewBox="0 0 15 17" fill="none" xmlns="http://www.w3.org/2000/svg">
<path d="M7.73595 0H1.54719C1.13685 0 0.743315 0.163007 0.453161 0.453161C0.163007 0.743315 0 1.13685 0 1.54719V13.9247C0 14.335 0.163007 14.7286 0.453161 15.0187C0.743315 15.3089 1.13685 15.4719 1.54719 15.4719H6.96235C6.64518 15.2785 6.34348 15.0387 6.08045 14.7757C4.03816 12.8958 3.90665 9.71635 5.80196 7.67406C7.49613 5.80196 10.312 5.51573 12.3775 6.96235V4.64157L7.73595 0ZM6.96235 5.41516V1.16039L11.2171 5.41516H6.96235ZM12.6173 13.0737C13.6462 11.4415 13.1511 9.28314 11.5343 8.26199C9.90201 7.23311 7.73595 7.73595 6.72254 9.34502C5.68592 10.9773 6.18876 13.1279 7.80557 14.1568C8.93502 14.8762 10.3739 14.8762 11.5111 14.1723L13.9247 16.5472L15 15.4719L12.6173 13.0737ZM9.66993 13.1511C9.15701 13.1511 8.66509 12.9474 8.3024 12.5847C7.93971 12.222 7.73595 11.73 7.73595 11.2171C7.73595 10.7042 7.93971 10.2123 8.3024 9.84959C8.66509 9.48689 9.15701 9.28314 9.66993 9.28314C10.1829 9.28314 10.6748 9.48689 11.0375 9.84959C11.4002 10.2123 11.6039 10.7042 11.6039 11.2171C11.6039 11.73 11.4002 12.222 11.0375 12.5847C10.6748 12.9474 10.1829 13.1511 9.66993 13.1511Z" fill="white"/>
</svg>
