<svg width="148" height="80" viewBox="0 0 148 80" fill="none" xmlns="http://www.w3.org/2000/svg">
<g clip-path="url(#clip0)">
<path d="M74.4747 80C114.606 80 147.139 77.8591 147.139 75.2182C147.139 72.5772 114.606 70.4363 74.4747 70.4363C34.3432 70.4363 1.8103 72.5772 1.8103 75.2182C1.8103 77.8591 34.3432 80 74.4747 80Z" fill="#F2F2F2"/>
<path d="M71.6896 22.8689C59.8506 22.8689 51.3503 30.4193 51.3503 48.0367C51.3503 68.0032 59.8506 73.2885 71.6896 73.2885C83.5286 73.2885 92.5352 67.4999 92.5352 48.0367C92.5352 27.2313 83.5286 22.8689 71.6896 22.8689ZM71.7674 66.6609C63.5675 66.6609 59.2835 61.8789 59.2835 48.0496C59.2835 35.8474 63.7428 29.4125 71.9428 29.4125C80.1428 29.4125 84.6021 33.6393 84.6021 48.0496C84.6021 61.5302 79.9674 66.6609 71.7674 66.6609Z" fill="#2F2E41"/>
<path d="M44.2615 59.3621H39.3666V45.0337C39.3666 44.2726 39.0625 43.5427 38.5211 43.0046C37.9797 42.4664 37.2455 42.1641 36.4799 42.1641H35.3329C34.9538 42.1641 34.5784 42.2383 34.2282 42.3826C33.878 42.5268 33.5597 42.7381 33.2917 43.0046C33.0236 43.271 32.811 43.5874 32.6659 43.9355C32.5208 44.2837 32.4462 44.6568 32.4462 45.0337V59.3621H18.6392C18.3552 59.3621 18.076 59.2892 17.8287 59.1503C17.5814 59.0114 17.3744 58.8114 17.2278 58.5695C17.0812 58.3277 16.9999 58.0523 16.9919 57.7701C16.9839 57.4878 17.0495 57.2083 17.1822 56.9587L31.7953 29.4654C31.9774 29.1227 32.0879 28.7468 32.1199 28.3604C32.1519 27.974 32.1048 27.5852 31.9814 27.2174C31.8581 26.8497 31.6611 26.5105 31.4023 26.2206C31.1434 25.9306 30.8282 25.6957 30.4755 25.5302L29.6129 25.1252C28.9431 24.8108 28.1773 24.7644 27.474 24.9956C26.7706 25.2267 26.1837 25.7178 25.8344 26.3672L8.01183 59.5092C7.70834 60.0736 7.54956 60.7036 7.54956 61.3436C7.54956 61.8546 7.65081 62.3605 7.84752 62.8326C8.04424 63.3047 8.33257 63.7336 8.69605 64.095C9.05953 64.4563 9.49104 64.7429 9.96595 64.9384C10.4409 65.134 10.9499 65.2346 11.4639 65.2346H32.4462V74.295C32.4462 74.7467 32.5357 75.194 32.7096 75.6113C32.8835 76.0286 33.1383 76.4078 33.4596 76.7272C33.781 77.0466 34.1624 77.3 34.5822 77.4728C35.002 77.6457 35.452 77.7346 35.9064 77.7346H35.9064C36.3608 77.7346 36.8107 77.6457 37.2305 77.4728C37.6504 77.3 38.0318 77.0466 38.3531 76.7272C38.6744 76.4078 38.9293 76.0286 39.1032 75.6113C39.2771 75.194 39.3666 74.7467 39.3666 74.295V65.2346H44.2615C45.0449 65.2346 45.7962 64.9253 46.3502 64.3746C46.9041 63.824 47.2154 63.0771 47.2154 62.2984C47.2154 61.5196 46.9042 60.7728 46.3502 60.2221C45.7962 59.6715 45.0449 59.3621 44.2615 59.3621Z" fill="#002261"/>
<path d="M134.902 59.3621H130.007V45.0337C130.007 44.2726 129.703 43.5427 129.161 43.0046C128.62 42.4664 127.886 42.1641 127.12 42.1641H125.973C125.594 42.1641 125.219 42.2383 124.869 42.3826C124.518 42.5268 124.2 42.7381 123.932 43.0046C123.664 43.271 123.451 43.5874 123.306 43.9355C123.161 44.2837 123.087 44.6568 123.087 45.0337V59.3621H109.28C108.996 59.3621 108.716 59.2892 108.469 59.1503C108.222 59.0114 108.015 58.8114 107.868 58.5695C107.722 58.3277 107.64 58.0523 107.632 57.7701C107.624 57.4878 107.69 57.2083 107.823 56.9587L122.436 29.4654C122.618 29.1227 122.728 28.7468 122.76 28.3604C122.792 27.974 122.745 27.5852 122.622 27.2174C122.498 26.8497 122.301 26.5105 122.043 26.2206C121.784 25.9306 121.469 25.6957 121.116 25.5302L120.253 25.1252C119.583 24.8108 118.818 24.7644 118.114 24.9956C117.411 25.2267 116.824 25.7178 116.475 26.3672L98.6522 59.5092C98.3487 60.0736 98.1899 60.7036 98.1899 61.3436C98.1899 62.3756 98.6023 63.3653 99.3364 64.095C100.071 64.8247 101.066 65.2346 102.104 65.2346H123.087V74.295C123.087 75.2073 123.451 76.0822 124.1 76.7272C124.749 77.3723 125.629 77.7346 126.547 77.7346C127.464 77.7346 128.345 77.3723 128.993 76.7272C129.642 76.0822 130.007 75.2073 130.007 74.295V65.2346H134.902C135.685 65.2346 136.437 64.9253 136.991 64.3746C137.545 63.824 137.856 63.0771 137.856 62.2984C137.856 61.5196 137.545 60.7728 136.991 60.2221C136.437 59.6715 135.685 59.3621 134.902 59.3621Z" fill="#002261"/>
<path d="M45.6116 57.6845H40.7167V43.356C40.7167 42.9792 40.642 42.6061 40.497 42.2579C40.3519 41.9098 40.1392 41.5934 39.8712 41.327C39.6031 41.0605 39.2849 40.8492 38.9347 40.7049C38.5844 40.5607 38.2091 40.4865 37.83 40.4865H36.683C35.9174 40.4865 35.1831 40.7888 34.6418 41.327C34.1004 41.8651 33.7963 42.595 33.7963 43.356V57.6845H19.9893C19.7053 57.6845 19.4261 57.6116 19.1788 57.4727C18.9315 57.3338 18.7245 57.1338 18.5779 56.8919C18.4313 56.6501 18.35 56.3747 18.342 56.0925C18.334 55.8102 18.3996 55.5308 18.5323 55.2811L33.1454 27.7878C33.3275 27.4451 33.438 27.0691 33.47 26.6828C33.502 26.2964 33.4549 25.9076 33.3315 25.5398C33.2082 25.1721 33.0112 24.8329 32.7524 24.5429C32.4935 24.2529 32.1783 24.0181 31.8256 23.8525L30.963 23.4476C30.2932 23.1332 29.5274 23.0868 28.8241 23.3179C28.1207 23.5491 27.5338 24.0402 27.1845 24.6896L9.36193 57.8316C9.05844 58.396 8.89966 59.0261 8.89966 59.666V59.666C8.89966 60.698 9.31206 61.6877 10.0461 62.4174C10.7802 63.1471 11.7759 63.557 12.814 63.557H33.7963V72.6175C33.7963 73.0691 33.8858 73.5164 34.0597 73.9337C34.2336 74.351 34.4884 74.7302 34.8097 75.0496C35.1311 75.369 35.5125 75.6224 35.9323 75.7952C36.3521 75.9681 36.8021 76.0571 37.2565 76.0571H37.2565C38.1742 76.0571 39.0543 75.6947 39.7032 75.0496C40.3521 74.4046 40.7167 73.5297 40.7167 72.6175V63.557H45.6116C45.9995 63.557 46.3836 63.4811 46.742 63.3335C47.1004 63.186 47.426 62.9697 47.7003 62.697C47.9746 62.4244 48.1922 62.1007 48.3406 61.7444C48.489 61.3882 48.5655 61.0064 48.5655 60.6208V60.6208C48.5655 60.2352 48.489 59.8534 48.3406 59.4971C48.1922 59.1409 47.9746 58.8172 47.7003 58.5446C47.426 58.2719 47.1004 58.0556 46.742 57.908C46.3836 57.7605 45.9995 57.6845 45.6116 57.6845V57.6845Z" stroke="#3F3D56" stroke-miterlimit="10"/>
<path d="M137.434 57.6845H132.539V43.356C132.539 42.595 132.235 41.8651 131.693 41.327C131.152 40.7888 130.418 40.4865 129.652 40.4865H128.505C128.126 40.4865 127.751 40.5607 127.4 40.7049C127.05 40.8492 126.732 41.0605 126.464 41.327C126.196 41.5934 125.983 41.9098 125.838 42.2579C125.693 42.6061 125.618 42.9792 125.618 43.356V57.6845H111.811C111.527 57.6845 111.248 57.6116 111.001 57.4727C110.753 57.3338 110.546 57.1338 110.4 56.8919C110.253 56.6501 110.172 56.3747 110.164 56.0925C110.156 55.8102 110.222 55.5308 110.354 55.2811L124.967 27.7878C125.15 27.4451 125.26 27.0691 125.292 26.6828C125.324 26.2964 125.277 25.9076 125.154 25.5398C125.03 25.1721 124.833 24.8329 124.574 24.5429C124.316 24.2529 124 24.0181 123.648 23.8525L122.785 23.4476C122.115 23.1332 121.349 23.0868 120.646 23.3179C119.943 23.5491 119.356 24.0402 119.007 24.6896L101.184 57.8316C100.88 58.396 100.722 59.0261 100.722 59.666C100.722 60.698 101.134 61.6877 101.868 62.4174C102.602 63.1471 103.598 63.557 104.636 63.557H125.618V72.6175C125.618 73.5297 125.983 74.4046 126.632 75.0496C127.281 75.6947 128.161 76.0571 129.078 76.0571V76.0571C129.996 76.0571 130.876 75.6947 131.525 75.0496C132.174 74.4046 132.539 73.5297 132.539 72.6175V63.557H137.434C137.822 63.557 138.206 63.4811 138.564 63.3335C138.922 63.186 139.248 62.9697 139.522 62.697C139.797 62.4244 140.014 62.1007 140.163 61.7444C140.311 61.3882 140.387 61.0064 140.387 60.6208V60.6208C140.387 59.8421 140.076 59.0952 139.522 58.5446C138.968 57.9939 138.217 57.6845 137.434 57.6845V57.6845Z" stroke="#3F3D56" stroke-miterlimit="10"/>
<path d="M74.3903 21.3589C62.5513 21.3589 54.051 28.9092 54.051 46.5267C54.051 66.4932 62.5513 71.7784 74.3903 71.7784C86.2293 71.7784 95.236 65.9898 95.236 46.5267C95.236 25.7213 86.2293 21.3589 74.3903 21.3589ZM74.4681 65.1509C66.2682 65.1509 61.9842 60.3689 61.9842 46.5396C61.9842 34.3373 66.4435 27.9025 74.6435 27.9025C82.8435 27.9025 87.3028 32.1293 87.3028 46.5396C87.3028 60.0202 82.6681 65.1509 74.4681 65.1509V65.1509Z" stroke="#3F3D56" stroke-miterlimit="10"/>
<path d="M64.9007 4.26572C65.8822 4.26572 66.6779 3.47479 66.6779 2.49913C66.6779 1.52347 65.8822 0.732544 64.9007 0.732544C63.9192 0.732544 63.1235 1.52347 63.1235 2.49913C63.1235 3.47479 63.9192 4.26572 64.9007 4.26572Z" fill="#2F2E41"/>
<path d="M69.2355 12.8401C71.9884 12.8401 74.2202 9.96572 74.2202 6.42003C74.2202 2.87435 71.9884 0 69.2355 0C66.4825 0 64.2507 2.87435 64.2507 6.42003C64.2507 9.96572 66.4825 12.8401 69.2355 12.8401Z" fill="#2F2E41"/>
<path opacity="0.1" d="M69.2352 10.9012C66.7381 10.9012 64.6699 8.53636 64.307 5.45068C64.2693 5.77248 64.2504 6.09618 64.2505 6.42015C64.2505 9.96583 66.4822 12.8402 69.2352 12.8402C71.9882 12.8402 74.22 9.96584 74.22 6.42015C74.2201 6.09618 74.2012 5.77248 74.1634 5.45068C73.8005 8.53636 71.7324 10.9012 69.2352 10.9012Z" fill="black"/>
<path d="M79.3788 25.2212C79.2718 25.6585 78.8102 26.0087 78.299 26.2534C77.2243 26.7679 75.8986 26.9214 74.6128 26.9729C74.2847 26.9927 73.9557 26.9867 73.6286 26.9548C72.9948 26.8939 72.4002 26.6222 71.9411 26.1837C71.9083 26.1625 71.8814 26.1333 71.8631 26.099C71.8447 26.0646 71.8354 26.0262 71.836 25.9873C71.8366 25.9484 71.8471 25.9103 71.8665 25.8766C71.8859 25.8428 71.9137 25.8145 71.9471 25.7943C72.6316 25.0468 73.774 24.5884 74.9248 24.2584C75.7973 24.0082 77.3191 23.36 78.2708 23.4475C79.1926 23.5322 79.514 24.6691 79.3788 25.2212Z" fill="#3F3D56"/>
<path opacity="0.1" d="M79.3788 25.2212C79.2718 25.6585 78.8102 26.0087 78.299 26.2534C77.2243 26.7679 75.8986 26.9214 74.6128 26.9729C74.2847 26.9927 73.9557 26.9867 73.6286 26.9548C72.9948 26.8939 72.4002 26.6222 71.9411 26.1837C71.9083 26.1625 71.8814 26.1333 71.8631 26.099C71.8447 26.0646 71.8354 26.0262 71.836 25.9873C71.8366 25.9484 71.8471 25.9103 71.8665 25.8766C71.8859 25.8428 71.9137 25.8145 71.9471 25.7943C72.6316 25.0468 73.774 24.5884 74.9248 24.2584C75.7973 24.0082 77.3191 23.36 78.2708 23.4475C79.1926 23.5322 79.514 24.6691 79.3788 25.2212Z" fill="black"/>
<path d="M65.714 21.953C65.386 22.5922 65.3266 23.3346 65.5489 24.0172C65.7751 24.6947 66.1983 25.2903 66.7652 25.7285C68.1557 26.8365 70.0695 26.9889 71.8516 26.9736C73.4135 26.96 74.9731 26.8538 76.5222 26.6553C77.0413 26.6096 77.5514 26.4919 78.0377 26.3056C78.6193 26.0554 79.1304 25.5966 79.3375 25.0012C79.5446 24.4058 79.3976 23.6767 78.9058 23.2794C78.4737 22.9302 77.8778 22.8822 77.322 22.849L74.1416 22.659C74.4558 22.3429 74.8742 22.1641 75.2568 21.9344C75.7644 21.6295 76.1017 21.1176 76.4708 20.6561C77.0396 19.9805 77.6584 19.348 78.322 18.7641C78.4255 19.3544 78.8012 19.839 79.2432 20.2463C79.6853 20.6535 80.1949 20.9814 80.6543 21.3692C81.7672 22.3083 82.5685 23.5829 83.7389 24.4502C84.544 24.2399 85.2967 23.8664 85.9497 23.3531L85.4948 22.534C85.4569 22.4497 85.3979 22.3765 85.3233 22.3214C85.1946 22.2426 85.0286 22.2832 84.8791 22.2609C84.4795 22.2014 84.305 21.7428 84.1482 21.3726C83.7177 20.3563 82.8935 19.5678 82.1896 18.7156C81.6701 18.0865 81.2092 17.4117 80.8127 16.6996C80.5762 16.2749 80.3598 15.8326 80.0389 15.4667C79.718 15.1008 79.2683 14.8132 78.78 14.8121C78.3485 14.8112 77.9506 15.029 77.5796 15.248C76.4497 15.9151 75.3626 16.6514 74.3245 17.4525C73.7812 17.8717 73.2413 18.3147 72.6041 18.5717C72.3358 18.68 72.053 18.7539 71.7956 18.8856C71.3447 19.1163 71.0025 19.5065 70.6341 19.8529C69.3203 21.0885 67.5215 21.889 65.714 21.953Z" fill="#3F3D56"/>
<path d="M72.3641 13.159C72.3493 13.5367 72.2685 13.9089 72.1252 14.259C72.0526 14.4336 71.9446 14.5915 71.8079 14.7228C71.6712 14.8541 71.5088 14.956 71.3307 15.0221C71.0779 15.0894 70.8128 15.098 70.5561 15.0471C70.3323 15.0238 70.1166 14.9508 69.925 14.8334C69.6268 14.6296 69.4781 14.2659 69.4239 13.91C69.3698 13.5545 69.394 13.1913 69.3593 12.8332C69.3256 12.544 69.2702 12.2577 69.1938 11.9767C69.1704 11.8832 69.1465 11.7901 69.1231 11.697C69.1001 11.604 69.0776 11.5109 69.0568 11.4178C69.0377 11.3303 69.02 11.2425 69.0048 11.1541C68.9922 11.0796 68.9809 11.0046 68.9727 10.9292C68.9651 10.7057 68.9277 10.4841 68.8613 10.2704C68.799 10.1318 68.7211 10.0007 68.629 9.8796C68.5895 9.82358 68.5514 9.76757 68.5163 9.7094C68.4147 9.55823 68.3675 9.3774 68.3823 9.19623C68.3865 9.16822 68.3933 9.14067 68.4027 9.11393C68.4062 9.10359 68.4101 9.09326 68.4144 9.08334C68.4534 9.07282 68.4892 9.05299 68.5188 9.02558C68.5483 8.99817 68.5707 8.96401 68.5839 8.92607C68.5988 8.84455 68.5918 8.76057 68.5635 8.68262C68.5311 8.57371 68.4868 8.46866 68.4313 8.36938C68.3949 8.30388 68.2714 8.18582 68.2705 8.11085C68.2688 7.96004 68.5653 7.83853 68.6853 7.77907C69.0518 7.59664 69.4605 7.51427 69.8695 7.54037C70.1318 7.55803 70.4161 7.63818 70.5609 7.85663C70.6909 8.05354 70.6736 8.30862 70.7291 8.53742C70.7349 8.57067 70.7491 8.60193 70.7702 8.62833C70.7985 8.65395 70.8341 8.67021 70.8721 8.67486C70.9363 8.68756 71.0021 8.69018 71.0672 8.68262H71.0676C71.0848 8.68126 71.1019 8.67882 71.1187 8.67529C71.22 8.65672 71.3157 8.61562 71.3988 8.55508C71.4525 8.54086 71.5067 8.52923 71.5613 8.52018C71.5635 8.51995 71.5657 8.51952 71.5678 8.51888C71.785 9.2001 71.8131 9.93043 71.9909 10.6241C72.0788 10.9693 72.205 11.3101 72.2228 11.6651C72.2241 11.6806 72.2245 11.6966 72.2249 11.7125C72.2275 11.8267 72.2184 11.9417 72.2232 12.0555C72.2248 12.1067 72.2306 12.1577 72.2405 12.208C72.26 12.2889 72.2841 12.3686 72.3129 12.4467L72.3142 12.4506C72.3224 12.4756 72.3303 12.501 72.3368 12.5264C72.3415 12.545 72.3459 12.5631 72.3493 12.5816L72.3498 12.5829C72.3818 12.7733 72.3867 12.9672 72.3641 13.159Z" fill="#FBBEBE"/>
<path d="M69.322 8.7037C70.7344 8.7037 71.8794 7.56554 71.8794 6.16155C71.8794 4.75755 70.7344 3.61938 69.322 3.61938C67.9096 3.61938 66.7646 4.75755 66.7646 6.16155C66.7646 7.56554 67.9096 8.7037 69.322 8.7037Z" fill="#FBBEBE"/>
<path d="M85.5586 20.0124C85.4844 19.3188 85.2364 18.6548 84.8373 18.0812C84.9036 18.4733 84.9701 18.8652 85.0367 19.257C84.9539 19.2809 84.8659 19.2801 84.7835 19.255C84.7011 19.2298 84.6279 19.1812 84.5729 19.1153C84.4652 18.9816 84.3828 18.8297 84.3297 18.6667C84.0392 17.9498 83.6592 17.2719 83.1988 16.649C81.5708 16.5141 79.9613 15.8432 78.5296 15.0612C77.0975 14.2796 75.7572 13.3424 74.3442 12.5276C74.0992 12.3804 73.844 12.2508 73.5804 12.1399C73.1383 11.9636 72.642 11.8723 72.2228 11.665C72.1947 11.6512 72.1665 11.6366 72.1387 11.6215C72.0441 11.5703 71.9544 11.5105 71.8709 11.4427C71.8257 11.4063 71.7829 11.3671 71.7426 11.3255C71.5334 11.0836 71.3676 10.8079 71.2523 10.5103C71.0274 10.0156 70.9472 9.41888 70.7227 8.92423C70.8259 8.82836 70.9418 8.74703 71.0672 8.68252H71.0677C71.0859 8.67303 71.1041 8.66399 71.1227 8.65537C71.2116 8.61378 71.304 8.58018 71.3988 8.55498C71.4526 8.54076 71.5068 8.52912 71.5614 8.52007C71.5636 8.51985 71.5658 8.51942 71.5679 8.51878C71.8212 8.47776 72.0806 8.49816 72.3243 8.57824C72.6806 8.69802 72.981 8.93716 73.2805 9.16337C73.7671 9.50414 74.2338 9.87212 74.6784 10.2655C74.9254 10.5008 75.1508 10.7593 75.4166 10.973C75.6374 11.1424 75.8701 11.2958 76.1131 11.4319C77.5509 12.2833 78.9888 13.1346 80.4269 13.9857C80.9136 14.274 81.4009 14.5622 81.8768 14.8673C82.5998 15.3309 83.2968 15.8333 83.9934 16.3353C84.4038 16.6309 84.8142 16.9266 85.2244 17.2225C85.359 17.3078 85.4771 17.4164 85.5733 17.543C85.6583 17.6868 85.7111 17.8472 85.7281 18.0131C85.831 18.6835 85.7729 19.3686 85.5586 20.0124Z" fill="#FBBEBE"/>
<path d="M72.9982 15.0706C72.8256 15.8397 72.0437 16.3046 71.6349 16.9802C71.1269 17.8187 71.3341 18.7934 71.5248 19.7538C71.1763 20.0524 70.8277 20.351 70.4789 20.6496C70.2865 20.8137 70.094 20.9787 69.8868 21.124C69.5847 21.3252 69.269 21.5054 68.9419 21.6634C68.6333 21.8211 68.3246 21.979 68.016 22.1369C67.7291 22.2973 67.4251 22.4253 67.1097 22.5187C66.5015 22.6738 65.8557 22.5652 65.254 22.3856C65.1831 22.3671 65.1149 22.3394 65.0512 22.3033C65.0137 22.281 64.981 22.2516 64.955 22.2167C64.8956 22.1109 64.8741 21.9884 64.8939 21.8689C64.955 20.8624 65.2025 19.877 65.4491 18.8989C65.5809 18.3121 65.7582 17.7364 65.9792 17.1767C66.196 16.6972 66.4453 16.2328 66.7252 15.7867C67.0341 15.2255 67.4002 14.6972 67.8175 14.2101C68.0207 14.0227 68.1917 13.8035 68.3238 13.5612C68.4777 13.2122 68.4183 12.812 68.4495 12.4319C68.4734 12.1464 68.5496 11.8676 68.6744 11.6094V11.609C68.7412 11.4699 68.8216 11.3377 68.9146 11.2143C68.9566 11.3116 68.9987 11.4089 69.0407 11.506C69.0685 11.5697 69.0959 11.6334 69.1231 11.6969C69.1586 11.7787 69.1939 11.8603 69.2288 11.9416C69.3298 12.1751 69.4307 12.4085 69.5314 12.6418C69.6402 12.9355 69.7953 13.2103 69.9908 13.4557C70.0802 13.5814 70.2009 13.6818 70.341 13.7473C70.4811 13.8128 70.6359 13.841 70.7903 13.8292C70.9447 13.8175 71.0933 13.7661 71.2218 13.6802C71.3502 13.5942 71.454 13.4767 71.5231 13.3389C71.6688 13.0818 71.7743 12.8042 71.8361 12.5155C71.9217 12.1641 71.9335 11.7988 71.8707 11.4426C71.7663 10.7567 71.4728 10.0561 71.2596 9.41883C71.1728 9.20635 71.1225 8.98087 71.1109 8.75183C71.1113 8.72609 71.1139 8.70044 71.1187 8.67513C71.12 8.66867 71.1213 8.66178 71.1226 8.65532C71.2114 8.61373 71.3038 8.58013 71.3987 8.55492C71.4525 8.5407 71.5066 8.52907 71.5612 8.52002C71.7489 9.52999 71.9369 10.54 72.1252 11.5499C72.1295 11.5736 72.1343 11.5973 72.1386 11.6215C72.1655 11.7662 72.1928 11.911 72.2231 12.0553C72.2505 12.1863 72.2799 12.3169 72.3129 12.4466L72.3142 12.4505C72.3254 12.4944 72.3371 12.5379 72.3493 12.5814L72.3497 12.5827C72.3831 12.7017 72.4204 12.8197 72.4624 12.9361C72.7173 13.6371 73.1616 14.3429 72.9982 15.0706Z" fill="#002261"/>
<path d="M83.3771 25.8792C83.369 26.0273 83.3979 26.1752 83.4611 26.3096C83.6211 26.6003 84.0052 26.6664 84.3375 26.6936C86.2787 26.8523 88.2318 26.7931 90.1597 26.5173C90.2643 26.5102 90.3658 26.4789 90.4561 26.4259C90.7302 26.2348 90.5612 25.7693 90.2619 25.6202C89.9626 25.4712 89.6074 25.5071 89.279 25.4426C88.9527 25.3609 88.642 25.227 88.3591 25.046C87.6931 24.6656 87.0368 24.2691 86.3902 23.8563C86.0052 23.6106 85.5509 23.3483 85.1174 23.494C83.943 23.8889 83.3693 24.6199 83.3771 25.8792Z" fill="#3F3D56"/>
<path d="M69.0668 11.3639V11.3643C69.0638 11.3824 69.0607 11.4001 69.0568 11.4177C69.0521 11.447 69.0464 11.4767 69.0408 11.506C68.9871 11.7796 68.9212 12.052 68.8453 12.3225C68.6373 13.0701 68.3586 13.8056 68.082 14.5303C67.3399 16.4736 66.5977 18.417 65.8553 20.3605C65.6681 20.85 65.4813 21.3399 65.2684 21.8194C65.1974 21.9793 65.1241 22.1404 65.0513 22.3033C64.7903 22.8863 64.5398 23.4882 64.4566 24.1087C64.379 24.517 64.3701 24.9353 64.4301 25.3466C64.5134 25.7533 64.7617 26.1506 65.1506 26.301C65.3404 26.3746 65.6122 26.4733 65.5602 26.6694C65.532 26.7771 65.4089 26.8296 65.2984 26.8477C65.1524 26.8709 65.0031 26.8618 64.8611 26.8211C64.719 26.7805 64.5878 26.7092 64.4765 26.6125C64.2689 26.4294 64.1094 26.1446 63.8333 26.114C63.6421 26.0933 63.4661 26.207 63.291 26.2868C62.5767 26.6112 61.7445 26.3841 60.9941 26.1536C61.0531 25.8516 61.3582 25.6525 61.6612 25.5922C61.9642 25.5314 62.2776 25.5745 62.5866 25.5663C62.6856 25.5716 62.7838 25.5465 62.868 25.4944C62.9434 25.4256 62.9962 25.3358 63.0197 25.2367C63.2187 24.6503 63.3668 24.0481 63.4622 23.4365C63.5619 22.7975 63.6035 22.1486 63.7457 21.5174C63.8562 21.0249 64.027 20.5479 64.1735 20.0645C64.4568 19.0691 64.6895 18.0602 64.8705 17.0415C64.9621 16.6183 65.0276 16.1899 65.0669 15.7588C65.0916 15.4011 65.0799 15.0418 65.1146 14.6855C65.1728 14.2219 65.2701 13.764 65.4054 13.3166C65.5381 12.8284 65.6705 12.3405 65.8029 11.8529C65.9993 11.1312 66.2099 10.3815 66.7075 9.82046C66.8803 9.62297 67.0921 9.46285 67.3298 9.35005C67.5674 9.23724 67.8258 9.17415 68.0889 9.16467C68.1876 9.16455 68.286 9.1751 68.3824 9.19613C68.3984 9.2 68.4145 9.20388 68.4305 9.20819C68.5355 9.23549 68.6363 9.27695 68.73 9.33142C68.8835 9.23447 68.9615 9.26851 69.0633 9.41803C69.1526 9.57626 69.1947 9.75651 69.1847 9.93766C69.1933 10.4158 69.1538 10.8936 69.0668 11.3639Z" fill="#FBBEBE"/>
<path d="M69.2354 11.9351L69.2288 11.9416L69.1937 11.9765L68.8452 12.3225L68.6745 11.6094L68.0889 9.16461C68.1875 9.16449 68.2859 9.17504 68.3823 9.19607C68.3865 9.16806 68.3933 9.1405 68.4027 9.11377L68.4304 9.20813L68.6289 9.87943L69.0048 11.154L69.0667 11.3638V11.3642L69.2354 11.9351Z" fill="#002261"/>
<path d="M71.4467 4.13576C71.4464 4.36213 71.4013 4.58624 71.3138 4.79525C71.2263 5.00426 71.0983 5.19409 70.937 5.35388C70.8786 5.41204 70.8159 5.46588 70.7496 5.51496C70.4505 5.73911 70.0861 5.86043 69.7116 5.8606H67.632C67.1725 5.8599 66.7321 5.67795 66.4074 5.35471C66.0827 5.03148 65.9004 4.59337 65.9004 4.1366C65.9004 3.67983 66.0827 3.24172 66.4074 2.91849C66.7321 2.59525 67.1725 2.4133 67.632 2.4126H69.7116C70.1711 2.41379 70.6115 2.59566 70.9366 2.91851C71.2617 3.24136 71.4451 3.67896 71.4467 4.13576Z" fill="#2F2E41"/>
<path d="M73.3963 4.26572C74.3778 4.26572 75.1735 3.47479 75.1735 2.49913C75.1735 1.52347 74.3778 0.732544 73.3963 0.732544C72.4148 0.732544 71.6191 1.52347 71.6191 2.49913C71.6191 3.47479 72.4148 4.26572 73.3963 4.26572Z" fill="#2F2E41"/>
<path opacity="0.1" d="M73.3531 0.732544C73.3313 0.732544 73.3097 0.733404 73.2881 0.734178C73.7478 0.750792 74.1831 0.944014 74.5025 1.27319C74.8218 1.60237 75.0002 2.04184 75.0002 2.49913C75.0002 2.95642 74.8218 3.39589 74.5025 3.72507C74.1831 4.05424 73.7478 4.24747 73.2881 4.26408C73.3097 4.26485 73.3313 4.26571 73.3531 4.26571C73.8244 4.26571 74.2765 4.07959 74.6097 3.74829C74.943 3.41699 75.1303 2.96766 75.1303 2.49913C75.1303 2.0306 74.943 1.58126 74.6097 1.24997C74.2765 0.918666 73.8244 0.732544 73.3531 0.732544Z" fill="black"/>
<path opacity="0.1" d="M64.9006 0.732544C64.9224 0.732544 64.944 0.733404 64.9656 0.734178C64.5059 0.750792 64.0706 0.944014 63.7512 1.27319C63.4319 1.60237 63.2535 2.04184 63.2535 2.49913C63.2535 2.95642 63.4319 3.39589 63.7512 3.72507C64.0706 4.05424 64.5059 4.24747 64.9656 4.26408C64.944 4.26485 64.9224 4.26571 64.9006 4.26571C64.4295 4.2653 63.9779 4.079 63.645 3.74774C63.312 3.41649 63.125 2.96739 63.125 2.49913C63.125 2.03087 63.312 1.58177 63.645 1.25051C63.9779 0.919261 64.4295 0.732956 64.9006 0.732544Z" fill="black"/>
<path opacity="0.1" d="M70.7496 5.51489C70.4505 5.73904 70.0862 5.86035 69.7116 5.86053H67.6321C67.2575 5.86035 66.8931 5.73904 66.594 5.51489H70.7496Z" fill="black"/>
<path d="M84.1785 18.3155C84.1785 18.3155 84.6265 19.5988 85.0365 19.2571L84.7097 17.5797L84.1785 18.3155Z" fill="#FBBEBE"/>
<path d="M138.698 57.4497C139.115 57.6005 139.562 57.6529 140.003 57.6027C140.444 57.5526 140.868 57.4013 141.24 57.1608C141.612 56.9202 141.923 56.597 142.148 56.2166C142.373 55.8362 142.507 55.409 142.537 54.9687C142.568 54.5284 142.496 54.087 142.325 53.6793C142.155 53.2717 141.892 52.9088 141.557 52.6194C141.222 52.3301 140.823 52.122 140.394 52.0118C139.964 51.9015 139.514 51.892 139.08 51.984L139.151 53.4509L138.453 52.1938C137.768 52.5138 137.239 53.0912 136.981 53.799C136.89 54.0469 136.835 54.3065 136.817 54.5699C136.772 55.1879 136.932 55.8034 137.272 56.3231C137.611 56.8428 138.112 57.2383 138.698 57.4497Z" fill="#57B894"/>
<path d="M142.152 74.4627C141.906 73.2152 142.974 72.1092 144.029 71.3904C145.084 70.6715 146.316 69.9652 146.676 68.7453C147.193 66.992 145.653 65.3864 144.453 64.0017C143.564 62.9742 142.8 61.8454 142.177 60.639C141.928 60.1553 141.698 59.6497 141.633 59.11C141.538 58.3329 141.789 57.5595 142.042 56.8182C142.885 54.3487 143.787 51.8999 144.746 49.4718" stroke="#3F3D56" stroke-miterlimit="10"/>
<path d="M138.816 57.0723C139.233 57.2231 139.68 57.2754 140.121 57.2253C140.562 57.1752 140.986 57.0238 141.358 56.7833C141.73 56.5428 142.041 56.2196 142.266 55.8392C142.491 55.4588 142.625 55.0316 142.655 54.5913C142.686 54.151 142.614 53.7096 142.444 53.3019C142.273 52.8942 142.01 52.5314 141.675 52.242C141.34 51.9526 140.942 51.7446 140.512 51.6343C140.082 51.524 139.632 51.5146 139.198 51.6066L139.269 53.0734L138.571 51.8163C137.886 52.1364 137.357 52.7137 137.1 53.4215C137.008 53.6695 136.953 53.929 136.935 54.1924C136.891 54.8105 137.05 55.426 137.39 55.9457C137.729 56.4653 138.23 56.8608 138.816 57.0723V57.0723Z" stroke="#3F3D56" stroke-miterlimit="10"/>
<path d="M141.802 48.9652C141.966 48.516 142.24 48.115 142.601 47.7992C142.962 47.4834 143.396 47.2629 143.865 47.158L144.101 48.5525L144.539 47.0879C145.147 47.0968 145.736 47.2975 146.221 47.661C146.707 48.0244 147.063 48.5318 147.24 49.1099C147.416 49.6879 147.403 50.3068 147.203 50.8771C147.002 51.4474 146.625 51.9396 146.124 52.2826C145.624 52.6257 145.027 52.8019 144.42 52.7857C143.812 52.7695 143.226 52.5619 142.745 52.1927C142.264 51.8235 141.913 51.312 141.744 50.7318C141.574 50.1517 141.595 49.533 141.802 48.9652H141.802Z" fill="#57B894"/>
<path d="M141.96 48.4619C142.123 48.0127 142.398 47.6117 142.759 47.2959C143.119 46.9801 143.554 46.7596 144.023 46.6547L144.259 48.0492L144.697 46.5846C145.304 46.5936 145.893 46.7942 146.379 47.1577C146.864 47.5211 147.221 48.0285 147.397 48.6066C147.574 49.1846 147.561 49.8035 147.36 50.3738C147.16 50.9441 146.782 51.4363 146.282 51.7793C145.782 52.1224 145.185 52.2986 144.578 52.2824C143.97 52.2662 143.383 52.0586 142.902 51.6894C142.421 51.3202 142.071 50.8086 141.901 50.2285C141.732 49.6484 141.752 49.0297 141.96 48.4619H141.96Z" stroke="#3F3D56" stroke-miterlimit="10"/>
<path d="M143.95 64.0302C144.612 64.2688 145.339 64.257 145.992 63.9971C146.646 63.7371 147.181 63.2472 147.494 62.6207C147.808 61.9941 147.878 61.2748 147.693 60.5998C147.507 59.9248 147.078 59.3413 146.487 58.9606L146.151 60.0861L145.913 58.6751C145.91 58.674 145.908 58.6731 145.905 58.6724C145.551 58.5445 145.176 58.4872 144.799 58.5038C144.423 58.5203 144.054 58.6104 143.713 58.7689C143.371 58.9274 143.065 59.1511 142.811 59.4274C142.557 59.7036 142.36 60.027 142.231 60.3789C142.103 60.7308 142.045 61.1045 142.062 61.4785C142.079 61.8525 142.17 62.2195 142.33 62.5586C142.489 62.8977 142.714 63.2021 142.993 63.4546C143.271 63.7072 143.596 63.9027 143.95 64.0302H143.95Z" fill="#57B894"/>
<path d="M144.086 63.5202C144.748 63.7588 145.475 63.747 146.129 63.487C146.782 63.2271 147.317 62.7372 147.63 62.1107C147.944 61.4841 148.015 60.7648 147.829 60.0898C147.643 59.4148 147.214 58.8313 146.624 58.4506L146.287 59.576L146.049 58.1651C146.047 58.164 146.044 58.1631 146.042 58.1624C145.688 58.0345 145.312 57.9772 144.936 57.9938C144.559 58.0103 144.19 58.1004 143.849 58.2589C143.508 58.4174 143.201 58.6411 142.947 58.9174C142.693 59.1936 142.496 59.517 142.367 59.8689C142.239 60.2208 142.182 60.5945 142.198 60.9685C142.215 61.3424 142.306 61.7095 142.466 62.0485C142.625 62.3876 142.851 62.6921 143.129 62.9446C143.407 63.1971 143.732 63.3927 144.086 63.5202H144.086Z" stroke="#3F3D56" stroke-miterlimit="10"/>
<path d="M140.965 68.7628C141.079 69.4064 141.412 69.9915 141.908 70.4201C142.405 70.8486 143.034 71.0945 143.691 71.1165C144.348 71.1385 144.993 70.9353 145.517 70.5409C146.041 70.1465 146.413 69.5849 146.57 68.9504C146.727 68.3159 146.66 67.6469 146.38 67.0558C146.1 66.4646 145.623 65.9872 145.031 65.7036C144.439 65.42 143.767 65.3475 143.127 65.4981C142.487 65.6488 141.919 66.0135 141.518 66.5311L142.795 68.4422L141.05 67.4279C140.915 67.8597 140.886 68.3175 140.965 68.7628Z" fill="#57B894"/>
<path d="M141.083 68.3851C141.197 69.0287 141.53 69.6139 142.026 70.0424C142.523 70.471 143.152 70.7169 143.809 70.7389C144.466 70.7609 145.111 70.5576 145.635 70.1632C146.159 69.7688 146.531 69.2073 146.688 68.5727C146.845 67.9382 146.778 67.2693 146.498 66.6781C146.217 66.087 145.741 65.6095 145.149 65.3259C144.557 65.0423 143.884 64.9698 143.245 65.1205C142.605 65.2711 142.037 65.6358 141.636 66.1535L142.913 68.0646L141.168 67.0502C141.033 67.482 141.004 67.9398 141.083 68.3851V68.3851Z" stroke="#3F3D56" stroke-miterlimit="10"/>
<path d="M1.2407 64.3922C1.51487 64.4913 1.80844 64.5257 2.09827 64.4928C2.38811 64.4598 2.66628 64.3604 2.91087 64.2024C3.15546 64.0443 3.35979 63.832 3.50773 63.5821C3.65568 63.3321 3.7432 63.0515 3.76341 62.7622C3.78362 62.4729 3.73596 62.1829 3.62418 61.915C3.5124 61.6472 3.33957 61.4088 3.1193 61.2186C2.89903 61.0285 2.63734 60.8918 2.35487 60.8194C2.0724 60.7469 1.77686 60.7407 1.49154 60.8012L1.53869 61.7649L1.08 60.939C0.62981 61.1492 0.282023 61.5286 0.113062 61.9936C0.0530566 62.1565 0.0165779 62.327 0.00471397 62.5001C-0.0242392 62.9062 0.0807568 63.3106 0.303791 63.652C0.526825 63.9935 0.855741 64.2533 1.2407 64.3922Z" fill="#57B894"/>
<path d="M3.51037 75.5697C3.34845 74.7501 4.05008 74.0235 4.74314 73.5512C5.43619 73.0789 6.24598 72.6148 6.48246 71.8133C6.82231 70.6614 5.80999 69.6064 5.02208 68.6967C4.43753 68.0216 3.93554 67.2799 3.52661 66.4873C3.34882 66.176 3.22773 65.8359 3.16891 65.4827C3.10678 64.9721 3.27181 64.464 3.43806 63.977C3.99191 62.3545 4.58407 60.7456 5.21455 59.1503" stroke="#3F3D56" stroke-miterlimit="10"/>
<path d="M1.31834 64.1441C1.5925 64.2432 1.88607 64.2776 2.17591 64.2447C2.46574 64.2118 2.74392 64.1123 2.98851 63.9543C3.2331 63.7963 3.43742 63.5839 3.58536 63.334C3.73331 63.084 3.82083 62.8034 3.84104 62.5141C3.86125 62.2248 3.81359 61.9348 3.70181 61.667C3.59004 61.3991 3.4172 61.1607 3.19693 60.9706C2.97666 60.7805 2.71498 60.6438 2.43251 60.5713C2.15003 60.4989 1.85449 60.4927 1.56918 60.5531L1.61633 61.5168L1.15763 60.6909C0.707447 60.9012 0.35966 61.2805 0.190699 61.7456C0.130694 61.9085 0.0942159 62.079 0.0823513 62.2521C0.0533962 62.6581 0.158392 63.0625 0.381426 63.404C0.60446 63.7454 0.933377 64.0052 1.31834 64.1441V64.1441Z" stroke="#3F3D56" stroke-miterlimit="10"/>
<path d="M3.28019 58.8176C3.38778 58.5225 3.56836 58.2591 3.8053 58.0516C4.04223 57.8441 4.32789 57.6992 4.63596 57.6303L4.79105 58.5465L5.07859 57.5842C5.47782 57.5901 5.86484 57.722 6.18377 57.9607C6.50271 58.1995 6.73705 58.5329 6.85296 58.9127C6.96888 59.2925 6.96037 59.6991 6.82867 60.0738C6.69697 60.4485 6.44888 60.7718 6.12024 60.9972C5.79159 61.2226 5.39939 61.3384 5.00026 61.3278C4.60113 61.3171 4.21572 61.1807 3.89967 60.9382C3.58363 60.6956 3.35331 60.3595 3.24196 59.9783C3.13061 59.5972 3.144 59.1907 3.28019 58.8176Z" fill="#57B894"/>
<path d="M3.3837 58.4867C3.4913 58.1916 3.67188 57.9281 3.90881 57.7206C4.14575 57.5131 4.43141 57.3683 4.73947 57.2993L4.89456 58.2155L5.1821 57.2533C5.58134 57.2592 5.96836 57.391 6.28729 57.6298C6.60622 57.8686 6.84056 58.202 6.95648 58.5818C7.07239 58.9616 7.06389 59.3682 6.93218 59.7428C6.80048 60.1175 6.5524 60.4409 6.22375 60.6663C5.89511 60.8917 5.50291 61.0074 5.10377 60.9968C4.70464 60.9862 4.31923 60.8498 4.00319 60.6072C3.68714 60.3647 3.45682 60.0286 3.34547 59.6474C3.23412 59.2663 3.24751 58.8598 3.3837 58.4867V58.4867Z" stroke="#3F3D56" stroke-miterlimit="10"/>
<path d="M4.69156 68.7155C5.12637 68.8723 5.604 68.8646 6.03343 68.6938C6.46286 68.523 6.81406 68.2011 7.02008 67.7895C7.2261 67.3778 7.27254 66.9052 7.15055 66.4617C7.02855 66.0182 6.74666 65.6349 6.35859 65.3847L6.13765 66.1242L5.98098 65.1972C5.97943 65.1964 5.97783 65.1958 5.97619 65.1954C5.74361 65.1113 5.49666 65.0736 5.24943 65.0845C5.0022 65.0953 4.75954 65.1545 4.53532 65.2586C4.31111 65.3627 4.10974 65.5097 3.94271 65.6912C3.77568 65.8728 3.64627 66.0852 3.56188 66.3165C3.47749 66.5477 3.43977 66.7932 3.45087 67.039C3.46198 67.2847 3.5217 67.5259 3.62661 67.7487C3.73152 67.9715 3.87957 68.1716 4.0623 68.3375C4.24503 68.5033 4.45886 68.6318 4.69156 68.7155Z" fill="#57B894"/>
<path d="M4.78126 68.3806C5.21606 68.5373 5.69369 68.5296 6.12312 68.3588C6.55255 68.188 6.90375 67.8661 7.10977 67.4545C7.31579 67.0429 7.36223 66.5702 7.24024 66.1268C7.11825 65.6833 6.83635 65.2999 6.44828 65.0498L6.22734 65.7892L6.07067 64.8622C6.06912 64.8615 6.06752 64.8609 6.06588 64.8604C5.83336 64.7766 5.5865 64.7391 5.3394 64.75C5.09229 64.761 4.84979 64.8203 4.62573 64.9244C4.17322 65.1348 3.82329 65.5152 3.65294 65.982C3.48259 66.4488 3.50576 66.9637 3.71736 67.4136C3.92896 67.8634 4.31166 68.2112 4.78126 68.3806V68.3806Z" stroke="#3F3D56" stroke-miterlimit="10"/>
<path d="M2.7306 71.8249C2.80536 72.2477 3.02411 72.6322 3.35018 72.9138C3.67624 73.1953 4.08979 73.3569 4.52146 73.3713C4.95313 73.3858 5.37667 73.2522 5.72105 72.9931C6.06543 72.734 6.30971 72.365 6.41292 71.9481C6.51613 71.5312 6.47199 71.0917 6.2879 70.7033C6.10382 70.3149 5.79099 70.0013 5.40187 69.815C5.01275 69.6286 4.57101 69.5809 4.15074 69.6799C3.73046 69.7789 3.35721 70.0186 3.09357 70.3587L3.9328 71.6143L2.7861 70.9478C2.69719 71.2315 2.67815 71.5323 2.7306 71.8249Z" fill="#57B894"/>
<path d="M2.80799 71.5768C2.88275 71.9997 3.10151 72.3842 3.42757 72.6657C3.75364 72.9473 4.16718 73.1088 4.59885 73.1233C5.03052 73.1377 5.45406 73.0042 5.79844 72.7451C6.14282 72.486 6.3871 72.117 6.49031 71.7001C6.59352 71.2832 6.54938 70.8437 6.3653 70.4553C6.18121 70.0669 5.86838 69.7532 5.47926 69.5669C5.09014 69.3806 4.64841 69.3329 4.22813 69.4319C3.80785 69.5309 3.4346 69.7705 3.17097 70.1106L4.0102 71.3662L2.86349 70.6998C2.77458 70.9835 2.75555 71.2843 2.80799 71.5768V71.5768Z" stroke="#3F3D56" stroke-miterlimit="10"/>
<path d="M66.2515 46.7096C67.5448 46.7096 68.5932 45.3608 68.5932 43.6971C68.5932 42.0333 67.5448 40.6846 66.2515 40.6846C64.9581 40.6846 63.9097 42.0333 63.9097 43.6971C63.9097 45.3608 64.9581 46.7096 66.2515 46.7096Z" fill="#2F2E41"/>
<path d="M78.9936 46.7779C80.287 46.7779 81.3354 45.4292 81.3354 43.7654C81.3354 42.1017 80.287 40.7529 78.9936 40.7529C77.7003 40.7529 76.6519 42.1017 76.6519 43.7654C76.6519 45.4292 77.7003 46.7779 78.9936 46.7779Z" fill="#2F2E41"/>
<path d="M77.2028 52.6664C77.2028 54.0275 75.2907 55.1311 72.9324 55.1311C70.5741 55.1311 68.6621 54.0275 68.6621 52.6664C68.6621 51.4874 70.0961 50.5015 72.0122 50.2605C72.3173 50.2205 72.6247 50.2008 72.9324 50.2016C73.448 50.1999 73.9622 50.255 74.4656 50.3659C76.0663 50.7205 77.2028 51.6175 77.2028 52.6664Z" fill="#2F2E41"/>
<path d="M66.8025 46.0249C68.0958 46.0249 69.1443 44.6761 69.1443 43.0124C69.1443 41.3486 68.0958 39.9999 66.8025 39.9999C65.5091 39.9999 64.4607 41.3486 64.4607 43.0124C64.4607 44.6761 65.5091 46.0249 66.8025 46.0249Z" stroke="#3F3D56" stroke-miterlimit="10"/>
<path d="M79.5447 46.0934C80.838 46.0934 81.8865 44.7446 81.8865 43.0809C81.8865 41.4171 80.838 40.0684 79.5447 40.0684C78.2513 40.0684 77.2029 41.4171 77.2029 43.0809C77.2029 44.7446 78.2513 46.0934 79.5447 46.0934Z" stroke="#3F3D56" stroke-miterlimit="10"/>
<path d="M73.4837 54.4462C75.8421 54.4462 77.754 53.3426 77.754 51.9814C77.754 50.6201 75.8421 49.5166 73.4837 49.5166C71.1253 49.5166 69.2134 50.6201 69.2134 51.9814C69.2134 53.3426 71.1253 54.4462 73.4837 54.4462Z" stroke="#3F3D56" stroke-miterlimit="10"/>
<path d="M74.5167 50.5712C74.5178 50.7434 74.4528 50.9095 74.3349 51.0356C74.2792 51.0961 74.2115 51.1444 74.1362 51.1776C74.0608 51.2108 73.9793 51.2281 73.8968 51.2284H72.5193C72.3496 51.2226 72.1891 51.1501 72.0729 51.027C71.9568 50.9038 71.8944 50.7399 71.8995 50.5712C71.8987 50.4377 71.9381 50.307 72.0124 50.1958C72.3172 50.1531 72.6247 50.1321 72.9326 50.133C73.4488 50.1313 73.9634 50.1901 74.4658 50.3082C74.4998 50.3918 74.5171 50.4811 74.5167 50.5712Z" fill="white"/>
<path d="M66.8025 42.8754C67.1829 42.8754 67.4913 42.5689 67.4913 42.1908C67.4913 41.8126 67.1829 41.5061 66.8025 41.5061C66.4221 41.5061 66.1138 41.8126 66.1138 42.1908C66.1138 42.5689 66.4221 42.8754 66.8025 42.8754Z" fill="white"/>
<path d="M79.6136 42.8754C79.994 42.8754 80.3023 42.5689 80.3023 42.1908C80.3023 41.8126 79.994 41.5061 79.6136 41.5061C79.2332 41.5061 78.9248 41.8126 78.9248 42.1908C78.9248 42.5689 79.2332 42.8754 79.6136 42.8754Z" fill="white"/>
<path opacity="0.3" d="M80.3023 49.3113C80.6827 49.3113 80.991 49.0048 80.991 48.6267C80.991 48.2485 80.6827 47.942 80.3023 47.942C79.9219 47.942 79.6135 48.2485 79.6135 48.6267C79.6135 49.0048 79.9219 49.3113 80.3023 49.3113Z" fill="#002261"/>
<path opacity="0.3" d="M63.4964 49.3113C63.8768 49.3113 64.1851 49.0048 64.1851 48.6267C64.1851 48.2485 63.8768 47.942 63.4964 47.942C63.116 47.942 62.8076 48.2485 62.8076 48.6267C62.8076 49.0048 63.116 49.3113 63.4964 49.3113Z" fill="#002261"/>
</g>
<defs>
<clipPath id="clip0">
<rect width="148" height="80" fill="white"/>
</clipPath>
</defs>
</svg>
