<svg width="295" height="159" viewBox="0 0 295 159" fill="none" xmlns="http://www.w3.org/2000/svg">
<g clip-path="url(#clip0)">
<path d="M148.592 158.731C228.218 158.731 292.768 154.483 292.768 149.243C292.768 144.003 228.218 139.755 148.592 139.755C68.9665 139.755 4.41699 144.003 4.41699 149.243C4.41699 154.483 68.9665 158.731 148.592 158.731Z" fill="#F2F2F2"/>
<path d="M143.067 45.375C119.577 45.375 102.711 60.3559 102.711 95.3112C102.711 134.927 119.577 145.414 143.067 145.414C166.557 145.414 184.427 133.929 184.427 95.3112C184.427 54.0306 166.557 45.375 143.067 45.375ZM143.221 132.264C126.951 132.264 118.451 122.776 118.451 95.3368C118.451 71.1259 127.299 58.3584 143.569 58.3584C159.839 58.3584 168.687 66.7449 168.687 95.3368C168.687 122.084 159.491 132.264 143.221 132.264Z" fill="#2F2E41"/>
<path d="M88.6449 117.782H78.9327V89.3527C78.9327 87.8426 78.3293 86.3945 77.2552 85.3267C76.181 84.259 74.7242 83.6591 73.2051 83.6591H70.9294C70.1772 83.6591 69.4324 83.8064 68.7375 84.0925C68.0426 84.3787 67.4112 84.798 66.8793 85.3267C66.3475 85.8554 65.9256 86.4831 65.6377 87.1738C65.3499 87.8646 65.2018 88.605 65.2018 89.3527V117.782H37.8071C37.2435 117.782 36.6895 117.637 36.1988 117.362C35.7081 117.086 35.2974 116.689 35.0065 116.21C34.7156 115.73 34.5544 115.183 34.5386 114.623C34.5227 114.063 34.6527 113.509 34.916 113.013L63.9102 58.4633C64.2717 57.7832 64.4908 57.0374 64.5543 56.2708C64.6178 55.5042 64.5244 54.7327 64.2797 54.003C64.035 53.2733 63.644 52.6005 63.1305 52.0251C62.617 51.4497 61.9915 50.9837 61.2918 50.6552L59.5802 49.8518C58.2511 49.2279 56.7317 49.1358 55.3362 49.5945C53.9408 50.0532 52.7761 51.0276 52.0832 52.3161L16.7209 118.074C16.1188 119.194 15.8037 120.444 15.8037 121.714C15.8037 122.727 16.0046 123.731 16.3949 124.668C16.7852 125.605 17.3573 126.456 18.0785 127.173C18.7997 127.89 19.6559 128.458 20.5981 128.846C21.5404 129.234 22.5504 129.434 23.5703 129.434H65.2018V147.411C65.2018 148.307 65.3793 149.195 65.7244 150.023C66.0694 150.851 66.5751 151.603 67.2126 152.237C67.8501 152.87 68.607 153.373 69.4399 153.716C70.2729 154.059 71.1657 154.236 72.0672 154.236H72.0672C72.9688 154.236 73.8616 154.059 74.6946 153.716C75.5275 153.373 76.2844 152.87 76.9219 152.237C77.5594 151.603 78.0651 150.851 78.4101 150.023C78.7551 149.195 78.9327 148.307 78.9327 147.411V129.434H88.6449C90.1993 129.434 91.69 128.82 92.7891 127.728C93.8882 126.635 94.5057 125.153 94.5057 123.608C94.5057 122.063 93.8882 120.581 92.7891 119.489C91.69 118.396 90.1993 117.782 88.6449 117.782Z" fill="#002261"/>
<path d="M268.488 117.782H258.775V89.3527C258.775 87.8426 258.172 86.3945 257.098 85.3267C256.024 84.259 254.567 83.6591 253.048 83.6591H250.772C250.02 83.6591 249.275 83.8064 248.58 84.0925C247.885 84.3787 247.254 84.798 246.722 85.3267C246.19 85.8554 245.768 86.4831 245.481 87.1738C245.193 87.8646 245.045 88.605 245.045 89.3527V117.782H217.65C217.086 117.782 216.532 117.637 216.042 117.362C215.551 117.086 215.14 116.689 214.849 116.21C214.558 115.73 214.397 115.183 214.381 114.623C214.365 114.063 214.495 113.509 214.759 113.013L243.753 58.4633C244.114 57.7832 244.334 57.0374 244.397 56.2708C244.461 55.5042 244.367 54.7327 244.122 54.003C243.878 53.2733 243.487 52.6005 242.973 52.0251C242.46 51.4497 241.834 50.9837 241.135 50.6552L239.423 49.8518C238.094 49.2279 236.574 49.1358 235.179 49.5945C233.784 50.0532 232.619 51.0276 231.926 52.3161L196.564 118.074C195.962 119.194 195.646 120.444 195.646 121.714C195.646 123.761 196.465 125.725 197.921 127.173C199.378 128.621 201.353 129.434 203.413 129.434H245.045V147.411C245.045 149.221 245.768 150.957 247.055 152.237C248.343 153.517 250.089 154.236 251.91 154.236C253.731 154.236 255.477 153.517 256.765 152.237C258.052 150.957 258.775 149.221 258.775 147.411V129.434H268.488C270.042 129.434 271.533 128.82 272.632 127.728C273.731 126.635 274.348 125.153 274.348 123.608C274.348 122.063 273.731 120.581 272.632 119.489C271.533 118.396 270.042 117.782 268.488 117.782Z" fill="#002261"/>
<path d="M91.3256 114.454H81.6134V86.0241C81.6134 85.2764 81.4653 84.536 81.1774 83.8452C80.8896 83.1545 80.4677 82.5268 79.9358 81.9981C79.404 81.4694 78.7726 81.0501 78.0777 80.7639C77.3827 80.4778 76.638 80.3305 75.8858 80.3305H73.61C72.091 80.3305 70.6341 80.9304 69.56 81.9981C68.4859 83.0659 67.8824 84.514 67.8824 86.0241V114.454H40.4877C39.9242 114.454 39.3702 114.309 38.8795 114.033C38.3888 113.758 37.9781 113.361 37.6872 112.881C37.3963 112.401 37.2351 111.855 37.2192 111.295C37.2034 110.735 37.3334 110.18 37.5967 109.685L66.5909 55.1347C66.9524 54.4546 67.1715 53.7088 67.235 52.9422C67.2985 52.1756 67.2051 51.4041 66.9603 50.6744C66.7156 49.9447 66.3247 49.2718 65.8112 48.6965C65.2976 48.1211 64.6721 47.6551 63.9724 47.3266L62.2608 46.5232C60.9318 45.8993 59.4124 45.8072 58.0169 46.2659C56.6215 46.7246 55.4568 47.699 54.7639 48.9874L19.4016 114.745C18.7994 115.865 18.4844 117.115 18.4844 118.385V118.385C18.4844 120.433 19.3026 122.396 20.7591 123.844C22.2157 125.292 24.1911 126.105 26.2509 126.105H67.8824V144.082C67.8824 144.979 68.06 145.866 68.405 146.694C68.75 147.522 69.2558 148.274 69.8933 148.908C70.5308 149.542 71.2876 150.045 72.1206 150.388C72.9536 150.731 73.8463 150.907 74.7479 150.907H74.7479C76.5688 150.907 78.315 150.188 79.6025 148.908C80.8901 147.628 81.6134 145.892 81.6134 144.082V126.105H91.3256C92.0952 126.105 92.8573 125.955 93.5684 125.662C94.2794 125.369 94.9255 124.94 95.4698 124.399C96.014 123.858 96.4457 123.216 96.7402 122.509C97.0347 121.802 97.1863 121.045 97.1863 120.28V120.28C97.1863 119.514 97.0347 118.757 96.7402 118.05C96.4457 117.343 96.014 116.701 95.4698 116.16C94.9255 115.619 94.2795 115.19 93.5684 114.897C92.8573 114.604 92.0952 114.454 91.3256 114.454V114.454Z" stroke="#3F3D56" stroke-miterlimit="10"/>
<path d="M273.511 114.454H263.799V86.0241C263.799 84.514 263.195 83.0659 262.121 81.9981C261.047 80.9304 259.59 80.3305 258.071 80.3305H255.796C255.043 80.3305 254.299 80.4778 253.604 80.7639C252.909 81.0501 252.277 81.4694 251.746 81.9981C251.214 82.5268 250.792 83.1545 250.504 83.8452C250.216 84.536 250.068 85.2764 250.068 86.0241V114.454H222.673C222.11 114.454 221.556 114.309 221.065 114.033C220.574 113.758 220.164 113.361 219.873 112.881C219.582 112.401 219.421 111.855 219.405 111.295C219.389 110.735 219.519 110.18 219.782 109.685L248.776 55.1347C249.138 54.4546 249.357 53.7088 249.421 52.9422C249.484 52.1756 249.391 51.4041 249.146 50.6744C248.901 49.9447 248.51 49.2718 247.997 48.6965C247.483 48.1211 246.858 47.6551 246.158 47.3266L244.446 46.5232C243.117 45.8993 241.598 45.8072 240.202 46.2659C238.807 46.7246 237.642 47.699 236.949 48.9874L201.587 114.745C200.985 115.865 200.67 117.115 200.67 118.385C200.67 120.433 201.488 122.396 202.945 123.844C204.401 125.292 206.377 126.105 208.436 126.105H250.068V144.082C250.068 145.892 250.791 147.628 252.079 148.908C253.366 150.188 255.113 150.907 256.933 150.907V150.907C258.754 150.907 260.5 150.188 261.788 148.908C263.076 147.628 263.799 145.892 263.799 144.082V126.105H273.511C274.281 126.105 275.043 125.955 275.754 125.662C276.465 125.369 277.111 124.94 277.655 124.399C278.199 123.858 278.631 123.216 278.926 122.509C279.22 121.802 279.372 121.045 279.372 120.28V120.28C279.372 118.734 278.754 117.253 277.655 116.16C276.556 115.067 275.065 114.454 273.511 114.454V114.454Z" stroke="#3F3D56" stroke-miterlimit="10"/>
<path d="M148.424 42.3787C124.934 42.3787 108.068 57.3595 108.068 92.3148C108.068 131.931 124.934 142.417 148.424 142.417C171.914 142.417 189.785 130.932 189.785 92.3148C189.785 51.0343 171.914 42.3787 148.424 42.3787ZM148.579 129.268C132.309 129.268 123.809 119.779 123.809 92.3404C123.809 68.1296 132.657 55.3621 148.926 55.3621C165.196 55.3621 174.044 63.7485 174.044 92.3404C174.044 119.088 164.848 129.268 148.579 129.268V129.268Z" stroke="#3F3D56" stroke-miterlimit="10"/>
<path d="M129.596 8.46363C131.544 8.46363 133.123 6.89433 133.123 4.9585C133.123 3.02267 131.544 1.45337 129.596 1.45337C127.649 1.45337 126.07 3.02267 126.07 4.9585C126.07 6.89433 127.649 8.46363 129.596 8.46363Z" fill="#2F2E41"/>
<path d="M138.197 25.4763C143.659 25.4763 148.087 19.7732 148.087 12.7382C148.087 5.70307 143.659 0 138.197 0C132.735 0 128.307 5.70307 128.307 12.7382C128.307 19.7732 132.735 25.4763 138.197 25.4763Z" fill="#2F2E41"/>
<path opacity="0.1" d="M138.197 21.6295C133.242 21.6295 129.139 16.9373 128.419 10.8149C128.344 11.4534 128.306 12.0957 128.307 12.7385C128.307 19.7736 132.735 25.4766 138.197 25.4766C143.659 25.4766 148.087 19.7736 148.087 12.7385C148.088 12.0957 148.05 11.4534 147.975 10.8149C147.255 16.9373 143.152 21.6295 138.197 21.6295Z" fill="black"/>
<path d="M158.323 50.0421C158.111 50.9098 157.195 51.6046 156.181 52.0901C154.049 53.1108 151.418 53.4154 148.867 53.5176C148.216 53.557 147.563 53.545 146.914 53.4818C145.657 53.3609 144.477 52.8218 143.566 51.9518C143.501 51.9096 143.448 51.8518 143.411 51.7837C143.375 51.7155 143.356 51.6393 143.357 51.5622C143.359 51.485 143.38 51.4094 143.418 51.3424C143.457 51.2754 143.512 51.2192 143.578 51.1791C144.936 49.696 147.203 48.7866 149.486 48.1318C151.217 47.6353 154.237 46.3493 156.125 46.5228C157.954 46.6909 158.592 48.9466 158.323 50.0421Z" fill="#3F3D56"/>
<path opacity="0.1" d="M158.323 50.0421C158.111 50.9098 157.195 51.6046 156.181 52.0901C154.049 53.1108 151.418 53.4154 148.867 53.5176C148.216 53.557 147.563 53.545 146.914 53.4818C145.657 53.3609 144.477 52.8218 143.566 51.9518C143.501 51.9096 143.448 51.8518 143.411 51.7837C143.375 51.7155 143.356 51.6393 143.357 51.5622C143.359 51.485 143.38 51.4094 143.418 51.3424C143.457 51.2754 143.512 51.2192 143.578 51.1791C144.936 49.696 147.203 48.7866 149.486 48.1318C151.217 47.6353 154.237 46.3493 156.125 46.5228C157.954 46.6909 158.592 48.9466 158.323 50.0421Z" fill="black"/>
<path d="M131.209 43.5574C130.559 44.8255 130.441 46.2986 130.882 47.653C131.331 48.9972 132.17 50.1789 133.295 51.0483C136.054 53.2467 139.851 53.5492 143.387 53.5187C146.486 53.4919 149.581 53.2811 152.654 52.8874C153.684 52.7966 154.696 52.563 155.661 52.1933C156.815 51.697 157.829 50.7867 158.24 49.6053C158.651 48.424 158.359 46.9774 157.384 46.189C156.526 45.4963 155.344 45.401 154.241 45.3351L147.931 44.9581C148.554 44.331 149.384 43.9762 150.144 43.5203C151.151 42.9154 151.82 41.8998 152.552 40.9842C153.681 39.6435 154.909 38.3887 156.225 37.2302C156.431 38.4013 157.176 39.3629 158.053 40.171C158.93 40.979 159.941 41.6295 160.853 42.3989C163.061 44.2622 164.651 46.7913 166.973 48.512C168.571 48.0948 170.064 47.3536 171.36 46.3352L170.457 44.7101C170.382 44.5429 170.265 44.3976 170.117 44.2882C169.861 44.132 169.532 44.2125 169.235 44.1683C168.443 44.0501 168.096 43.1402 167.785 42.4057C166.931 40.3893 165.296 38.8249 163.899 37.1339C162.868 35.8856 161.954 34.5468 161.167 33.1338C160.698 32.2911 160.268 31.4137 159.632 30.6877C158.995 29.9617 158.103 29.391 157.134 29.3889C156.278 29.3871 155.488 29.8192 154.752 30.2537C152.51 31.5774 150.353 33.0382 148.294 34.6277C147.216 35.4595 146.145 36.3384 144.88 36.8485C144.348 37.0632 143.787 37.2099 143.276 37.4712C142.381 37.9289 141.702 38.7032 140.972 39.3905C138.365 41.842 134.796 43.4303 131.209 43.5574Z" fill="#3F3D56"/>
<path d="M144.403 26.1091C144.374 26.8584 144.214 27.597 143.929 28.2917C143.785 28.6381 143.571 28.9514 143.3 29.2119C143.029 29.4723 142.706 29.6745 142.353 29.8057C141.851 29.9393 141.326 29.9563 140.816 29.8553C140.372 29.8092 139.944 29.6642 139.564 29.4313C138.972 29.0269 138.677 28.3053 138.57 27.5992C138.462 26.8939 138.51 26.1732 138.442 25.4628C138.375 24.8889 138.265 24.3209 138.113 23.7632C138.067 23.5777 138.019 23.393 137.973 23.2084C137.927 23.0237 137.883 22.839 137.841 22.6544C137.803 22.4808 137.768 22.3064 137.738 22.1312C137.713 21.9833 137.691 21.8345 137.674 21.6849C137.659 21.2414 137.585 20.8018 137.453 20.3778C137.33 20.1027 137.175 19.8426 136.993 19.6024C136.914 19.4912 136.839 19.3801 136.769 19.2647C136.567 18.9647 136.474 18.6059 136.503 18.2465C136.511 18.1909 136.525 18.1362 136.544 18.0832C136.55 18.0627 136.558 18.0422 136.567 18.0225C136.644 18.0016 136.715 17.9623 136.774 17.9079C136.832 17.8535 136.877 17.7857 136.903 17.7104C136.933 17.5487 136.919 17.3821 136.863 17.2274C136.798 17.0113 136.71 16.8029 136.6 16.6059C136.528 16.4759 136.283 16.2417 136.281 16.0929C136.278 15.7937 136.866 15.5526 137.104 15.4347C137.831 15.0727 138.642 14.9092 139.454 14.961C139.974 14.9961 140.538 15.1551 140.826 15.5885C141.084 15.9792 141.049 16.4853 141.159 16.9393C141.171 17.0053 141.199 17.0673 141.241 17.1197C141.297 17.1705 141.368 17.2028 141.443 17.212C141.571 17.2372 141.701 17.2424 141.83 17.2274H141.831C141.865 17.2247 141.899 17.2199 141.933 17.2129C142.133 17.176 142.323 17.0945 142.488 16.9743C142.595 16.9461 142.702 16.9231 142.811 16.9051C142.815 16.9047 142.819 16.9038 142.824 16.9025C143.254 18.2541 143.31 19.7032 143.663 21.0796C143.837 21.7644 144.088 22.4406 144.123 23.1451C144.126 23.1759 144.126 23.2075 144.127 23.2391C144.132 23.4657 144.114 23.6939 144.124 23.9196C144.127 24.0213 144.139 24.1225 144.158 24.2223C144.197 24.3828 144.245 24.5409 144.302 24.6959L144.304 24.7036C144.321 24.7532 144.336 24.8036 144.349 24.854C144.359 24.8908 144.367 24.9267 144.374 24.9635L144.375 24.966C144.439 25.3438 144.448 25.7286 144.403 26.1091Z" fill="#FBBEBE"/>
<path d="M138.369 17.2696C141.171 17.2696 143.443 15.0113 143.443 12.2256C143.443 9.4399 141.171 7.18164 138.369 7.18164C135.567 7.18164 133.295 9.4399 133.295 12.2256C133.295 15.0113 135.567 17.2696 138.369 17.2696Z" fill="#FBBEBE"/>
<path d="M170.585 39.707C170.438 38.3308 169.946 37.0134 169.154 35.8753C169.285 36.6532 169.417 37.4309 169.549 38.2083C169.385 38.2556 169.21 38.2541 169.047 38.2042C168.883 38.1542 168.738 38.0579 168.629 37.927C168.415 37.6618 168.252 37.3603 168.147 37.0371C167.57 35.6145 166.816 34.2695 165.903 33.0335C162.672 32.766 159.479 31.4349 156.638 29.8832C153.797 28.3324 151.138 26.473 148.334 24.8563C147.848 24.5643 147.342 24.3071 146.819 24.0869C145.941 23.7372 144.957 23.556 144.125 23.1448C144.069 23.1174 144.013 23.0884 143.958 23.0584C143.77 22.9569 143.592 22.8381 143.427 22.7036C143.337 22.6314 143.252 22.5537 143.172 22.4711C142.757 21.9912 142.428 21.4441 142.199 20.8536C141.753 19.8722 141.594 18.6881 141.148 17.7067C141.353 17.5165 141.583 17.3551 141.832 17.2271H141.833C141.869 17.2083 141.905 17.1903 141.942 17.1732C142.118 17.0907 142.302 17.024 142.49 16.974C142.597 16.9458 142.704 16.9227 142.813 16.9048C142.817 16.9043 142.821 16.9035 142.826 16.9022C143.328 16.8208 143.843 16.8613 144.326 17.0202C145.033 17.2579 145.629 17.7323 146.223 18.1812C147.189 18.8573 148.115 19.5874 148.997 20.368C149.487 20.8348 149.935 21.3478 150.462 21.7718C150.9 22.1079 151.362 22.4122 151.844 22.6823C154.697 24.3716 157.55 26.0606 160.403 27.7493C161.369 28.3213 162.335 28.8932 163.28 29.4985C164.714 30.4184 166.097 31.4152 167.479 32.4112C168.294 32.9976 169.108 33.5844 169.922 34.1714C170.189 34.3407 170.423 34.5561 170.614 34.8075C170.783 35.0928 170.887 35.4109 170.921 35.7402C171.125 37.0703 171.01 38.4296 170.585 39.707Z" fill="#FBBEBE"/>
<path d="M145.662 29.902C145.32 31.428 143.769 32.3504 142.958 33.6909C141.95 35.3546 142.361 37.2884 142.739 39.194C142.048 39.7864 141.356 40.3789 140.664 40.9713C140.282 41.2971 139.9 41.6245 139.489 41.9126C138.89 42.3118 138.263 42.6695 137.614 42.9829C137.002 43.2958 136.39 43.609 135.777 43.9225C135.208 44.2407 134.605 44.4947 133.979 44.6799C132.772 44.9877 131.491 44.7723 130.297 44.4158C130.156 44.3791 130.021 44.3242 129.895 44.2525C129.82 44.2083 129.755 44.1499 129.704 44.0806C129.586 43.8709 129.543 43.6277 129.583 43.3907C129.704 41.3937 130.195 39.4385 130.684 37.4978C130.946 36.3336 131.297 35.1912 131.736 34.0808C132.166 33.1293 132.661 32.2079 133.216 31.3228C133.829 30.2092 134.555 29.1611 135.383 28.1947C135.787 27.8228 136.126 27.3879 136.388 26.9072C136.693 26.2147 136.575 25.4205 136.637 24.6665C136.685 24.1 136.836 23.5469 137.084 23.0345V23.0336C137.216 22.7576 137.376 22.4953 137.56 22.2505C137.644 22.4437 137.727 22.6367 137.81 22.8293C137.865 22.9558 137.92 23.0821 137.974 23.208C138.044 23.3705 138.114 23.5323 138.184 23.6936C138.384 24.157 138.584 24.6201 138.784 25.0829C139 25.6657 139.308 26.2109 139.696 26.6978C139.873 26.9471 140.112 27.1465 140.39 27.2764C140.668 27.4063 140.975 27.4623 141.282 27.439C141.588 27.4156 141.883 27.3137 142.138 27.1432C142.393 26.9727 142.599 26.7394 142.736 26.4661C143.025 25.9559 143.234 25.4051 143.357 24.8324C143.527 24.135 143.55 23.4104 143.426 22.7036C143.218 21.3426 142.636 19.9525 142.213 18.6881C142.041 18.2665 141.941 17.8192 141.918 17.3647C141.919 17.3137 141.924 17.2628 141.933 17.2126C141.936 17.1997 141.939 17.1861 141.941 17.1732C142.117 17.0907 142.301 17.024 142.489 16.974C142.596 16.9458 142.703 16.9227 142.811 16.9048C143.184 18.9087 143.557 20.9126 143.93 22.9165C143.939 22.9635 143.948 23.0105 143.957 23.0584C144.01 23.3457 144.065 23.6329 144.125 23.9193C144.179 24.1792 144.237 24.4382 144.303 24.6956L144.305 24.7033C144.328 24.7905 144.351 24.8768 144.375 24.9632L144.376 24.9657C144.442 25.2017 144.516 25.4359 144.599 25.6668C145.105 27.0577 145.987 28.458 145.662 29.902Z" fill="#002261"/>
<path d="M166.255 51.3475C166.239 51.6414 166.296 51.9348 166.421 52.2015C166.739 52.7784 167.501 52.9096 168.16 52.9635C172.012 53.2782 175.887 53.1609 179.712 52.6136C179.92 52.5995 180.121 52.5374 180.3 52.4322C180.844 52.0532 180.509 51.1295 179.915 50.8337C179.321 50.538 178.616 50.6093 177.965 50.4812C177.317 50.3192 176.701 50.0535 176.14 49.6944C174.818 48.9397 173.516 48.1528 172.233 47.3339C171.469 46.8463 170.568 46.3259 169.708 46.615C167.378 47.3986 166.239 48.8489 166.255 51.3475Z" fill="#3F3D56"/>
<path d="M137.863 22.5473V22.5482C137.857 22.5841 137.851 22.6191 137.843 22.6542C137.834 22.7123 137.823 22.7713 137.811 22.8294C137.705 23.3723 137.574 23.9126 137.423 24.4495C137.011 25.9327 136.458 27.3921 135.909 28.83C134.437 32.6857 132.964 36.5416 131.491 40.3978C131.119 41.369 130.749 42.341 130.326 43.2925C130.185 43.6097 130.04 43.9294 129.896 44.2526C129.378 45.4093 128.881 46.6036 128.716 47.8346C128.562 48.6449 128.544 49.4748 128.663 50.2908C128.828 51.0978 129.321 51.8861 130.093 52.1844C130.469 52.3306 131.008 52.5264 130.905 52.9154C130.849 53.1291 130.605 53.2334 130.386 53.2693C130.096 53.3152 129.8 53.2971 129.518 53.2165C129.236 53.1358 128.976 52.9945 128.755 52.8025C128.343 52.4392 128.027 51.8741 127.479 51.8134C127.1 51.7724 126.75 51.9981 126.403 52.1562C124.986 52.8 123.334 52.3494 121.846 51.8921C121.963 51.2928 122.568 50.8978 123.169 50.7781C123.77 50.6576 124.392 50.7431 125.005 50.7268C125.202 50.7372 125.397 50.6874 125.564 50.584C125.713 50.4475 125.818 50.2694 125.865 50.0728C126.26 48.9094 126.553 47.7144 126.743 46.501C126.941 45.2332 127.023 43.9457 127.305 42.6932C127.524 41.7161 127.863 40.7697 128.154 39.8105C128.716 37.8355 129.178 35.8336 129.537 33.8124C129.719 32.9727 129.849 32.1228 129.927 31.2674C129.976 30.5578 129.952 29.8448 130.021 29.1378C130.137 28.218 130.33 27.3094 130.598 26.4217C130.861 25.4531 131.124 24.4851 131.387 23.5176C131.776 22.0856 132.194 20.5981 133.182 19.485C133.525 19.0932 133.945 18.7755 134.416 18.5516C134.888 18.3278 135.401 18.2026 135.923 18.1838C136.118 18.1836 136.314 18.2045 136.505 18.2462C136.537 18.2539 136.569 18.2616 136.6 18.2702C136.809 18.3243 137.009 18.4066 137.195 18.5147C137.499 18.3223 137.654 18.3899 137.856 18.6865C138.033 19.0005 138.117 19.3581 138.097 19.7175C138.114 20.6662 138.036 21.6142 137.863 22.5473Z" fill="#FBBEBE"/>
<path d="M138.197 23.6807L138.184 23.6935L138.114 23.7628L137.423 24.4493L137.084 23.0344L135.922 18.1836C136.118 18.1834 136.313 18.2043 136.504 18.246C136.512 18.1905 136.526 18.1358 136.545 18.0828L136.6 18.27L136.993 19.6019L137.739 22.1308L137.862 22.5471V22.548L138.197 23.6807Z" fill="#002261"/>
<path d="M142.585 8.20584C142.584 8.65499 142.494 9.09964 142.321 9.51435C142.147 9.92906 141.893 10.3057 141.573 10.6228C141.457 10.7381 141.333 10.845 141.202 10.9424C140.608 11.3871 139.885 11.6278 139.142 11.6281H135.016C134.104 11.6267 133.23 11.2657 132.586 10.6244C131.942 9.98306 131.58 9.1138 131.58 8.2075C131.58 7.30121 131.942 6.43195 132.586 5.79061C133.23 5.14927 134.104 4.78826 135.016 4.78687H139.142C140.054 4.78922 140.927 5.15009 141.573 5.79067C142.218 6.43124 142.581 7.29949 142.585 8.20584Z" fill="#2F2E41"/>
<path d="M146.452 8.46363C148.399 8.46363 149.978 6.89433 149.978 4.9585C149.978 3.02267 148.399 1.45337 146.452 1.45337C144.504 1.45337 142.926 3.02267 142.926 4.9585C142.926 6.89433 144.504 8.46363 146.452 8.46363Z" fill="#2F2E41"/>
<path opacity="0.1" d="M146.367 1.45337C146.324 1.45337 146.281 1.45508 146.238 1.45661C147.15 1.48958 148.014 1.87295 148.648 2.52608C149.281 3.17921 149.635 4.05117 149.635 4.9585C149.635 5.86583 149.281 6.73779 148.648 7.39092C148.014 8.04405 147.15 8.42742 146.238 8.46039C146.281 8.46192 146.324 8.46363 146.367 8.46363C147.302 8.46363 148.199 8.09434 148.861 7.437C149.522 6.77966 149.893 5.88812 149.893 4.9585C149.893 4.02888 149.522 3.13734 148.861 2.48C148.199 1.82266 147.302 1.45337 146.367 1.45337Z" fill="black"/>
<path opacity="0.1" d="M129.595 1.45337C129.639 1.45337 129.681 1.45508 129.724 1.45661C128.812 1.48958 127.948 1.87295 127.315 2.52608C126.681 3.17921 126.327 4.05117 126.327 4.9585C126.327 5.86583 126.681 6.73779 127.315 7.39092C127.948 8.04405 128.812 8.42742 129.724 8.46039C129.681 8.46192 129.639 8.46363 129.595 8.46363C128.661 8.46281 127.765 8.09316 127.104 7.43591C126.443 6.77866 126.072 5.88759 126.072 4.9585C126.072 4.02942 126.443 3.13834 127.104 2.48109C127.765 1.82384 128.661 1.45419 129.595 1.45337Z" fill="black"/>
<path opacity="0.1" d="M141.2 10.9426C140.607 11.3874 139.884 11.6281 139.141 11.6284H135.015C134.272 11.6281 133.549 11.3874 132.955 10.9426H141.2Z" fill="black"/>
<path d="M167.846 36.3403C167.846 36.3403 168.735 38.8865 169.548 38.2085L168.9 34.8804L167.846 36.3403Z" fill="#FBBEBE"/>
<path d="M276.018 113.987C276.846 114.287 277.733 114.391 278.608 114.291C279.483 114.192 280.323 113.891 281.062 113.414C281.801 112.937 282.418 112.296 282.864 111.541C283.311 110.786 283.576 109.938 283.637 109.065C283.698 108.191 283.554 107.315 283.216 106.507C282.879 105.698 282.357 104.978 281.691 104.404C281.026 103.829 280.236 103.417 279.383 103.198C278.53 102.979 277.637 102.96 276.776 103.143L276.918 106.053L275.533 103.559C274.173 104.194 273.123 105.34 272.613 106.744C272.432 107.236 272.322 107.751 272.286 108.273C272.198 109.5 272.515 110.721 273.189 111.752C273.862 112.783 274.856 113.568 276.018 113.987Z" fill="#57B894"/>
<path d="M282.872 147.743C282.383 145.268 284.502 143.074 286.595 141.647C288.688 140.221 291.134 138.82 291.848 136.399C292.874 132.921 289.817 129.735 287.438 126.987C285.672 124.949 284.156 122.709 282.921 120.315C282.426 119.356 281.971 118.352 281.841 117.282C281.654 115.74 282.152 114.205 282.654 112.734C284.327 107.835 286.115 102.976 288.019 98.1582" stroke="#3F3D56" stroke-miterlimit="10"/>
<path d="M276.255 113.239C277.082 113.538 277.969 113.642 278.844 113.542C279.72 113.443 280.56 113.143 281.298 112.665C282.037 112.188 282.654 111.547 283.101 110.792C283.547 110.037 283.812 109.19 283.873 108.316C283.934 107.442 283.79 106.567 283.452 105.758C283.115 104.949 282.593 104.229 281.928 103.655C281.262 103.081 280.472 102.668 279.619 102.449C278.766 102.23 277.874 102.211 277.012 102.394L277.154 105.304L275.769 102.81C274.41 103.445 273.359 104.591 272.849 105.995C272.668 106.487 272.558 107.002 272.522 107.525C272.435 108.751 272.752 109.972 273.425 111.003C274.099 112.034 275.092 112.819 276.255 113.239V113.239Z" stroke="#3F3D56" stroke-miterlimit="10"/>
<path d="M282.179 97.1532C282.504 96.262 283.049 95.4665 283.765 94.8398C284.48 94.2132 285.343 93.7757 286.273 93.5675L286.742 96.3344L287.61 93.4285C288.816 93.4462 289.984 93.8444 290.948 94.5655C291.911 95.2866 292.618 96.2934 292.968 97.4403C293.318 98.5873 293.293 99.8152 292.895 100.947C292.497 102.078 291.748 103.055 290.756 103.736C289.763 104.416 288.579 104.766 287.373 104.734C286.168 104.702 285.004 104.29 284.05 103.557C283.095 102.825 282.4 101.81 282.064 100.658C281.727 99.5074 281.768 98.2799 282.179 97.1532H282.179Z" fill="#57B894"/>
<path d="M282.49 96.1544C282.814 95.2633 283.36 94.4677 284.075 93.8411C284.791 93.2144 285.654 92.7769 286.584 92.5688L287.052 95.3356L287.921 92.4297C289.126 92.4475 290.295 92.8456 291.258 93.5667C292.221 94.2879 292.929 95.2946 293.279 96.4415C293.629 97.5885 293.603 98.8164 293.206 99.9479C292.808 101.079 292.059 102.056 291.066 102.737C290.074 103.417 288.889 103.767 287.684 103.735C286.479 103.703 285.315 103.291 284.36 102.558C283.406 101.826 282.71 100.811 282.374 99.6597C282.038 98.5087 282.078 97.2812 282.49 96.1544H282.49Z" stroke="#3F3D56" stroke-miterlimit="10"/>
<path d="M286.439 127.044C287.752 127.517 289.195 127.494 290.491 126.978C291.788 126.462 292.849 125.49 293.471 124.247C294.093 123.004 294.233 121.577 293.865 120.238C293.497 118.898 292.645 117.741 291.473 116.985L290.806 119.218L290.333 116.419C290.328 116.417 290.323 116.415 290.318 116.413C289.616 116.16 288.87 116.046 288.124 116.079C287.377 116.112 286.645 116.29 285.968 116.605C285.291 116.919 284.683 117.363 284.178 117.911C283.674 118.459 283.283 119.101 283.028 119.799C282.774 120.498 282.66 121.239 282.693 121.981C282.727 122.723 282.907 123.451 283.224 124.124C283.54 124.797 283.987 125.401 284.539 125.902C285.091 126.403 285.736 126.791 286.439 127.044H286.439Z" fill="#57B894"/>
<path d="M286.711 126.032C288.024 126.505 289.466 126.482 290.763 125.966C292.06 125.45 293.12 124.478 293.742 123.235C294.365 121.992 294.505 120.565 294.136 119.226C293.768 117.886 292.917 116.729 291.745 115.973L291.078 118.206L290.604 115.407C290.6 115.405 290.595 115.403 290.59 115.401C289.888 115.148 289.142 115.034 288.395 115.067C287.649 115.1 286.916 115.278 286.239 115.593C285.562 115.907 284.954 116.351 284.45 116.899C283.946 117.448 283.555 118.089 283.3 118.787C283.045 119.486 282.931 120.227 282.965 120.969C282.998 121.711 283.178 122.439 283.495 123.112C283.812 123.785 284.259 124.389 284.811 124.89C285.362 125.391 286.008 125.779 286.711 126.032H286.711Z" stroke="#3F3D56" stroke-miterlimit="10"/>
<path d="M280.519 136.434C280.745 137.711 281.405 138.872 282.39 139.722C283.375 140.573 284.624 141.061 285.927 141.104C287.231 141.148 288.51 140.745 289.55 139.962C290.59 139.18 291.328 138.065 291.639 136.806C291.951 135.547 291.818 134.22 291.262 133.047C290.706 131.874 289.761 130.927 288.586 130.364C287.411 129.802 286.077 129.658 284.808 129.957C283.539 130.256 282.411 130.979 281.615 132.006L284.15 135.798L280.687 133.786C280.418 134.642 280.361 135.551 280.519 136.434Z" fill="#57B894"/>
<path d="M280.751 135.684C280.977 136.961 281.638 138.122 282.622 138.973C283.607 139.823 284.856 140.311 286.16 140.355C287.463 140.398 288.742 139.995 289.782 139.212C290.822 138.43 291.56 137.316 291.872 136.057C292.183 134.798 292.05 133.47 291.494 132.298C290.938 131.125 289.993 130.177 288.818 129.615C287.643 129.052 286.309 128.908 285.04 129.207C283.771 129.506 282.644 130.23 281.848 131.257L284.382 135.048L280.919 133.036C280.651 133.893 280.593 134.801 280.751 135.684V135.684Z" stroke="#3F3D56" stroke-miterlimit="10"/>
<path d="M3.2869 127.762C3.83088 127.959 4.41336 128.027 4.98843 127.961C5.5635 127.896 6.11544 127.699 6.60074 127.385C7.08604 127.072 7.49144 126.65 7.78498 126.154C8.07852 125.659 8.25218 125.102 8.29228 124.528C8.33237 123.954 8.23781 123.378 8.01603 122.847C7.79425 122.315 7.45132 121.842 7.01428 121.465C6.57723 121.088 6.05802 120.817 5.49756 120.673C4.93709 120.529 4.3507 120.517 3.78461 120.637L3.87816 122.549L2.96804 120.91C2.07482 121.327 1.38476 122.08 1.04952 123.003C0.930466 123.326 0.858088 123.664 0.834548 124.008C0.777102 124.813 0.985427 125.616 1.42795 126.293C1.87048 126.971 2.52309 127.486 3.2869 127.762Z" fill="#57B894"/>
<path d="M7.79099 149.94C7.46972 148.314 8.86185 146.872 10.237 145.935C11.6121 144.998 13.2188 144.077 13.688 142.487C14.3623 140.201 12.3537 138.108 10.7904 136.303C9.63059 134.964 8.63457 133.492 7.8232 131.919C7.47045 131.302 7.23019 130.627 7.11348 129.926C6.99021 128.913 7.31765 127.905 7.64752 126.939C8.74643 123.719 9.92135 120.527 11.1723 117.362" stroke="#3F3D56" stroke-miterlimit="10"/>
<path d="M3.4412 127.27C3.98518 127.467 4.56766 127.535 5.14273 127.47C5.7178 127.405 6.26973 127.207 6.75503 126.894C7.24033 126.58 7.64573 126.159 7.93927 125.663C8.23281 125.167 8.40647 124.61 8.44657 124.036C8.48666 123.462 8.39209 122.887 8.17032 122.355C7.94854 121.824 7.60561 121.351 7.16857 120.974C6.73153 120.596 6.21231 120.325 5.65185 120.182C5.09139 120.038 4.505 120.025 3.93891 120.145L4.03246 122.058L3.12234 120.419C2.22912 120.836 1.53906 121.589 1.20382 122.511C1.08476 122.835 1.01239 123.173 0.988846 123.516C0.931396 124.322 1.13972 125.124 1.58225 125.802C2.02478 126.479 2.67739 126.995 3.4412 127.27V127.27Z" stroke="#3F3D56" stroke-miterlimit="10"/>
<path d="M7.33446 116.701C7.54794 116.116 7.90624 115.593 8.37635 115.181C8.84645 114.77 9.41324 114.482 10.0245 114.346L10.3322 116.163L10.9027 114.254C11.6948 114.266 12.4627 114.527 13.0955 115.001C13.7283 115.475 14.1933 116.136 14.4233 116.89C14.6533 117.644 14.6364 118.45 14.3751 119.194C14.1138 119.937 13.6216 120.579 12.9695 121.026C12.3174 121.473 11.5392 121.703 10.7473 121.682C9.95538 121.661 9.19067 121.39 8.5636 120.909C7.93653 120.428 7.47954 119.761 7.25861 119.004C7.03768 118.248 7.06424 117.442 7.33446 116.701Z" fill="#57B894"/>
<path d="M7.53954 116.045C7.75302 115.46 8.11132 114.937 8.58143 114.525C9.05153 114.113 9.61832 113.826 10.2296 113.689L10.5373 115.507L11.1078 113.598C11.8999 113.61 12.6678 113.871 13.3006 114.345C13.9334 114.819 14.3984 115.48 14.6284 116.234C14.8584 116.987 14.8415 117.794 14.5802 118.537C14.3189 119.281 13.8266 119.923 13.1746 120.37C12.5225 120.817 11.7443 121.047 10.9524 121.026C10.1604 121.004 9.39575 120.734 8.76868 120.253C8.14161 119.771 7.68462 119.104 7.46369 118.348C7.24276 117.592 7.26932 116.785 7.53954 116.045V116.045Z" stroke="#3F3D56" stroke-miterlimit="10"/>
<path d="M10.1344 136.34C10.9971 136.651 11.9448 136.636 12.7968 136.297C13.6489 135.958 14.3457 135.32 14.7545 134.503C15.1632 133.686 15.2554 132.748 15.0133 131.868C14.7713 130.988 14.212 130.228 13.442 129.731L13.0036 131.199L12.6928 129.359C12.6897 129.358 12.6865 129.357 12.6833 129.356C12.2218 129.189 11.7318 129.114 11.2413 129.136C10.7507 129.157 10.2693 129.275 9.8244 129.481C9.37953 129.688 8.97998 129.979 8.64857 130.34C8.31716 130.7 8.0604 131.121 7.89296 131.58C7.72551 132.039 7.65067 132.526 7.67271 133.014C7.69475 133.501 7.81323 133.98 8.02139 134.422C8.22955 134.864 8.52331 135.261 8.88587 135.59C9.24843 135.919 9.67269 136.174 10.1344 136.34Z" fill="#57B894"/>
<path d="M10.3104 135.676C11.1731 135.987 12.1208 135.971 12.9728 135.632C13.8249 135.294 14.5217 134.655 14.9305 133.838C15.3392 133.021 15.4314 132.084 15.1893 131.204C14.9473 130.324 14.388 129.563 13.618 129.067L13.1796 130.534L12.8688 128.695C12.8657 128.693 12.8625 128.692 12.8592 128.691C12.3979 128.525 11.9081 128.45 11.4178 128.472C10.9275 128.494 10.4464 128.612 10.0018 128.818C9.10396 129.236 8.40967 129.99 8.07167 130.917C7.73367 131.843 7.77965 132.864 8.19949 133.757C8.61933 134.649 9.37864 135.34 10.3104 135.676V135.676Z" stroke="#3F3D56" stroke-miterlimit="10"/>
<path d="M6.24296 142.51C6.39129 143.349 6.82534 144.111 7.47229 144.67C8.11925 145.229 8.93977 145.549 9.79626 145.578C10.6527 145.607 11.4931 145.342 12.1764 144.828C12.8597 144.313 13.3444 143.581 13.5492 142.754C13.7539 141.927 13.6664 141.055 13.3011 140.284C12.9359 139.514 12.3152 138.891 11.5431 138.522C10.771 138.152 9.89458 138.057 9.0607 138.254C8.22682 138.45 7.48624 138.926 6.96315 139.601L8.62829 142.092L6.35309 140.77C6.17668 141.332 6.13891 141.929 6.24296 142.51Z" fill="#57B894"/>
<path d="M6.39726 142.018C6.54559 142.857 6.97963 143.619 7.62659 144.178C8.27354 144.737 9.09407 145.057 9.95055 145.086C10.807 145.115 11.6474 144.85 12.3307 144.335C13.014 143.821 13.4987 143.089 13.7034 142.262C13.9082 141.435 13.8206 140.563 13.4554 139.792C13.0902 139.022 12.4695 138.399 11.6974 138.03C10.9253 137.66 10.0489 137.565 9.215 137.762C8.38112 137.958 7.64053 138.434 7.11745 139.108L8.78259 141.6L6.50738 140.277C6.33097 140.84 6.29321 141.437 6.39726 142.018V142.018Z" stroke="#3F3D56" stroke-miterlimit="10"/>
<path d="M132.277 92.6778C134.843 92.6778 136.924 90.0017 136.924 86.7006C136.924 83.3995 134.843 80.7234 132.277 80.7234C129.711 80.7234 127.631 83.3995 127.631 86.7006C127.631 90.0017 129.711 92.6778 132.277 92.6778Z" fill="#2F2E41"/>
<path d="M157.559 92.8135C160.125 92.8135 162.205 90.1374 162.205 86.8363C162.205 83.5352 160.125 80.8591 157.559 80.8591C154.992 80.8591 152.912 83.5352 152.912 86.8363C152.912 90.1374 154.992 92.8135 157.559 92.8135Z" fill="#2F2E41"/>
<path d="M154.006 104.497C154.006 107.197 150.213 109.387 145.533 109.387C140.854 109.387 137.061 107.197 137.061 104.497C137.061 102.157 139.906 100.201 143.708 99.7231C144.313 99.6437 144.923 99.6047 145.533 99.6063C146.556 99.603 147.577 99.7123 148.575 99.9323C151.751 100.636 154.006 102.416 154.006 104.497Z" fill="#2F2E41"/>
<path d="M133.369 91.3194C135.935 91.3194 138.015 88.6433 138.015 85.3422C138.015 82.0411 135.935 79.365 133.369 79.365C130.803 79.365 128.723 82.0411 128.723 85.3422C128.723 88.6433 130.803 91.3194 133.369 91.3194Z" stroke="#3F3D56" stroke-miterlimit="10"/>
<path d="M158.652 91.4551C161.218 91.4551 163.299 88.779 163.299 85.4779C163.299 82.1768 161.218 79.5007 158.652 79.5007C156.086 79.5007 154.006 82.1768 154.006 85.4779C154.006 88.779 156.086 91.4551 158.652 91.4551Z" stroke="#3F3D56" stroke-miterlimit="10"/>
<path d="M146.625 108.028C151.305 108.028 155.098 105.839 155.098 103.138C155.098 100.437 151.305 98.2473 146.625 98.2473C141.946 98.2473 138.152 100.437 138.152 103.138C138.152 105.839 141.946 108.028 146.625 108.028Z" stroke="#3F3D56" stroke-miterlimit="10"/>
<path d="M148.674 100.339C148.676 100.681 148.547 101.011 148.313 101.261C148.203 101.381 148.068 101.477 147.919 101.543C147.769 101.608 147.608 101.643 147.444 101.644H144.711C144.374 101.632 144.056 101.488 143.825 101.244C143.595 100.999 143.471 100.674 143.481 100.339C143.48 100.075 143.558 99.8153 143.705 99.5947C144.31 99.51 144.92 99.4684 145.531 99.47C146.555 99.4667 147.576 99.5834 148.573 99.8178C148.64 99.9835 148.675 100.161 148.674 100.339Z" fill="white"/>
<path d="M133.369 85.0699C134.123 85.0699 134.735 84.4617 134.735 83.7115C134.735 82.9612 134.123 82.353 133.369 82.353C132.614 82.353 132.002 82.9612 132.002 83.7115C132.002 84.4617 132.614 85.0699 133.369 85.0699Z" fill="white"/>
<path d="M158.788 85.0699C159.543 85.0699 160.155 84.4617 160.155 83.7115C160.155 82.9612 159.543 82.353 158.788 82.353C158.034 82.353 157.422 82.9612 157.422 83.7115C157.422 84.4617 158.034 85.0699 158.788 85.0699Z" fill="white"/>
<path opacity="0.3" d="M160.156 97.8397C160.91 97.8397 161.522 97.2315 161.522 96.4813C161.522 95.731 160.91 95.1228 160.156 95.1228C159.401 95.1228 158.789 95.731 158.789 96.4813C158.789 97.2315 159.401 97.8397 160.156 97.8397Z" fill="#002261"/>
<path opacity="0.3" d="M126.812 97.8397C127.567 97.8397 128.178 97.2315 128.178 96.4813C128.178 95.731 127.567 95.1228 126.812 95.1228C126.057 95.1228 125.445 95.731 125.445 96.4813C125.445 97.2315 126.057 97.8397 126.812 97.8397Z" fill="#002261"/>
</g>
<defs>
<clipPath id="clip0">
<rect width="293.651" height="158.73" fill="white" transform="translate(0.825195)"/>
</clipPath>
</defs>
</svg>
