<svg width="63" height="18" viewBox="0 0 63 18" fill="none" xmlns="http://www.w3.org/2000/svg">
<path d="M0.686523 17V1.38086H3.86621V14.3467H11.7725V17H0.686523ZM13.4053 9.22266C13.4053 7.61849 13.6452 6.27214 14.125 5.18359C14.4831 4.38151 14.9701 3.66178 15.5859 3.02441C16.209 2.38704 16.8893 1.91439 17.627 1.60645C18.6081 1.19108 19.7396 0.983398 21.0215 0.983398C23.3418 0.983398 25.1966 1.70312 26.5859 3.14258C27.9824 4.58203 28.6807 6.58366 28.6807 9.14746C28.6807 11.6898 27.9896 13.6807 26.6074 15.1201C25.2253 16.5524 23.3776 17.2686 21.0645 17.2686C18.7227 17.2686 16.8607 16.556 15.4785 15.1309C14.0964 13.6986 13.4053 11.7292 13.4053 9.22266ZM16.6816 9.11523C16.6816 10.8984 17.0934 12.252 17.917 13.1758C18.7406 14.0924 19.7861 14.5508 21.0537 14.5508C22.3213 14.5508 23.3597 14.096 24.1689 13.1865C24.9854 12.2699 25.3936 10.8984 25.3936 9.07227C25.3936 7.26758 24.9961 5.92122 24.2012 5.0332C23.4134 4.14518 22.3643 3.70117 21.0537 3.70117C19.7432 3.70117 18.6868 4.15234 17.8848 5.05469C17.0827 5.94987 16.6816 7.30339 16.6816 9.11523ZM38.499 11.21V8.55664H45.3525V14.8301C44.6865 15.4746 43.7197 16.0439 42.4521 16.5381C41.1917 17.0251 39.9134 17.2686 38.6172 17.2686C36.9701 17.2686 35.5342 16.9248 34.3096 16.2373C33.085 15.5426 32.1647 14.5544 31.5488 13.2725C30.9329 11.9834 30.625 10.5833 30.625 9.07227C30.625 7.43229 30.9688 5.97493 31.6562 4.7002C32.3438 3.42546 33.3499 2.44792 34.6748 1.76758C35.6846 1.24479 36.9414 0.983398 38.4453 0.983398C40.4004 0.983398 41.9258 1.39518 43.0215 2.21875C44.1243 3.03516 44.8333 4.16667 45.1484 5.61328L41.9902 6.2041C41.7682 5.43066 41.3493 4.82194 40.7334 4.37793C40.1247 3.92676 39.362 3.70117 38.4453 3.70117C37.056 3.70117 35.9495 4.1416 35.126 5.02246C34.3096 5.90332 33.9014 7.21029 33.9014 8.94336C33.9014 10.8125 34.3167 12.2161 35.1475 13.1543C35.9782 14.0853 37.0667 14.5508 38.4131 14.5508C39.0791 14.5508 39.7451 14.4219 40.4111 14.1641C41.0843 13.8991 41.6608 13.5804 42.1406 13.208V11.21H38.499ZM47.6514 9.22266C47.6514 7.61849 47.8913 6.27214 48.3711 5.18359C48.7292 4.38151 49.2161 3.66178 49.832 3.02441C50.4551 2.38704 51.1354 1.91439 51.873 1.60645C52.8542 1.19108 53.9857 0.983398 55.2676 0.983398C57.5879 0.983398 59.4427 1.70312 60.832 3.14258C62.2285 4.58203 62.9268 6.58366 62.9268 9.14746C62.9268 11.6898 62.2357 13.6807 60.8535 15.1201C59.4714 16.5524 57.6237 17.2686 55.3105 17.2686C52.9688 17.2686 51.1068 16.556 49.7246 15.1309C48.3424 13.6986 47.6514 11.7292 47.6514 9.22266ZM50.9277 9.11523C50.9277 10.8984 51.3395 12.252 52.1631 13.1758C52.9867 14.0924 54.0322 14.5508 55.2998 14.5508C56.5674 14.5508 57.6058 14.096 58.415 13.1865C59.2314 12.2699 59.6396 10.8984 59.6396 9.07227C59.6396 7.26758 59.2422 5.92122 58.4473 5.0332C57.6595 4.14518 56.6104 3.70117 55.2998 3.70117C53.9893 3.70117 52.9329 4.15234 52.1309 5.05469C51.3288 5.94987 50.9277 7.30339 50.9277 9.11523Z" fill="black"/>
</svg>
