<svg width="417" height="308" viewBox="0 0 417 308" fill="none" xmlns="http://www.w3.org/2000/svg">
<g clip-path="url(#clip0)">
<path d="M169.18 199.854L91.398 252.027L14.793 137.173L92.5751 85.0013L169.18 199.854Z" fill="#F3F2F1"/>
<path d="M128.996 194.409L128.114 199.887L89.4473 194.301L90.3304 188.823L128.996 194.409Z" fill="#DADBD8"/>
<path d="M109.524 174.866L115.072 175.668L108.921 213.844L103.372 213.043L109.524 174.866Z" fill="#DADBD8"/>
<path d="M73.9086 126.342C73.964 126.426 66.1693 131.751 56.5011 138.237C46.829 144.724 38.9459 149.914 38.8909 149.831C38.8355 149.748 46.6286 144.423 56.3002 137.936C65.9686 131.45 73.8538 126.26 73.9086 126.342Z" fill="#DADBD8"/>
<path d="M102.514 119.142C102.569 119.225 89.6067 128.017 73.5658 138.776C57.5189 149.54 44.4698 158.195 44.4142 158.111C44.3587 158.029 57.3183 149.238 73.3648 138.476C89.4064 127.716 102.458 119.058 102.514 119.142Z" fill="#DADBD8"/>
<path d="M108.247 127.738C108.303 127.822 95.3404 136.613 79.2989 147.372C63.2523 158.136 50.2029 166.791 50.1476 166.708C50.0921 166.625 63.0517 157.835 79.0986 147.072C95.1394 136.312 108.191 127.655 108.247 127.738Z" fill="#DADBD8"/>
<path d="M113.981 136.335C114.036 136.418 101.074 145.21 85.0329 155.97C68.9857 166.733 55.9366 175.388 55.881 175.305C55.8258 175.222 68.7848 166.432 84.8319 155.669C100.873 144.909 113.925 136.252 113.981 136.335Z" fill="#DADBD8"/>
<path d="M119.715 144.932C119.77 145.015 106.808 153.807 90.7669 164.566C74.7198 175.329 61.6709 183.985 61.6154 183.901C61.5599 183.819 74.5195 175.029 90.5659 164.266C106.607 153.506 119.659 144.849 119.715 144.932Z" fill="#DADBD8"/>
<path d="M416.999 258.433L351.675 302.248L287.341 205.791L352.664 161.976L416.999 258.433Z" fill="#F3F2F1"/>
<path d="M383.251 253.859L382.51 258.461L350.037 253.769L350.779 249.168L383.251 253.859Z" fill="#DADBD8"/>
<path d="M366.899 237.447L371.558 238.119L366.391 270.181L361.731 269.509L366.899 237.447Z" fill="#DADBD8"/>
<path d="M336.987 196.696C337.042 196.779 330.504 201.262 322.384 206.708C314.261 212.157 307.633 216.505 307.577 216.421C307.522 216.338 314.06 211.855 322.183 206.407C330.302 200.961 336.931 196.612 336.987 196.696Z" fill="#DADBD8"/>
<path d="M361.01 190.648C361.065 190.731 350.187 198.125 336.715 207.161C323.238 216.201 312.272 223.46 312.217 223.375C312.162 223.293 323.038 215.9 336.514 206.861C349.987 197.825 360.955 190.564 361.01 190.648Z" fill="#DADBD8"/>
<path d="M365.826 197.868C365.881 197.951 355.001 205.345 341.53 214.381C328.053 223.421 317.087 230.678 317.031 230.595C316.977 230.513 327.852 223.12 341.33 214.08C354.801 205.044 365.77 197.784 365.826 197.868Z" fill="#DADBD8"/>
<path d="M370.641 205.088C370.696 205.171 359.817 212.565 346.345 221.601C332.869 230.641 321.902 237.898 321.847 237.815C321.791 237.733 332.668 230.34 346.145 221.3C359.616 212.264 370.585 205.004 370.641 205.088Z" fill="#DADBD8"/>
<path d="M375.456 212.307C375.512 212.39 364.633 219.784 351.161 228.821C337.685 237.86 326.719 245.118 326.663 245.035C326.607 244.952 337.484 237.56 350.96 228.52C364.432 219.484 375.401 212.224 375.456 212.307Z" fill="#DADBD8"/>
<path d="M193.19 194.456L121.916 156.23L178.044 50.9839L249.32 89.2103L193.19 194.456Z" fill="#F3F2F1"/>
<path d="M180.989 161.534L176.467 163.087L164.989 131.266L169.511 129.713L180.989 161.534Z" fill="#DADBD8"/>
<path d="M187.922 138.706L189.569 143.271L158.056 154.094L156.409 149.528L187.922 138.706Z" fill="#DADBD8"/>
<path d="M210.314 91.7559C210.258 91.8609 203.029 88.0924 194.169 83.3409C185.306 78.5881 178.169 74.6514 178.225 74.5464C178.28 74.4414 185.508 78.2092 194.371 82.9621C203.23 87.7142 210.37 91.6516 210.314 91.7559Z" fill="#DADBD8"/>
<path d="M227.417 110.687C227.361 110.792 215.397 104.485 200.698 96.6013C185.993 88.7146 174.122 82.2391 174.178 82.1349C174.233 82.0299 186.195 88.3365 200.9 96.2224C215.599 104.106 227.473 110.583 227.417 110.687Z" fill="#DADBD8"/>
<path d="M223.215 118.565C223.16 118.67 211.196 112.363 196.496 104.479C181.792 96.5933 169.921 90.1171 169.977 90.0121C170.032 89.9079 181.994 96.2137 196.699 104.1C211.397 111.984 223.271 118.461 223.215 118.565Z" fill="#DADBD8"/>
<path d="M219.014 126.443C218.959 126.548 206.995 120.241 192.296 112.357C177.591 104.47 165.72 97.9948 165.776 97.8898C165.832 97.7855 177.793 104.091 192.497 111.978C207.197 119.861 219.071 126.339 219.014 126.443Z" fill="#DADBD8"/>
<path d="M214.813 134.32C214.757 134.425 202.793 128.117 188.094 120.234C173.389 112.347 161.518 105.872 161.574 105.767C161.63 105.662 173.592 111.969 188.296 119.855C202.995 127.738 214.869 134.216 214.813 134.32Z" fill="#DADBD8"/>
<path d="M213.396 30.5747H215.187V-0.00087738H213.396V30.5747Z" fill="#C3C5C2"/>
<path d="M172.539 67.5618H256.044C256.044 67.5618 248.334 30.5553 213.659 30.5553C182.817 30.5553 172.539 67.5618 172.539 67.5618Z" fill="#002261"/>
<path d="M215.187 -0.000741959H213.396V30.5747H215.187V-0.000741959Z" fill="#002261"/>
<path d="M400.213 305.752C400.213 305.852 310.615 305.934 200.116 305.934C89.5786 305.934 0 305.852 0 305.752C0 305.653 89.5786 305.572 200.116 305.572C310.615 305.572 400.213 305.653 400.213 305.752Z" fill="#17282F"/>
<path d="M22.1495 262.217C24.4935 262.299 26.6933 263.576 28.2395 265.344C29.7854 267.113 30.7332 269.337 31.3392 271.608C32.5123 276.004 31.7914 281.192 30.5412 285.566C25.7957 283.865 22.869 278.79 21.546 276.122C19.4545 271.905 18.2281 263.01 22.1495 262.217Z" fill="#3563B7"/>
<path d="M37.3696 290.894C35.8721 288.738 35.837 285.74 37.0209 283.396C38.2044 281.052 40.4782 279.362 42.9827 278.59C44.1406 278.234 45.4845 278.084 46.4918 278.759C47.4333 279.39 47.8403 280.627 47.7187 281.757C47.5977 282.886 47.0266 283.919 46.354 284.832C44.0466 287.965 41.2402 290.573 37.3696 290.894Z" fill="#3563B7"/>
<path d="M37.8916 305.583C37.8685 305.586 37.7968 305.26 37.6793 304.67C37.5526 304.018 37.3881 303.175 37.1913 302.164C36.8168 300.058 36.2224 297.062 36.6719 293.75C37.1039 290.454 38.4128 287.635 39.7846 285.952C40.4602 285.1 41.1063 284.498 41.5848 284.127C41.8163 283.932 42.0205 283.812 42.1497 283.72C42.2823 283.633 42.3552 283.592 42.3617 283.601C42.4134 283.659 41.2523 284.377 39.9693 286.094C38.6695 287.782 37.4234 290.553 36.998 293.794C36.5555 297.038 37.1033 300.007 37.4201 302.125C37.5899 303.188 37.7269 304.05 37.8057 304.649C37.8846 305.247 37.9132 305.579 37.8916 305.583Z" fill="#17282F"/>
<path d="M23.6801 268.908C23.6906 268.903 23.7559 269.027 23.8712 269.268C23.9977 269.542 24.1599 269.892 24.36 270.327C24.7795 271.25 25.3692 272.592 26.0835 274.257C27.5133 277.587 29.4245 282.213 31.4194 287.37C33.4134 292.53 35.1134 297.24 36.2957 300.665C36.8873 302.378 37.3544 303.767 37.6648 304.732C37.8088 305.189 37.9253 305.557 38.0157 305.845C38.0926 306.1 38.1278 306.237 38.1169 306.241C38.1067 306.244 38.0503 306.115 37.9531 305.867C37.8476 305.584 37.7119 305.222 37.544 304.774C37.1835 303.783 36.6856 302.416 36.0766 300.743C34.8388 297.339 33.1055 292.645 31.1128 287.49C29.1193 282.337 27.2436 277.698 25.8694 274.348C25.194 272.7 24.6424 271.354 24.2428 270.378C24.0654 269.933 23.9222 269.574 23.8103 269.295C23.715 269.046 23.67 268.912 23.6801 268.908Z" fill="#17282F"/>
<path d="M32.2592 295.865C29.4604 291.089 24.2353 287.833 18.7265 287.433C17.3235 287.33 15.6363 287.567 15.0108 288.831C14.3839 290.096 15.222 291.593 16.1779 292.632C20.1543 296.951 26.8807 298.457 32.3112 296.243" fill="#3563B7"/>
<path d="M20.8623 291.199C20.864 291.176 21.1759 291.189 21.7408 291.232C22.0232 291.251 22.3695 291.276 22.7657 291.351C23.1605 291.424 23.6205 291.468 24.1099 291.604C24.6024 291.726 25.1464 291.847 25.7091 292.05C26.2829 292.22 26.8721 292.466 27.4911 292.729C28.714 293.286 30.0117 294.015 31.2467 294.962C32.4728 295.92 33.5088 296.992 34.3507 298.042C34.756 298.581 35.1424 299.09 35.4441 299.61C35.7774 300.108 36.025 300.609 36.2575 301.061C36.5067 301.505 36.6534 301.945 36.8159 302.314C36.9806 302.683 37.0826 303.016 37.1647 303.288C37.3328 303.831 37.4149 304.132 37.3932 304.139C37.3231 304.163 36.986 302.948 36.051 301.168C35.8081 300.729 35.5527 300.242 35.2145 299.756C34.9079 299.252 34.5186 298.757 34.1143 298.232C33.2729 297.209 32.2502 296.164 31.0457 295.223C29.8326 294.293 28.5632 293.569 27.3666 293.006C26.7606 292.74 26.1841 292.487 25.6219 292.309C25.0714 292.097 24.538 291.965 24.0549 291.831C22.1093 291.337 20.8551 291.27 20.8623 291.199Z" fill="#17282F"/>
<path d="M335.532 73.3223C333.494 73.7929 332.501 76.1446 332.308 78.2329C332.116 80.3219 332.381 82.5276 331.506 84.4331C330.521 86.5777 328.17 88.1585 328.091 90.5179C328.044 91.9569 328.896 93.3097 328.855 94.748C328.788 97.1115 326.385 98.8967 326.259 101.257C326.169 102.957 327.298 104.588 327.026 106.268C326.814 107.577 325.799 108.607 325.37 109.859C324.515 112.357 326.225 115.107 328.454 116.513C330.938 118.079 334.118 118.484 336.913 117.588C339.708 116.693 342.065 114.514 343.183 111.793C344.417 108.791 344.147 105.41 343.879 102.174C343.043 92.091 342.423 81.9896 342.017 71.8791" fill="#17282F"/>
<path d="M329.615 108.907C329.571 108.866 330.172 108.688 330.546 107.796C330.727 107.359 330.82 106.773 330.783 106.099C330.76 105.42 330.529 104.681 330.277 103.848C330.045 103.021 329.743 102.064 329.916 100.997C330.091 99.9148 330.863 99.0264 331.568 98.1525C331.922 97.7097 332.279 97.2502 332.504 96.7261C332.74 96.2082 332.79 95.6152 332.613 95.059C332.254 93.9232 331.144 93.0883 330.635 91.7765C330.383 91.1196 330.38 90.398 330.524 89.748C330.661 89.0917 330.926 88.4967 331.193 87.9287C331.736 86.797 332.333 85.7591 332.57 84.658C333.056 82.4529 332.83 80.348 333.161 78.6191C333.46 76.8867 334.19 75.584 334.913 74.9146C335.266 74.5684 335.607 74.3841 335.829 74.2604C336.066 74.1582 336.192 74.1109 336.196 74.1221C336.219 74.161 335.682 74.3264 335.013 75.014C334.344 75.6917 333.674 76.966 333.412 78.6615C333.275 79.5047 333.254 80.4529 333.219 81.4707C333.184 82.4877 333.152 83.5923 332.894 84.7338C332.653 85.8905 332.039 86.9694 331.513 88.081C330.991 89.1731 330.512 90.4536 330.973 91.6507C331.413 92.8338 332.53 93.6743 332.95 94.9527C333.155 95.5888 333.088 96.2937 332.82 96.8637C332.566 97.4435 332.188 97.9176 331.827 98.3625C331.101 99.2412 330.376 100.077 330.211 101.05C330.037 102.018 330.304 102.951 330.523 103.777C330.756 104.604 330.979 105.383 330.985 106.09C331.003 106.791 330.886 107.401 330.675 107.852C330.466 108.306 330.18 108.586 329.965 108.729C329.751 108.876 329.615 108.907 329.615 108.907Z" fill="#33535F"/>
<path d="M324.156 125.383L317.9 143.473L291.804 144.876L287.453 154.586L314.697 157.35C320.13 159.602 326.336 156.842 328.319 151.292L335.589 130.941L324.156 125.383Z" fill="#C0776A"/>
<path d="M378.132 295.93C378.132 295.93 359.009 235.02 358.603 233.043C358.236 231.256 365.543 187.424 366.463 176.08L340.624 177.046C340.624 177.046 340.623 177.115 340.622 177.235L329.639 177.846L339.476 302.415H351.367L350.187 261.087C357.52 280.827 368.027 300.943 368.027 300.943L378.132 295.93Z" fill="#C0776A"/>
<path d="M350.673 275.899C350.684 275.521 350.529 262.052 350.529 262.052C350.381 262.858 345.97 250.357 346.077 249.598C346.132 249.204 350.673 275.899 350.673 275.899Z" fill="#AC584F"/>
<path d="M345.575 243.679C345.547 243.679 345.522 243.947 345.498 244.434C345.472 244.921 345.467 245.627 345.514 246.499C345.531 246.936 345.576 247.412 345.632 247.923C345.698 248.433 345.767 248.979 345.885 249.546C346.1 250.683 346.433 251.913 346.857 253.175C347.72 255.694 348.673 257.899 349.35 259.498C349.67 260.227 349.945 260.855 350.177 261.381C350.38 261.822 350.504 262.062 350.529 262.052C350.555 262.042 350.479 261.783 350.319 261.323C350.161 260.864 349.917 260.204 349.608 259.393C348.997 257.767 348.086 255.546 347.231 253.049C346.812 251.798 346.473 250.59 346.242 249.474C346.116 248.918 346.035 248.381 345.958 247.88C345.888 247.378 345.827 246.91 345.793 246.479C345.711 245.619 345.673 244.918 345.652 244.433C345.628 243.948 345.602 243.679 345.575 243.679Z" fill="#AC584F"/>
<path d="M339.253 303.029L339.248 301.909L351.427 301.378L351.461 305.997L350.71 306.047C347.366 306.244 333.697 306.809 331.459 306.137C328.965 305.386 339.253 303.029 339.253 303.029Z" fill="#33535F"/>
<path d="M351.631 305.717C351.631 305.722 351.56 305.73 351.422 305.74C351.243 305.751 351.046 305.764 350.824 305.779C350.226 305.807 349.49 305.841 348.622 305.882C346.763 305.955 344.192 306.023 341.351 306.036C338.51 306.048 335.938 306.003 334.078 305.946C333.21 305.912 332.474 305.885 331.875 305.862C331.653 305.849 331.457 305.838 331.277 305.828C331.14 305.819 331.068 305.812 331.068 305.808C331.068 305.802 331.14 305.799 331.278 305.799C331.458 305.801 331.655 305.803 331.877 305.805C332.476 305.814 333.212 305.827 334.08 305.841C335.94 305.872 338.511 305.901 341.351 305.889C344.189 305.876 346.759 305.825 348.619 305.778C349.488 305.755 350.224 305.737 350.822 305.721C351.044 305.717 351.241 305.714 351.421 305.71C351.559 305.71 351.63 305.711 351.631 305.717Z" fill="#17282F"/>
<path d="M335.307 306.11C335.262 306.116 335.226 305.589 334.892 305.058C334.567 304.52 334.114 304.253 334.139 304.215C334.146 304.178 334.667 304.405 335.017 304.98C335.373 305.551 335.343 306.119 335.307 306.11Z" fill="#17282F"/>
<path d="M338.876 304.278C338.842 304.3 338.67 304.092 338.493 303.813C338.314 303.535 338.198 303.291 338.233 303.269C338.267 303.247 338.439 303.455 338.616 303.733C338.794 304.013 338.91 304.256 338.876 304.278Z" fill="#17282F"/>
<path d="M339.855 303.754C339.828 303.784 339.636 303.657 339.428 303.469C339.218 303.282 339.07 303.106 339.097 303.076C339.123 303.045 339.315 303.172 339.525 303.36C339.734 303.547 339.882 303.723 339.855 303.754Z" fill="#17282F"/>
<path d="M340.471 302.605C340.472 302.646 340.189 302.683 339.839 302.688C339.489 302.693 339.206 302.664 339.205 302.623C339.204 302.583 339.487 302.546 339.837 302.54C340.187 302.536 340.47 302.564 340.471 302.605Z" fill="#17282F"/>
<path d="M340.681 301.796C340.696 301.832 340.387 301.972 339.977 302.004C339.566 302.038 339.24 301.947 339.248 301.909C339.254 301.867 339.575 301.89 339.965 301.857C340.355 301.828 340.669 301.755 340.681 301.796Z" fill="#17282F"/>
<path d="M338.462 303.22C338.463 303.236 338.164 303.274 337.683 303.217C337.443 303.19 337.159 303.134 336.854 303.037C336.701 302.984 336.542 302.944 336.378 302.843C336.301 302.792 336.215 302.72 336.185 302.601C336.152 302.484 336.214 302.353 336.301 302.289C337.044 301.899 337.791 302.316 338.069 302.701C338.221 302.898 338.292 303.089 338.325 303.222C338.356 303.354 338.354 303.431 338.345 303.432C338.318 303.442 338.292 303.125 337.988 302.768C337.839 302.592 337.612 302.421 337.322 302.336C337.046 302.255 336.655 302.235 336.394 302.403C336.271 302.495 336.319 302.641 336.457 302.722C336.585 302.805 336.751 302.855 336.895 302.909C337.19 303.009 337.466 303.074 337.698 303.115C338.164 303.196 338.462 303.196 338.462 303.22Z" fill="#17282F"/>
<path d="M338.26 303.259C338.249 303.267 338.133 303.068 338.168 302.717C338.186 302.544 338.248 302.34 338.378 302.146C338.515 301.972 338.691 301.732 339.025 301.746C339.205 301.768 339.295 301.974 339.266 302.105C339.253 302.243 339.192 302.36 339.136 302.454C339.021 302.65 338.89 302.809 338.769 302.928C338.526 303.169 338.333 303.26 338.325 303.246C338.311 303.227 338.48 303.105 338.694 302.857C338.8 302.733 338.915 302.576 339.018 302.388C339.124 302.222 339.196 301.926 339 301.891C338.806 301.872 338.608 302.068 338.489 302.224C338.367 302.394 338.3 302.576 338.271 302.733C338.213 303.051 338.285 303.253 338.26 303.259Z" fill="#17282F"/>
<path d="M351.371 302.392C351.369 302.42 351.024 302.361 350.477 302.428C349.935 302.49 349.18 302.716 348.527 303.242C347.872 303.77 347.49 304.459 347.312 304.977C347.129 305.498 347.113 305.848 347.085 305.845C347.076 305.844 347.072 305.756 347.083 305.6C347.096 305.442 347.133 305.216 347.213 304.944C347.37 304.404 347.752 303.677 348.434 303.127C349.117 302.579 349.907 302.362 350.466 302.325C350.748 302.304 350.977 302.317 351.132 302.339C351.288 302.361 351.373 302.384 351.371 302.392Z" fill="#17282F"/>
<path d="M345.538 304.749C345.544 304.787 344.753 304.914 343.768 304.917C342.783 304.924 341.992 304.806 341.997 304.768C342.001 304.725 342.792 304.777 343.768 304.77C344.744 304.766 345.533 304.706 345.538 304.749Z" fill="#17282F"/>
<path d="M347.913 304.723C347.943 304.753 347.849 304.892 347.769 305.074C347.686 305.256 347.644 305.418 347.603 305.415C347.564 305.415 347.539 305.224 347.634 305.014C347.728 304.804 347.888 304.694 347.913 304.723Z" fill="#17282F"/>
<path d="M348.804 303.603C348.833 303.632 348.755 303.758 348.63 303.885C348.505 304.013 348.381 304.095 348.352 304.066C348.323 304.038 348.4 303.911 348.526 303.783C348.65 303.655 348.775 303.575 348.804 303.603Z" fill="#17282F"/>
<path d="M350.082 303.087C350.074 303.129 349.913 303.128 349.736 303.192C349.556 303.251 349.429 303.35 349.397 303.323C349.365 303.301 349.467 303.128 349.688 303.053C349.908 302.975 350.095 303.05 350.082 303.087Z" fill="#17282F"/>
<path d="M350.994 302.843C351.009 302.882 350.939 302.943 350.839 302.983C350.738 303.023 350.645 303.024 350.63 302.986C350.615 302.948 350.685 302.886 350.785 302.847C350.886 302.806 350.98 302.806 350.994 302.843Z" fill="#17282F"/>
<path d="M367.789 301.952L367.327 300.932L378.221 295.443L380.137 299.643L379.473 299.999C376.504 301.551 364.264 307.682 361.948 307.987C359.365 308.328 367.789 301.952 367.789 301.952Z" fill="#33535F"/>
<path d="M380.178 299.319C380.18 299.323 380.118 299.36 379.997 299.426C379.839 299.51 379.665 299.602 379.467 299.706C378.933 299.978 378.276 300.311 377.5 300.705C375.834 301.536 373.516 302.654 370.931 303.833C368.343 305.011 365.979 306.026 364.258 306.738C363.453 307.064 362.77 307.341 362.215 307.566C362.007 307.646 361.823 307.717 361.655 307.782C361.526 307.83 361.458 307.853 361.456 307.848C361.455 307.843 361.519 307.811 361.644 307.754C361.809 307.682 361.988 307.603 362.192 307.513C362.743 307.276 363.42 306.986 364.218 306.642C365.928 305.906 368.285 304.876 370.87 303.698C373.454 302.521 375.777 301.418 377.455 300.612C378.238 300.234 378.902 299.915 379.441 299.655C379.643 299.56 379.821 299.476 379.983 299.4C380.109 299.343 380.176 299.315 380.178 299.319Z" fill="#17282F"/>
<path d="M365.448 306.383C365.41 306.407 365.161 305.941 364.639 305.593C364.124 305.237 363.6 305.178 363.607 305.134C363.6 305.097 364.167 305.09 364.722 305.471C365.28 305.845 365.484 306.376 365.448 306.383Z" fill="#17282F"/>
<path d="M367.955 303.246C367.933 303.28 367.691 303.16 367.415 302.98C367.139 302.798 366.933 302.624 366.956 302.59C366.978 302.555 367.219 302.675 367.496 302.856C367.771 303.037 367.977 303.212 367.955 303.246Z" fill="#17282F"/>
<path d="M368.634 302.365C368.622 302.404 368.396 302.367 368.128 302.282C367.86 302.197 367.652 302.097 367.666 302.058C367.678 302.019 367.905 302.057 368.172 302.142C368.439 302.226 368.647 302.327 368.634 302.365Z" fill="#17282F"/>
<path d="M368.727 301.064C368.745 301.101 368.501 301.251 368.185 301.4C367.868 301.548 367.597 301.638 367.58 301.602C367.563 301.565 367.806 301.415 368.123 301.266C368.44 301.117 368.711 301.027 368.727 301.064Z" fill="#17282F"/>
<path d="M368.587 300.24C368.615 300.267 368.392 300.522 368.029 300.719C367.669 300.919 367.334 300.97 367.326 300.932C367.315 300.891 367.617 300.78 367.959 300.59C368.303 300.403 368.559 300.208 368.587 300.24Z" fill="#17282F"/>
<path d="M367.144 302.451C367.152 302.465 366.895 302.623 366.433 302.768C366.203 302.841 365.92 302.907 365.602 302.945C365.442 302.959 365.281 302.988 365.09 302.963C364.998 302.948 364.89 302.917 364.815 302.822C364.736 302.729 364.739 302.583 364.793 302.488C365.312 301.829 366.164 301.902 366.574 302.139C366.794 302.255 366.936 302.402 367.02 302.509C367.103 302.618 367.132 302.687 367.125 302.692C367.104 302.712 366.95 302.434 366.527 302.233C366.32 302.134 366.044 302.072 365.743 302.113C365.459 302.153 365.094 302.294 364.924 302.555C364.849 302.69 364.953 302.803 365.112 302.821C365.263 302.843 365.435 302.821 365.588 302.81C365.899 302.781 366.176 302.727 366.405 302.668C366.864 302.551 367.134 302.429 367.144 302.451Z" fill="#17282F"/>
<path d="M366.977 302.57C366.97 302.582 366.783 302.448 366.671 302.113C366.618 301.948 366.591 301.736 366.63 301.506C366.684 301.291 366.747 301 367.056 300.875C367.23 300.821 367.637 301.172 367.665 301.303C367.708 301.434 367.459 301.367 367.447 301.476C367.422 301.702 367.367 301.9 367.306 302.059C367.183 302.378 367.045 302.541 367.031 302.531C367.011 302.519 367.115 302.339 367.208 302.025C367.254 301.868 367.296 301.677 367.312 301.464C367.341 301.269 367.286 300.969 367.094 301.018C366.908 301.081 366.808 301.34 366.763 301.531C366.722 301.736 366.734 301.93 366.772 302.085C366.848 302.399 366.998 302.554 366.977 302.57Z" fill="#17282F"/>
<path d="M378.584 296.394C378.593 296.42 378.254 296.507 377.783 296.793C377.314 297.072 376.718 297.588 376.336 298.336C375.955 299.086 375.887 299.872 375.937 300.418C375.983 300.969 376.111 301.295 376.085 301.303C376.076 301.306 376.035 301.229 375.983 301.08C375.93 300.931 375.87 300.71 375.833 300.428C375.756 299.871 375.808 299.051 376.205 298.27C376.604 297.49 377.236 296.966 377.731 296.702C377.979 296.568 378.193 296.486 378.344 296.442C378.496 296.397 378.582 296.385 378.584 296.394Z" fill="#17282F"/>
<path d="M374.225 300.939C374.245 300.971 373.576 301.411 372.68 301.82C371.783 302.23 371.014 302.448 371.002 302.411C370.989 302.37 371.731 302.093 372.619 301.685C373.507 301.282 374.204 300.901 374.225 300.939Z" fill="#17282F"/>
<path d="M376.381 299.94C376.42 299.954 376.391 300.12 376.393 300.318C376.391 300.518 376.42 300.683 376.381 300.698C376.345 300.714 376.245 300.549 376.245 300.318C376.245 300.088 376.344 299.924 376.381 299.94Z" fill="#17282F"/>
<path d="M376.737 298.551C376.775 298.566 376.756 298.713 376.694 298.882C376.633 299.049 376.55 299.174 376.513 299.16C376.475 299.147 376.493 298.999 376.555 298.83C376.617 298.662 376.699 298.538 376.737 298.551Z" fill="#17282F"/>
<path d="M377.692 297.556C377.701 297.597 377.554 297.663 377.417 297.794C377.278 297.921 377.204 298.064 377.163 298.052C377.124 298.046 377.146 297.845 377.317 297.687C377.487 297.525 377.687 297.517 377.692 297.556Z" fill="#17282F"/>
<path d="M378.424 296.959C378.453 296.988 378.415 297.073 378.338 297.151C378.263 297.228 378.179 297.267 378.149 297.239C378.12 297.21 378.158 297.125 378.234 297.048C378.309 296.97 378.395 296.931 378.424 296.959Z" fill="#17282F"/>
<path d="M364.788 155.463L362.76 130.647L373.177 130.834C373.177 130.834 373.66 127.175 372.125 119.149C371.184 114.227 367.915 111.208 364.249 109.415L364.25 109.349L363.933 109.266C359.271 107.078 354.391 106.769 354.391 106.769L341.603 106.917C341.603 106.917 331.834 105.695 326.427 112.679C324.344 115.368 317.899 133.78 317.899 133.78L333.248 141.194L331.787 130.984C331.787 130.984 332.078 138.386 333.02 140.731C333.544 142.038 335.065 146.095 335.065 146.095L334.866 158.341L364.788 155.463Z" fill="#002261"/>
<path d="M357.732 127.045L355.835 135.155H373.741L372.563 121.559L357.732 127.045Z" fill="#002261"/>
<path d="M373.742 135.155C373.743 135.102 372.838 135.006 371.371 134.919C369.903 134.833 367.873 134.76 365.628 134.771C363.384 134.782 361.353 134.879 359.886 134.996C358.42 135.112 357.518 135.236 357.522 135.288C357.527 135.345 358.435 135.32 359.902 135.275C361.368 135.231 363.393 135.177 365.63 135.166C367.868 135.156 369.893 135.185 371.361 135.2C372.829 135.215 373.739 135.211 373.742 135.155Z" fill="#17282F"/>
<path d="M356.961 121.492C356.907 121.494 356.888 122.283 356.902 123.555C356.915 124.828 356.961 126.584 357.036 128.524C357.111 130.463 357.201 132.219 357.286 133.489C357.37 134.758 357.451 135.542 357.506 135.54C357.56 135.538 357.578 134.75 357.565 133.477C357.551 132.205 357.506 130.448 357.431 128.508C357.356 126.569 357.266 124.814 357.18 123.544C357.096 122.275 357.016 121.491 356.961 121.492Z" fill="#17282F"/>
<path d="M355.4 157.34C354.392 157.34 353.443 157.091 352.553 156.64L360.781 155.849C358.68 157.29 355.835 157.325 355.835 157.325C355.689 157.335 355.544 157.34 355.4 157.34Z" fill="#A7A9A8"/>
<path d="M352.553 156.639C343.856 152.233 340.667 128.516 340.667 128.516L362.491 152.585V153.907C362.089 154.741 361.476 155.371 360.781 155.848L352.553 156.639Z" fill="#BA2C42"/>
<path d="M356.206 140.289L354.819 137.743L356.902 123.634C356.917 124.899 356.963 126.624 357.036 128.524C357.053 128.959 357.071 129.384 357.089 129.797L355.836 135.155H357.425C357.455 135.404 357.483 135.54 357.505 135.54H357.506C357.523 135.539 357.537 135.456 357.547 135.301C357.601 135.315 357.743 135.321 357.962 135.321C358.104 135.321 358.281 135.318 358.487 135.314L356.206 140.289Z" fill="#BA2C42"/>
<path d="M357.424 135.155H355.835L357.088 129.797C357.151 131.227 357.22 132.504 357.285 133.489C357.335 134.229 357.382 134.805 357.424 135.155Z" fill="#BA2C42"/>
<path d="M357.961 135.321C357.742 135.321 357.6 135.315 357.547 135.301C357.547 135.297 357.547 135.293 357.548 135.288L358.488 135.311L358.487 135.314C358.28 135.318 358.104 135.321 357.961 135.321Z" fill="#0F191D"/>
<path d="M357.505 135.54C357.483 135.54 357.455 135.404 357.425 135.155C357.383 134.805 357.336 134.229 357.286 133.489C357.221 132.504 357.151 131.227 357.089 129.797C357.071 129.384 357.053 128.959 357.036 128.524C356.963 126.624 356.917 124.899 356.902 123.634L356.961 123.236L357.523 135.288H357.548C357.547 135.293 357.547 135.297 357.547 135.302C357.537 135.457 357.523 135.539 357.505 135.54H357.505Z" fill="#0F191D"/>
<path d="M335.064 146.095C335.04 146.104 334.934 145.857 334.762 145.403C334.588 144.95 334.357 144.286 334.089 143.46C333.555 141.809 332.894 139.497 332.377 136.894C331.862 134.289 331.61 131.894 331.528 130.157C331.486 129.289 331.474 128.586 331.486 128.1C331.496 127.614 331.514 127.346 331.539 127.345C331.596 127.345 331.634 128.417 331.783 130.14C331.93 131.863 332.219 134.235 332.73 136.824C333.245 139.411 333.862 141.721 334.334 143.386C334.554 144.159 334.741 144.817 334.895 145.358C335.026 145.826 335.088 146.088 335.064 146.095Z" fill="#17282F"/>
<path d="M339.588 154.599C339.492 154.628 339.216 153.99 338.97 153.173C338.724 152.357 338.601 151.671 338.697 151.642C338.792 151.613 339.069 152.252 339.315 153.068C339.562 153.885 339.684 154.57 339.588 154.599Z" fill="#17282F"/>
<path d="M341.134 154.486C341.043 154.51 340.74 153.552 340.726 152.323C340.704 151.095 340.978 150.128 341.071 150.149C341.174 150.168 341.065 151.132 341.086 152.318C341.1 153.503 341.237 154.465 341.134 154.486Z" fill="#17282F"/>
<path d="M333.56 141.532C333.516 141.622 329.944 139.922 325.583 137.738C321.22 135.551 317.721 133.707 317.766 133.618C317.81 133.528 321.382 135.227 325.744 137.414C330.104 139.599 333.604 141.444 333.56 141.532Z" fill="#17282F"/>
<path d="M339.855 109.316C339.934 105.799 339.954 102.096 339.954 102.096C339.954 102.096 335.456 101.227 334.672 95.2913C333.925 89.6313 336.016 76.3501 336.016 76.3501C342.586 73.8594 349.414 76.1173 353.916 81.4561L352.798 110.009C352.668 113.324 349.723 115.852 346.185 115.686C342.611 115.518 339.778 112.668 339.855 109.316Z" fill="#C0776A"/>
<path d="M335.674 86.9647C335.649 87.3644 335.967 87.7155 336.383 87.7482C336.799 87.7815 337.155 87.4847 337.179 87.085C337.204 86.6853 336.887 86.3342 336.471 86.3008C336.055 86.2675 335.698 86.565 335.674 86.9647Z" fill="#17282F"/>
<path d="M335.392 85.9685C335.483 86.07 336.067 85.6592 336.88 85.6828C337.693 85.6946 338.279 86.1298 338.37 86.0318C338.415 85.9887 338.324 85.8079 338.069 85.6112C337.817 85.4158 337.385 85.2205 336.879 85.2101C336.372 85.1989 335.941 85.3755 335.691 85.5604C335.437 85.7461 335.347 85.9226 335.392 85.9685Z" fill="#17282F"/>
<path d="M343.927 87.48C343.903 87.8797 344.22 88.2301 344.636 88.2641C345.051 88.2968 345.409 88.0007 345.433 87.6003C345.458 87.2005 345.14 86.8495 344.724 86.8161C344.309 86.7827 343.951 87.0803 343.927 87.48Z" fill="#17282F"/>
<path d="M343.871 86.4844C343.963 86.5859 344.547 86.1757 345.36 86.1987C346.172 86.2105 346.759 86.6456 346.85 86.5483C346.894 86.5045 346.804 86.3245 346.548 86.1278C346.297 85.9317 345.866 85.7371 345.358 85.726C344.852 85.7155 344.421 85.8914 344.171 86.077C343.917 86.2626 343.826 86.4392 343.871 86.4844Z" fill="#17282F"/>
<path d="M340.764 92.4572C340.769 92.4113 340.266 92.3105 339.449 92.1847C339.242 92.1576 339.046 92.111 339.015 91.9678C338.969 91.8163 339.062 91.5938 339.17 91.354C339.378 90.8555 339.596 90.3321 339.825 89.7843C340.736 87.5479 341.401 85.7071 341.31 85.671C341.22 85.6348 340.409 87.4179 339.497 89.6543C339.278 90.2063 339.068 90.7318 338.869 91.2344C338.783 91.4694 338.641 91.7342 338.739 92.0491C338.792 92.2062 338.941 92.323 339.073 92.3627C339.205 92.4071 339.322 92.412 339.425 92.421C340.248 92.4871 340.759 92.5038 340.764 92.4572Z" fill="#17282F"/>
<path d="M339.953 102.096C339.953 102.096 343.912 102.455 347.902 100.188C347.902 100.188 345.882 104.199 339.998 103.494L339.953 102.096Z" fill="#AC584F"/>
<path d="M346.475 84.1313C346.308 84.3864 345.69 84.2731 344.997 84.148C344.306 84.0082 343.689 83.8852 343.628 83.5863C343.559 83.2999 344.275 82.9036 345.2 83.0809C346.125 83.2568 346.644 83.89 346.475 84.1313Z" fill="#17282F"/>
<path d="M338.388 82.9342C338.325 83.231 337.662 83.3395 336.899 83.3791C336.134 83.4104 335.465 83.3631 335.375 83.0725C335.283 82.7917 335.929 82.335 336.849 82.294C337.768 82.2502 338.453 82.6457 338.388 82.9342Z" fill="#17282F"/>
<path d="M340.777 94.4099C340.605 94.3626 340.413 94.4599 340.327 94.6163C340.224 94.8019 340.271 95.0578 340.433 95.1947C340.595 95.3317 340.854 95.3351 341.019 95.203C341.186 95.0703 341.239 94.8165 341.142 94.6275C341.045 94.4391 340.807 94.3362 340.603 94.3953" fill="#AC584F"/>
<path d="M340.967 94.4902C341.004 94.4576 340.838 94.2573 340.482 94.3345C340.318 94.3714 340.103 94.5194 340.037 94.7718C339.972 95.0095 340.031 95.3182 340.282 95.5107C340.542 95.695 340.855 95.6567 341.062 95.5156C341.283 95.3696 341.346 95.1027 341.312 94.9358C341.24 94.5695 340.97 94.5111 340.962 94.5625C340.932 94.6084 341.057 94.7349 341.033 94.9518C341.02 95.0582 340.971 95.1569 340.868 95.207C340.767 95.2626 340.608 95.2619 340.517 95.1917C340.421 95.1242 340.372 94.972 340.392 94.8552C340.406 94.7391 340.484 94.6515 340.578 94.598C340.771 94.4888 340.942 94.5403 340.967 94.4902Z" fill="#17282F"/>
<path d="M351.191 88.4298C350.49 90.0592 348.779 91.3147 349.016 93.0735C349.169 94.2094 349.895 95.2681 349.754 96.4047C349.577 97.8333 348.097 98.8232 347.889 100.246C347.631 101.992 349.325 103.349 350.001 104.979C350.986 107.352 349.726 110.02 349.696 112.59C349.651 116.527 352.99 120.204 356.902 120.528C358.485 120.658 360.267 120.179 361.088 118.816C361.765 117.691 361.629 116.262 362.036 115.013C362.64 113.152 364.408 111.791 364.781 109.87C365.461 106.369 361.24 103.471 361.518 99.9146C361.637 98.3957 362.572 97.07 362.971 95.599C363.491 93.672 363.014 91.5017 361.732 89.9737C360.691 88.7315 359.18 87.9147 358.293 86.5577C357.287 85.0186 357.252 83.0673 356.873 81.2668C355.949 76.8803 352.663 73.0687 348.469 71.5171C344.273 69.9655 339.307 70.7246 335.763 73.4594C335.763 73.4594 334.755 78.0412 339.445 78.8073C344.135 79.5734 346.308 78.6891 346.837 80.5744C346.837 80.5744 346.303 82.7767 348.241 84.8796C350.181 86.9831 352.003 86.5431 351.191 88.4298Z" fill="#17282F"/>
<path d="M358.675 120.208C358.673 120.22 358.526 120.204 358.247 120.162C357.968 120.119 357.559 120.026 357.054 119.84C356.052 119.473 354.634 118.673 353.425 117.146C352.825 116.39 352.262 115.471 351.883 114.392C351.494 113.32 351.273 112.104 351.252 110.823C351.222 109.542 351.404 108.199 351.752 106.854C351.926 106.18 352.152 105.51 352.416 104.843C352.675 104.174 352.994 103.528 353.177 102.846C353.374 102.165 353.347 101.47 353.17 100.807C352.989 100.143 352.681 99.5201 352.381 98.9035C352.079 98.2876 351.772 97.673 351.573 97.0196C351.372 96.3717 351.297 95.673 351.428 95.0217C351.704 93.712 352.497 92.7429 352.965 91.7488C353.461 90.7631 353.616 89.7224 353.593 88.7874C353.509 86.8938 352.704 85.4938 352.048 84.6867C351.362 83.8782 350.843 83.5709 350.869 83.5369C350.869 83.5369 351.419 83.7968 352.154 84.5949C352.858 85.3916 353.727 86.8111 353.848 88.7763C353.889 89.7447 353.742 90.8417 353.235 91.8795C352.757 92.9105 351.991 93.8865 351.755 95.0849C351.511 96.2924 352.081 97.5361 352.699 98.7464C353.001 99.3637 353.321 100.003 353.516 100.712C353.711 101.417 353.739 102.213 353.525 102.94C353.328 103.669 353.003 104.322 352.749 104.976C352.49 105.63 352.267 106.287 352.094 106.945C351.748 108.26 351.564 109.571 351.585 110.819C351.593 113.324 352.451 115.515 353.625 116.988C354.777 118.495 356.138 119.308 357.106 119.708C358.087 120.107 358.684 120.167 358.675 120.208Z" fill="#33535F"/>
<path d="M357.984 85.1289C357.986 85.1518 357.621 85.2179 356.951 85.2832C356.284 85.3388 355.299 85.416 354.096 85.2081C352.921 84.9926 351.434 84.4136 350.493 83.0156C350.031 82.3142 349.848 81.4654 349.548 80.6819C349.265 79.8894 348.718 79.2033 347.968 78.7278C346.452 77.7643 344.667 77.6454 343.106 77.455C341.538 77.2777 340.064 76.944 339.066 76.1925C338.06 75.4751 337.545 74.5429 337.412 73.8714C337.337 73.5356 337.343 73.2652 337.358 73.0879C337.383 72.9093 337.403 72.8182 337.415 72.8196C337.459 72.8203 337.367 73.2019 337.549 73.8373C337.716 74.4657 338.237 75.325 339.213 75.9833C340.174 76.6659 341.583 76.9649 343.146 77.1234C344.692 77.2985 346.54 77.3952 348.165 78.424C348.966 78.9252 349.587 79.7128 349.878 80.554C350.186 81.3812 350.359 82.196 350.773 82.8348C351.618 84.1285 353.016 84.7201 354.145 84.9565C355.303 85.1908 356.278 85.1546 356.943 85.1428C357.61 85.1212 357.981 85.1025 357.984 85.1289Z" fill="#33535F"/>
<path d="M356.265 79.4674C356.269 79.4855 355.985 79.5738 355.452 79.5877C354.924 79.6023 354.133 79.5084 353.264 79.0934C352.83 78.887 352.385 78.5908 351.976 78.1953C351.56 77.8018 351.219 77.293 350.9 76.7563C350.275 75.6989 349.674 74.3948 348.377 73.8554C347.107 73.3097 345.708 73.4313 344.493 73.5133C343.266 73.635 342.116 73.6704 341.178 73.4855C340.234 73.3208 339.526 72.9287 339.133 72.5658C338.934 72.3858 338.799 72.2259 338.725 72.107C338.647 71.9895 338.612 71.9263 338.622 71.9186C338.651 71.8964 338.816 72.1425 339.223 72.4567C339.626 72.7702 340.308 73.106 341.221 73.2332C342.134 73.3792 343.232 73.3208 344.465 73.1811C345.686 73.0844 347.127 72.9308 348.524 73.5245C349.214 73.8192 349.778 74.3392 350.178 74.903C350.586 75.4667 350.879 76.0563 351.187 76.5881C351.493 77.1199 351.807 77.6065 352.186 77.9819C352.561 78.3614 352.973 78.6541 353.378 78.8647C354.191 79.2874 354.943 79.4188 355.456 79.4466C355.971 79.4765 356.26 79.4362 356.265 79.4674Z" fill="#33535F"/>
<path d="M360.744 118.708C360.708 118.692 360.929 118.245 361.184 117.389C361.439 116.536 361.691 115.253 361.646 113.663C361.592 112.082 361.213 110.17 360.169 108.354C359.661 107.444 358.891 106.633 358.263 105.633C357.951 105.134 357.683 104.574 357.565 103.955C357.449 103.335 357.519 102.676 357.718 102.079C358.107 100.879 358.804 99.8672 358.954 98.764C359.139 97.6573 358.581 96.6479 358.054 95.7504C357.787 95.293 357.519 94.8411 357.311 94.3684C357.104 93.8957 356.972 93.398 356.92 92.9169C356.814 91.9507 356.927 91.0629 356.998 90.2663C357.198 88.6785 357.051 87.3737 356.67 86.5722C356.299 85.7602 355.815 85.5169 355.852 85.4842L355.935 85.5238C355.986 85.5572 356.067 85.601 356.156 85.6824C356.341 85.8332 356.588 86.1008 356.796 86.5103C357.234 87.3223 357.423 88.6862 357.252 90.2878C357.196 91.088 357.103 91.9653 357.216 92.8801C357.309 93.804 357.784 94.6764 358.34 95.5801C358.61 96.0382 358.895 96.5158 359.095 97.0573C359.3 97.5954 359.393 98.2099 359.303 98.8126C359.135 100.028 358.421 101.057 358.062 102.188C357.876 102.751 357.817 103.331 357.918 103.889C358.023 104.446 358.267 104.966 358.564 105.446C359.158 106.407 359.933 107.234 360.457 108.188C361.521 110.075 361.879 112.042 361.902 113.656C361.914 115.282 361.617 116.58 361.319 117.431C361.163 117.856 361.033 118.181 360.92 118.391C360.815 118.605 360.755 118.713 360.744 118.708Z" fill="#33535F"/>
<path d="M332.506 248.235C332.506 248.235 327.838 203.853 327.569 187.455C327.301 171.055 334.922 154.875 334.922 154.875L364.788 153.608C364.788 153.608 370.691 170.247 370.797 177.236C371.002 190.819 367.197 204.232 367.636 215.006L368.634 248.235" fill="#17282F"/>
<path d="M369.635 193.675C369.641 193.685 369.471 193.813 369.147 194.044C369.064 194.104 368.973 194.168 368.875 194.237C368.781 194.317 368.69 194.416 368.586 194.517C368.376 194.719 368.132 194.948 367.92 195.264C366.956 196.449 366.252 198.564 365.584 201.205C365.215 202.516 364.842 203.987 364.072 205.426C363.866 205.778 363.681 206.151 363.409 206.478C363.279 206.644 363.161 206.824 363.019 206.984L362.559 207.444C361.935 208.06 361.146 208.523 360.313 208.89C358.641 209.624 356.754 209.973 355.029 210.84C353.294 211.688 351.994 213.33 351.197 215.222C350.356 217.106 349.846 219.084 349.144 220.93C348.455 222.762 347.517 224.545 346.027 225.671C344.548 226.838 342.721 227.105 341.139 227.207C339.531 227.301 338.042 227.255 336.707 227.458C335.376 227.643 334.197 228.066 333.364 228.723C332.527 229.382 332.039 230.208 331.81 230.916C331.573 231.632 331.616 232.236 331.694 232.621C331.772 233.011 331.881 233.198 331.857 233.208C331.857 233.208 331.726 233.032 331.624 232.638C331.519 232.249 331.451 231.624 331.676 230.875C331.893 230.134 332.379 229.268 333.238 228.564C334.099 227.861 335.312 227.41 336.668 227.205C338.028 226.982 339.534 227.014 341.119 226.908C342.686 226.794 344.434 226.518 345.824 225.405C347.232 224.332 348.137 222.617 348.814 220.803C349.503 218.979 350.01 216.998 350.868 215.073C351.673 213.149 353.052 211.401 354.87 210.524C356.663 209.631 358.551 209.294 360.181 208.583C360.992 208.231 361.747 207.793 362.343 207.212L362.784 206.776C362.922 206.624 363.035 206.452 363.161 206.293C363.424 205.983 363.606 205.622 363.809 205.284C364.568 203.894 364.955 202.439 365.338 201.136C366.036 198.51 366.789 196.36 367.81 195.177C368.034 194.862 368.292 194.635 368.514 194.438C368.624 194.34 368.72 194.242 368.819 194.166C368.922 194.101 369.018 194.04 369.105 193.985C369.447 193.77 369.628 193.663 369.635 193.675Z" fill="#FAFAF9"/>
<path d="M369.818 173.136C369.83 173.136 369.844 173.339 369.857 173.731C369.863 174.121 369.816 174.701 369.649 175.429C369.303 176.876 368.249 178.863 366.276 180.66C365.301 181.563 364.124 182.436 362.778 183.223C361.44 184.019 359.964 184.776 358.451 185.633C356.944 186.493 355.39 187.465 354.024 188.755C352.641 190.03 351.604 191.706 350.671 193.48C349.729 195.252 348.894 197.056 347.764 198.617C347.203 199.397 346.57 200.11 345.869 200.719C345.163 201.325 344.395 201.817 343.615 202.225C342.048 203.04 340.452 203.544 338.974 204.009C337.492 204.468 336.109 204.875 334.901 205.383C333.691 205.884 332.642 206.45 331.795 207.052C330.947 207.653 330.302 208.284 329.845 208.855C328.921 210.001 328.727 210.832 328.675 210.804C328.663 210.801 328.729 210.607 328.867 210.241C329.028 209.886 329.276 209.357 329.734 208.768C330.183 208.174 330.826 207.515 331.677 206.887C332.527 206.26 333.584 205.67 334.802 205.147C336.021 204.618 337.41 204.194 338.883 203.722C340.355 203.247 341.932 202.735 343.46 201.93C344.221 201.526 344.965 201.044 345.644 200.457C346.319 199.865 346.931 199.174 347.477 198.41C348.578 196.883 349.405 195.093 350.353 193.31C351.289 191.528 352.356 189.804 353.782 188.498C355.186 187.178 356.768 186.2 358.288 185.343C359.814 184.489 361.293 183.743 362.627 182.963C363.966 182.196 365.132 181.349 366.104 180.472C368.068 178.724 369.131 176.802 369.514 175.393C369.887 173.97 369.762 173.133 369.818 173.136Z" fill="#FAFAF9"/>
<path d="M327.721 189.805C327.715 189.807 327.694 189.762 327.66 189.67C327.63 189.577 327.566 189.444 327.526 189.256C327.441 188.885 327.388 188.298 327.595 187.59C327.981 186.174 329.514 184.414 331.985 183.531C333.215 183.107 334.609 182.852 336.062 182.471C337.499 182.082 339.064 181.538 340.233 180.334C340.813 179.739 341.304 179.032 341.712 178.254C342.11 177.469 342.438 176.626 342.748 175.757C343.369 174.023 343.891 172.138 344.946 170.426C345.993 168.7 347.701 167.501 349.468 166.9C351.23 166.251 353.007 165.963 354.656 165.582C356.31 165.221 357.856 164.754 359.168 164.041C360.461 163.304 361.492 162.323 362.221 161.283C363.717 159.198 364.108 157.062 364.161 155.652C364.194 154.218 363.967 153.437 364.014 153.43C364.014 153.43 364.291 154.198 364.302 155.655C364.291 157.087 363.935 159.274 362.429 161.431C361.694 162.507 360.646 163.529 359.314 164.303C357.969 165.05 356.391 165.535 354.73 165.907C353.073 166.299 351.306 166.594 349.591 167.233C347.865 167.828 346.261 168.964 345.251 170.618C344.233 172.268 343.71 174.131 343.081 175.876C342.767 176.751 342.431 177.609 342.018 178.414C341.595 179.214 341.08 179.951 340.468 180.571C339.226 181.834 337.591 182.381 336.138 182.761C334.664 183.134 333.278 183.373 332.065 183.774C329.662 184.596 328.136 186.284 327.73 187.632C327.51 188.307 327.537 188.874 327.597 189.242C327.674 189.608 327.737 189.8 327.721 189.805Z" fill="#FAFAF9"/>
<path d="M367.249 227.332C367.262 227.33 367.278 227.48 367.298 227.768C367.314 228.055 367.292 228.485 367.17 229.022C366.926 230.094 366.101 231.559 364.55 232.778C363.786 233.396 362.862 233.962 361.801 234.415C360.743 234.87 359.572 235.23 358.349 235.612C357.129 235.994 355.847 236.395 354.6 236.985C353.346 237.561 352.187 238.405 351.188 239.48C350.177 240.543 349.305 241.704 348.337 242.728C347.372 243.758 346.277 244.607 345.142 245.235C342.861 246.498 340.496 246.932 338.549 246.953C336.589 246.976 335.032 246.562 334.012 246.198C333.497 246.018 333.114 245.838 332.861 245.703C332.605 245.574 332.473 245.503 332.479 245.491C332.484 245.48 332.626 245.531 332.891 245.637C333.152 245.749 333.541 245.907 334.057 246.064C335.08 246.384 336.621 246.751 338.545 246.698C340.455 246.643 342.765 246.192 344.979 244.944C346.084 244.322 347.138 243.497 348.079 242.484C349.027 241.476 349.896 240.315 350.927 239.23C351.943 238.133 353.164 237.247 354.449 236.664C355.729 236.064 357.027 235.667 358.252 235.293C359.477 234.92 360.642 234.573 361.685 234.139C362.725 233.709 363.636 233.167 364.391 232.577C365.925 231.411 366.754 230.017 367.034 228.987C367.308 227.946 367.199 227.33 367.249 227.332Z" fill="#FAFAF9"/>
<path d="M363.846 135.184L358.071 135.321C357.692 137.271 356.765 138.606 356.765 138.606C351.936 130.2 348.192 118.938 347.263 114.412C347.399 113.96 347.559 113.46 347.759 112.9C347.99 112.255 347.792 111.034 347.683 110.355C347.521 109.348 347.24 107.992 347.155 107.364C346.898 105.452 346.591 105.151 345.926 105.367C345.021 105.661 346.296 110.739 345.555 110.849C345.156 110.908 344.669 109.169 344.528 107.741C344.387 106.314 343.743 101.924 343.272 101.632C342.583 101.203 341.982 101.881 342.156 103.302C342.332 104.741 342.554 109.03 341.802 109.089C341.061 109.146 340.44 101.867 340.44 101.867C340.44 101.867 340.557 100.284 339.686 100.321C338.115 100.39 339.343 108.063 339.477 108.79C339.571 109.296 338.755 109.388 338.683 108.84C338.609 108.275 338.23 101.561 336.631 101.615C335.403 101.657 337.581 107.938 336.892 109.394C336.203 110.85 335.725 104.449 334.553 104.537C334.117 104.57 333.794 104.656 334.596 108.278C335.027 110.225 336.292 113.805 337.398 116.769C339.255 126.815 347.406 158.949 360.184 153.067C367.334 149.775 370.236 135.187 370.236 135.187L363.846 135.184Z" fill="#C0776A"/>
<path d="M339.203 109.282C339.203 109.282 339.262 109.294 339.371 109.259C339.468 109.23 339.661 109.107 339.631 108.858C339.615 108.427 339.547 107.798 339.448 106.986C339.373 106.167 339.129 105.186 339.129 104.023C339.119 103.442 339.134 102.816 339.167 102.153C339.189 101.821 339.195 101.477 339.268 101.152C339.323 100.837 339.533 100.477 339.775 100.52L339.802 100.525L339.814 100.524C340.06 100.513 340.253 100.705 340.332 100.999C340.419 101.282 340.441 101.614 340.423 101.93L340.422 101.944L340.424 101.953C340.585 103.731 340.76 105.678 341.164 107.757C341.221 108.016 341.278 108.278 341.359 108.541C341.398 108.673 341.445 108.806 341.503 108.94C341.54 109.008 341.564 109.074 341.621 109.146C341.67 109.207 341.732 109.312 341.91 109.328C342.198 109.307 342.281 109.088 342.346 108.963C342.408 108.819 342.447 108.677 342.476 108.536C342.536 108.253 342.566 107.971 342.587 107.687C342.664 106.554 342.624 105.396 342.541 104.21C342.514 103.611 342.367 103.012 342.469 102.469C342.517 102.201 342.628 101.932 342.81 101.82C342.898 101.766 342.999 101.754 343.108 101.782L343.273 101.854C343.318 101.898 343.308 101.878 343.35 101.957C343.581 102.454 343.7 103.102 343.83 103.704C343.953 104.319 344.059 104.946 344.158 105.58C344.255 106.214 344.344 106.856 344.42 107.502C344.482 108.148 344.575 108.826 344.739 109.479C344.823 109.808 344.915 110.136 345.052 110.461C345.122 110.625 345.196 110.787 345.338 110.953C345.389 111.024 345.551 111.157 345.753 111.104C345.948 111.039 346.004 110.883 346.036 110.792C346.148 110.393 346.115 110.06 346.109 109.711C346.095 109.366 346.066 109.024 346.037 108.684C345.987 108.099 345.932 107.519 345.912 106.948C345.903 106.664 345.902 106.38 345.932 106.112C345.95 105.981 345.972 105.847 346.016 105.75L346.084 105.646L346.111 105.629L346.2 105.603C346.66 105.412 346.813 106.054 346.936 106.571C347.042 107.11 347.11 107.668 347.218 108.216C347.401 109.311 347.633 110.399 347.755 111.444C347.806 111.963 347.842 112.502 347.694 112.941C347.53 113.444 347.368 113.941 347.207 114.432L347.193 114.477L347.203 114.523C348.048 118.261 349.219 121.606 350.305 124.575C351.403 127.541 352.5 130.105 353.468 132.201C354.434 134.299 355.3 135.916 355.899 137.019C356.202 137.542 356.442 137.955 356.62 138.262C356.787 138.542 356.878 138.685 356.888 138.68C356.898 138.674 356.824 138.521 356.674 138.23C356.509 137.917 356.288 137.495 356.007 136.961C355.443 135.841 354.611 134.212 353.677 132.105C352.74 130.001 351.672 127.432 350.601 124.466C349.54 121.5 348.389 118.146 347.568 114.448L347.564 114.539C347.723 114.055 347.886 113.564 348.049 113.068C348.236 112.501 348.181 111.947 348.134 111.405C348.01 110.317 347.783 109.262 347.603 108.161C347.496 107.617 347.431 107.059 347.318 106.489C347.253 106.206 347.191 105.918 347.035 105.629C346.961 105.488 346.845 105.328 346.653 105.242C346.459 105.158 346.262 105.182 346.106 105.22L345.989 105.253L345.832 105.342C345.744 105.42 345.693 105.508 345.657 105.59C345.584 105.756 345.563 105.911 345.542 106.064C345.507 106.37 345.509 106.666 345.518 106.961C345.538 107.551 345.594 108.134 345.643 108.717C345.672 109.057 345.7 109.395 345.715 109.728C345.727 110.053 345.738 110.411 345.664 110.662C345.646 110.735 345.612 110.721 345.652 110.757L345.653 110.76L345.657 110.786L345.656 110.778L345.658 110.755L345.668 110.722L345.626 110.684C345.551 110.596 345.474 110.451 345.415 110.307C345.291 110.016 345.2 109.699 345.12 109.384C344.961 108.746 344.872 108.114 344.807 107.457C344.73 106.803 344.639 106.158 344.54 105.52C344.439 104.882 344.331 104.251 344.205 103.628C344.062 103.001 343.97 102.398 343.677 101.771C343.66 101.708 343.536 101.568 343.461 101.527C343.383 101.481 343.296 101.444 343.203 101.418C343.015 101.367 342.787 101.39 342.616 101.5C342.272 101.728 342.166 102.09 342.104 102.404C342.048 102.728 342.057 103.048 342.092 103.357C342.127 103.654 342.156 103.945 342.179 104.238C342.266 105.409 342.31 106.561 342.241 107.662C342.222 107.936 342.194 108.208 342.141 108.465C342.116 108.594 342.081 108.718 342.036 108.825L341.96 108.955C341.935 109.013 341.913 108.942 341.915 109.036C341.95 108.964 341.916 109.004 341.889 108.945L341.806 108.8C341.757 108.687 341.714 108.567 341.676 108.443C341.599 108.197 341.54 107.941 341.483 107.688C341.072 105.647 340.879 103.695 340.701 101.929V101.951C340.715 101.594 340.693 101.253 340.587 100.917C340.534 100.753 340.457 100.585 340.317 100.454C340.179 100.321 339.98 100.261 339.803 100.267L339.841 100.271C339.563 100.221 339.359 100.391 339.243 100.558C339.124 100.73 339.071 100.917 339.03 101.097C338.954 101.462 338.955 101.81 338.938 102.142C338.912 102.811 338.908 103.44 338.927 104.028C338.949 105.214 339.215 106.197 339.31 107.004C339.43 107.812 339.52 108.439 339.559 108.862C339.603 109.063 339.441 109.192 339.357 109.225C339.26 109.268 339.202 109.274 339.203 109.282Z" fill="#AC584F"/>
<path d="M294.058 144.755C294.058 144.755 292.139 144.663 290.042 145.217C286.462 146.161 280.282 149.917 280.026 154.557H284.515C284.515 154.557 282.001 159.923 282.74 159.426C284.656 158.136 288.472 154.249 288.472 154.249L294.058 144.755Z" fill="#C0776A"/>
<path d="M355.287 63.9853C355.187 63.9937 354.78 60.2718 354.377 55.6732C353.974 51.0733 353.727 47.3382 353.827 47.3292C353.926 47.3208 354.333 51.0414 354.737 55.642C355.14 60.2405 355.386 63.9763 355.287 63.9853Z" fill="#17282F"/>
<path d="M374.979 47.5564C375.06 47.6148 372.027 52.0284 368.206 57.4138C364.384 62.8013 361.219 67.1204 361.138 67.0634C361.057 67.005 364.089 62.5921 367.912 57.2046C371.733 51.8184 374.898 47.498 374.979 47.5564Z" fill="#17282F"/>
<path d="M383.16 67.5612C383.181 67.6592 379.641 68.4719 375.257 69.3756C370.87 70.2793 367.299 70.9328 367.278 70.8347C367.259 70.7367 370.798 69.9248 375.184 69.0211C379.569 68.1173 383.14 67.4639 383.16 67.5612Z" fill="#17282F"/>
<path d="M147.393 163.046L122.881 289.427L119.672 305.971L283.313 305.161C290.657 305.125 297.165 298.586 299.528 288.87L328.545 169.554C330.339 162.179 326.403 154.508 320.829 154.514L155.204 154.688C151.548 154.692 148.35 158.114 147.393 163.046Z" fill="#3563B7"/>
<path d="M285.404 304.974C286.582 304.69 287.584 304.374 288.439 304.045C287.458 304.478 286.443 304.791 285.404 304.974Z" fill="#00639A"/>
<path d="M287.079 301.251C269.329 301.251 267.618 280.879 267.616 280.864L251.989 154.586L320.829 154.514C320.831 154.514 320.833 154.514 320.835 154.514C325.481 154.514 328.987 159.848 328.984 165.895C328.983 167.099 328.843 168.33 328.545 169.555L316.054 220.919L311.078 241.381L299.528 288.871C298.31 293.88 295.99 298.045 293.021 300.91C293.171 300.672 293.216 300.531 293.216 300.531C290.984 301.026 288.941 301.251 287.079 301.251Z" fill="#002261" fill-opacity="0.3"/>
<path d="M267.616 280.864L250.29 140.853C249.58 135.116 245.023 130.837 239.642 130.854L201.65 130.978C198.838 130.988 196.142 132.187 194.145 134.316L176.105 153.547L70.4411 154.1C63.9845 154.134 59.0237 160.261 59.8794 167.145L75.966 296.551C76.6779 302.28 81.2267 306.554 86.5998 306.544L270.748 306.179C291.258 306.605 293.216 300.531 293.216 300.531C269.711 305.754 267.618 280.88 267.616 280.864Z" fill="#002261"/>
<path d="M182.002 259.532L161.517 241.052L167.728 234.363L188.213 252.843L182.002 259.532ZM154.653 234.86L134.169 216.38L140.379 209.691L160.864 228.17L154.653 234.86Z" fill="#F6F6F6"/>
<path d="M142.983 261.016L136.119 254.823L154.653 234.86L160.864 228.17L179.399 208.207L186.263 214.4L167.728 234.363L161.518 241.052L142.983 261.016Z" fill="#F6F6F6"/>
<path d="M293.911 72.1465C293.469 71.9567 293.15 71.5244 293.127 71.0092L292.851 64.556C292.833 64.15 293.006 63.7587 293.318 63.5008C293.63 63.2415 294.046 63.1441 294.44 63.238C295.474 63.4827 296.615 63.2574 297.57 62.6179C298.449 62.0298 299.038 61.1636 299.188 60.2411C299.338 59.3221 299.054 58.3044 298.41 57.4493C297.72 56.5345 296.701 55.9172 295.678 55.8004C293.591 55.5592 291.338 57.1629 290.757 59.302C290.57 59.9936 289.86 60.4017 289.171 60.214C288.47 60.0208 288.074 59.3131 288.261 58.6221C289.172 55.2589 292.633 52.8369 295.975 53.2227C297.708 53.4229 299.35 54.3941 300.473 55.8852C301.542 57.3034 302.004 59.0427 301.741 60.6589C301.476 62.2891 300.48 63.7892 299.006 64.7757C297.941 65.4882 296.719 65.881 295.498 65.9241L295.712 70.8987C295.743 71.614 295.189 72.2195 294.476 72.2494C294.275 72.2584 294.083 72.2209 293.911 72.1465Z" fill="#3563B7"/>
<path d="M295.807 74.7834C295.847 75.3681 295.407 75.8748 294.824 75.9152C294.241 75.9555 293.735 75.5141 293.696 74.9287C293.656 74.3448 294.096 73.838 294.679 73.7977C295.263 73.7574 295.767 74.1988 295.807 74.7834Z" fill="#3563B7"/>
<path d="M271.636 63.0469C271.645 63.0469 271.666 62.9037 271.699 62.6235C271.731 62.3211 271.777 61.9096 271.834 61.3806C271.866 60.8307 272.006 60.1661 272.17 59.3827C272.261 58.9934 272.309 58.5603 272.451 58.1223C272.586 57.6816 272.729 57.2138 272.881 56.7188C273.552 54.7661 274.586 52.4255 276.328 50.096C278.057 47.772 280.488 45.4766 283.609 43.7366C285.145 42.8176 286.903 42.1773 288.745 41.6122C290.616 41.1673 292.6 40.787 294.672 40.8357C295.708 40.7801 296.753 40.9323 297.817 41.022C298.349 41.0734 298.872 41.2159 299.406 41.3091C299.941 41.4085 300.478 41.5128 301.001 41.6949C303.141 42.2455 305.22 43.2576 307.201 44.5124C311.178 47.0219 314.527 51.1033 316.364 56.0521C317.285 58.5276 317.726 61.2416 317.723 63.9826C317.778 66.7292 317.247 69.5196 316.273 72.1452L315.96 72.9391L315.918 73.0441L315.961 73.1421C317.7 77.1581 319.405 81.0969 321.058 84.9126L321.348 84.581C317.769 83.2011 314.298 81.8643 310.968 80.5811L310.839 80.5317L310.738 80.6297C307.858 83.4278 304.418 85.32 300.935 86.305C297.441 87.2929 293.922 87.3436 290.722 86.7736C287.514 86.2035 284.626 84.9731 282.218 83.3916C279.803 81.8101 277.866 79.8873 276.373 77.9339C274.891 75.9575 273.914 73.9318 273.177 72.123C272.528 70.2738 272.13 68.6325 271.938 67.2742C271.856 66.5957 271.783 65.9923 271.72 65.4661C271.706 64.9461 271.695 64.504 271.685 64.1376C271.674 63.7963 271.665 63.5266 271.658 63.3236C271.65 63.1408 271.642 63.0469 271.636 63.0469C271.63 63.0469 271.624 63.1394 271.62 63.3229C271.617 63.5266 271.613 63.7956 271.609 64.139C271.609 64.5068 271.607 64.9517 271.606 65.4744C271.66 66.0055 271.721 66.6138 271.789 67.2978C271.961 68.6694 272.339 70.3302 272.974 72.2071C273.699 74.043 274.668 76.1028 276.153 78.116C277.648 80.1077 279.599 82.0708 282.04 83.6905C284.474 85.3103 287.4 86.5762 290.656 87.1698C293.905 87.7635 297.482 87.726 301.041 86.7326C304.589 85.7413 308.098 83.8233 311.041 80.9759L310.812 81.0246C314.14 82.3127 317.609 83.6551 321.188 85.0405L321.711 85.2428L321.479 84.7082C319.83 80.8904 318.126 76.9516 316.39 72.9342L316.391 73.1365L316.711 72.326C317.708 69.6412 318.248 66.7883 318.192 63.9812C318.194 61.1797 317.738 58.4053 316.795 55.877C314.913 50.8224 311.487 46.6688 307.429 44.1231C305.409 42.8496 303.289 41.8277 301.109 41.2729C300.576 41.0908 300.03 40.9858 299.486 40.8864C298.942 40.7933 298.409 40.6508 297.869 40.6014C296.787 40.5138 295.724 40.3643 294.672 40.4248C292.566 40.3838 290.551 40.7787 288.655 41.2416C286.786 41.8249 285.006 42.4853 283.453 43.4273C280.297 45.2117 277.85 47.5579 276.121 49.9264C274.379 52.299 273.357 54.6785 272.708 56.6562C272.562 57.1575 272.424 57.6323 272.295 58.0786C272.159 58.5214 272.117 58.9593 272.033 59.3528C271.882 60.1453 271.756 60.8154 271.74 61.3695C271.702 61.9013 271.672 62.3163 271.651 62.6208C271.633 62.9023 271.628 63.0462 271.636 63.0469Z" fill="#17282F"/>
</g>
<defs>
<clipPath id="clip0">
<rect width="417" height="308" fill="white"/>
</clipPath>
</defs>
</svg>
